STARTFONT 2.1
FONT -Adobe-Courier-Medium-O-Normal--34-240-100-100-M-200-ISO10646-1
SIZE 24 100 100
FONTBOUNDINGBOX 34 42 -6 -10
COMMENT $Xorg: $
COMMENT ISO10646-1 extension by Markus Kuhn <mkuhn@acm.org>, 2001-03-20
COMMENT 
COMMENT +
COMMENT  Copyright 1984-1989, 1994 Adobe Systems Incorporated.
COMMENT  Copyright 1988, 1994 Digital Equipment Corporation.
COMMENT
COMMENT  Adobe is a trademark of Adobe Systems Incorporated which may be
COMMENT  registered in certain jurisdictions.
COMMENT  Permission to use these trademarks is hereby granted only in
COMMENT  association with the images described in this file.
COMMENT
COMMENT  Permission to use, copy, modify, distribute and sell this software
COMMENT  and its documentation for any purpose and without fee is hereby
COMMENT  granted, provided that the above copyright notices appear in all
COMMENT  copies and that both those copyright notices and this permission
COMMENT  notice appear in supporting documentation, and that the names of
COMMENT  Adobe Systems and Digital Equipment Corporation not be used in
COMMENT  advertising or publicity pertaining to distribution of the software
COMMENT  without specific, written prior permission.  Adobe Systems and
COMMENT  Digital Equipment Corporation make no representations about the
COMMENT  suitability of this software for any purpose.  It is provided "as
COMMENT  is" without express or implied warranty.
COMMENT -
STARTPROPERTIES 26
FOUNDRY "Adobe"
FAMILY_NAME "Courier"
WEIGHT_NAME "Medium"
SLANT "O"
SETWIDTH_NAME "Normal"
ADD_STYLE_NAME ""
PIXEL_SIZE 34
POINT_SIZE 240
RESOLUTION_X 100
RESOLUTION_Y 100
SPACING "M"
AVERAGE_WIDTH 200
CHARSET_REGISTRY "ISO10646"
CHARSET_ENCODING "1"
CAP_HEIGHT 19
X_HEIGHT 14
FONT_ASCENT 23
FONT_DESCENT 6
FACE_NAME "Courier Oblique"
COPYRIGHT "Copyright (c) 1984, 1987 Adobe Systems Incorporated. All Rights Reserved. Copyright (c) 1988, 1991 Digital Equipment Corporation. All Rights Reserved."
NOTICE "No mark"

STARTCHAR char0
ENCODING 0
SWIDTH 600 0
DWIDTH 20 0
BBX 19 19 2 0
BITMAP
AAAAA0
000000
800020
000000
800020
000000
800020
000000
800020
000000
800020
000000
800020
000000
800020
000000
800020
000000
AAAAA0
ENDCHAR
STARTCHAR space
ENCODING 32
SWIDTH 600 0
DWIDTH 20 0
BBX 1 1 0 0
BITMAP
00
ENDCHAR
STARTCHAR exclam
ENCODING 33
SWIDTH 600 0
DWIDTH 20 0
BBX 8 21 8 0
BITMAP
02
07
06
06
0E
0C
0C
0C
08
08
18
10
10
10
00
00
00
00
70
F0
E0
ENDCHAR
STARTCHAR quotedbl
ENCODING 34
SWIDTH 600 0
DWIDTH 20 0
BBX 11 8 8 13
BITMAP
F1E0
F1E0
E1C0
E1C0
C180
C180
8100
8100
ENDCHAR
STARTCHAR numbersign
ENCODING 35
SWIDTH 600 0
DWIDTH 20 0
BBX 15 23 4 -2
BITMAP
0088
0088
0110
0110
0110
0110
0220
0220
3FFE
0220
0440
0440
0440
0880
FFF8
0880
0880
1100
1100
1100
1100
2200
2200
ENDCHAR
STARTCHAR dollar
ENCODING 36
SWIDTH 600 0
DWIDTH 20 0
BBX 14 26 5 -3
BITMAP
0020
0020
0040
0040
01C4
0634
0808
0808
1008
1000
1000
0C00
0380
0060
0010
0010
4010
4020
4020
E1C0
9E00
0800
0800
0800
1000
1000
ENDCHAR
STARTCHAR percent
ENCODING 37
SWIDTH 600 0
DWIDTH 20 0
BBX 14 20 5 0
BITMAP
0380
0C40
0840
1040
1040
1080
1180
0E0C
0070
0380
3800
C000
01C0
0660
0420
0820
0820
0840
08C0
0700
ENDCHAR
STARTCHAR ampersand
ENCODING 38
SWIDTH 600 0
DWIDTH 20 0
BBX 13 17 5 0
BITMAP
0390
0460
0800
0800
0800
0800
0400
0400
1C00
2218
4220
4220
8140
8180
8100
8280
7CE0
ENDCHAR
STARTCHAR quotesingle
ENCODING 39
SWIDTH 600 0
DWIDTH 20 0
BBX 5 9 11 11
BITMAP
78
70
70
F0
E0
E0
E0
C0
C0
ENDCHAR
STARTCHAR parenleft
ENCODING 40
SWIDTH 600 0
DWIDTH 20 0
BBX 8 25 13 -4
BITMAP
01
02
06
04
08
18
30
30
60
60
60
C0
C0
C0
C0
C0
80
80
80
80
40
40
40
20
20
ENDCHAR
STARTCHAR parenright
ENCODING 41
SWIDTH 600 0
DWIDTH 20 0
BBX 8 25 4 -4
BITMAP
04
04
02
02
02
01
01
01
01
03
03
03
03
03
06
06
06
0C
0C
18
10
20
60
40
80
ENDCHAR
STARTCHAR asterisk
ENCODING 42
SWIDTH 600 0
DWIDTH 20 0
BBX 12 13 7 8
BITMAP
0200
0200
0200
0600
E430
35E0
0E00
0A00
1300
3100
2100
4080
8080
ENDCHAR
STARTCHAR plus
ENCODING 43
SWIDTH 600 0
DWIDTH 20 0
BBX 15 17 4 1
BITMAP
0040
0040
0040
0080
0080
0080
0100
0100
FFFE
0100
0100
0200
0200
0200
0200
0400
0400
ENDCHAR
STARTCHAR comma
ENCODING 44
SWIDTH 600 0
DWIDTH 20 0
BBX 8 7 4 -3
BITMAP
1F
1E
3C
38
70
60
C0
ENDCHAR
STARTCHAR hyphen
ENCODING 45
SWIDTH 600 0
DWIDTH 20 0
BBX 14 1 5 8
BITMAP
FFFC
ENDCHAR
STARTCHAR period
ENCODING 46
SWIDTH 600 0
DWIDTH 20 0
BBX 4 4 8 0
BITMAP
70
F0
F0
E0
ENDCHAR
STARTCHAR slash
ENCODING 47
SWIDTH 600 0
DWIDTH 20 0
BBX 18 25 3 -3
BITMAP
000040
000080
000080
000100
000200
000400
000400
000800
001000
001000
002000
004000
008000
008000
010000
020000
020000
040000
080000
080000
100000
200000
400000
400000
800000
ENDCHAR
STARTCHAR zero
ENCODING 48
SWIDTH 600 0
DWIDTH 20 0
BBX 13 20 6 0
BITMAP
03C0
0420
1810
1010
2008
2008
2008
4008
4008
8008
8010
8010
8010
8020
8020
8020
4040
40C0
2100
1E00
ENDCHAR
STARTCHAR one
ENCODING 49
SWIDTH 600 0
DWIDTH 20 0
BBX 12 20 5 0
BITMAP
0060
03A0
0E40
0040
0080
0080
0080
0080
0100
0100
0100
0100
0200
0200
0200
0200
0400
0400
0400
FFF0
ENDCHAR
STARTCHAR two
ENCODING 50
SWIDTH 600 0
DWIDTH 20 0
BBX 15 20 3 0
BITMAP
00F8
0304
0402
0802
1002
0002
0004
0004
0008
0010
0020
0040
0080
0100
0200
0400
1800
3008
C008
FFF0
ENDCHAR
STARTCHAR three
ENCODING 51
SWIDTH 600 0
DWIDTH 20 0
BBX 16 19 3 0
BITMAP
00FC
0302
0401
0001
0001
0001
0002
000C
00F0
0008
0004
0004
0004
0004
0008
0008
C010
3060
0F80
ENDCHAR
STARTCHAR four
ENCODING 52
SWIDTH 600 0
DWIDTH 20 0
BBX 13 20 5 0
BITMAP
0018
0028
0048
0088
0110
0210
0410
0420
0820
1020
2020
4020
8040
FFF0
0040
0040
0040
0080
0080
07E0
ENDCHAR
STARTCHAR five
ENCODING 53
SWIDTH 600 0
DWIDTH 20 0
BBX 14 20 5 0
BITMAP
07FC
0400
0400
0800
0800
0800
11C0
1630
1810
1008
0008
0008
0008
0008
0008
0010
0010
8020
60C0
1F00
ENDCHAR
STARTCHAR six
ENCODING 54
SWIDTH 600 0
DWIDTH 20 0
BBX 13 20 7 0
BITMAP
00E0
0318
0C00
0800
1000
2000
2000
4000
4780
9840
A020
C020
C020
8020
8020
8040
8040
C080
4100
3E00
ENDCHAR
STARTCHAR seven
ENCODING 55
SWIDTH 600 0
DWIDTH 20 0
BBX 12 20 8 0
BITMAP
FFF0
8010
8020
0020
0040
0040
0080
0080
0100
0100
0200
0200
0400
0400
0800
0800
1000
1000
2000
2000
ENDCHAR
STARTCHAR eight
ENCODING 56
SWIDTH 600 0
DWIDTH 20 0
BBX 13 20 5 0
BITMAP
03C0
0C30
1010
1008
2008
2008
2008
2010
1830
07C0
1860
2010
4010
4010
8010
8010
8020
8020
40C0
3F00
ENDCHAR
STARTCHAR nine
ENCODING 57
SWIDTH 600 0
DWIDTH 20 0
BBX 14 20 5 0
BITMAP
01E0
0618
0808
1004
1004
2004
2004
2004
200C
2014
1024
18C8
0708
0008
0010
0030
0040
00C0
0700
F800
ENDCHAR
STARTCHAR colon
ENCODING 58
SWIDTH 600 0
DWIDTH 20 0
BBX 6 14 8 0
BITMAP
1C
3C
3C
38
00
00
00
00
00
00
70
F0
F0
E0
ENDCHAR
STARTCHAR semicolon
ENCODING 59
SWIDTH 600 0
DWIDTH 20 0
BBX 10 17 4 -3
BITMAP
01C0
03C0
03C0
0380
0000
0000
0000
0000
0000
0000
1F00
1E00
3C00
3800
7000
E000
C000
ENDCHAR
STARTCHAR less
ENCODING 60
SWIDTH 600 0
DWIDTH 20 0
BBX 16 17 5 1
BITMAP
0003
000E
0038
00E0
0380
0E00
3800
6000
C000
6000
3000
1C00
0600
0300
01C0
0060
0030
ENDCHAR
STARTCHAR equal
ENCODING 61
SWIDTH 600 0
DWIDTH 20 0
BBX 17 6 3 6
BITMAP
7FFF80
000000
000000
000000
000000
FFFF00
ENDCHAR
STARTCHAR greater
ENCODING 62
SWIDTH 600 0
DWIDTH 20 0
BBX 16 17 3 1
BITMAP
0C00
0700
0180
00C0
0070
0018
000C
0006
0003
0006
001C
0070
01C0
0700
1C00
7000
C000
ENDCHAR
STARTCHAR question
ENCODING 63
SWIDTH 600 0
DWIDTH 20 0
BBX 11 19 8 0
BITMAP
1F80
30C0
4020
8020
0020
0060
0040
0180
0600
0C00
1000
3000
2000
0000
0000
0000
7000
F000
E000
ENDCHAR
STARTCHAR at
ENCODING 64
SWIDTH 600 0
DWIDTH 20 0
BBX 13 23 5 -2
BITMAP
01F0
0718
0808
1808
1008
1008
3008
2078
2190
6210
4210
4410
C410
8420
8260
81B0
8000
8000
8000
C000
4000
20C0
1F00
ENDCHAR
STARTCHAR A
ENCODING 65
SWIDTH 600 0
DWIDTH 20 0
BBX 19 19 0 0
BITMAP
01FE00
001200
001200
002200
002200
004100
004100
008100
008100
010100
020100
020100
07FF00
040100
080080
080080
100080
100080
FE07E0
ENDCHAR
STARTCHAR B
ENCODING 66
SWIDTH 600 0
DWIDTH 20 0
BBX 19 19 1 0
BITMAP
0FFF80
010040
010020
020020
020020
020020
020040
040080
040300
07FE00
040180
040040
080040
080040
080040
080080
100080
100700
FFF800
ENDCHAR
STARTCHAR C
ENCODING 67
SWIDTH 600 0
DWIDTH 20 0
BBX 17 19 4 0
BITMAP
00F080
070E80
080180
100100
200100
200100
400000
400000
800000
800000
800000
800000
800000
800000
800000
400400
401800
38E000
070000
ENDCHAR
STARTCHAR D
ENCODING 68
SWIDTH 600 0
DWIDTH 20 0
BBX 17 19 2 0
BITMAP
0FF800
020600
020100
040100
040080
040080
040080
080080
080080
080080
080080
080080
100100
100100
100200
100200
200C00
207000
FF8000
ENDCHAR
STARTCHAR E
ENCODING 69
SWIDTH 600 0
DWIDTH 20 0
BBX 19 19 1 0
BITMAP
0FFFE0
010020
010020
020040
020040
020440
020400
040400
07FC00
040800
040800
040800
080000
080080
080080
080080
100100
100100
FFFF00
ENDCHAR
STARTCHAR F
ENCODING 70
SWIDTH 600 0
DWIDTH 20 0
BBX 20 19 1 0
BITMAP
0FFFF0
010010
010010
020020
020020
020420
020400
040400
07FC00
040800
040800
040800
080000
080000
080000
080000
100000
100000
FFC000
ENDCHAR
STARTCHAR G
ENCODING 71
SWIDTH 600 0
DWIDTH 20 0
BBX 17 19 4 0
BITMAP
00F080
070E80
080180
100100
200100
400100
400000
800000
800000
800000
800000
80FF00
800200
800400
800400
400400
400800
303800
0FC000
ENDCHAR
STARTCHAR H
ENCODING 72
SWIDTH 600 0
DWIDTH 20 0
BBX 20 19 2 0
BITMAP
0FC3F0
020040
020040
040080
040080
040080
040080
080100
080100
0FFF00
080100
080100
100200
100200
100200
100200
200400
200400
FC3F80
ENDCHAR
STARTCHAR I
ENCODING 73
SWIDTH 600 0
DWIDTH 20 0
BBX 15 19 4 0
BITMAP
1FFE
0040
0040
0080
0080
0080
0080
0100
0100
0100
0100
0100
0200
0200
0200
0200
0400
0400
FFF0
ENDCHAR
STARTCHAR J
ENCODING 74
SWIDTH 600 0
DWIDTH 20 0
BBX 19 19 4 0
BITMAP
00FFE0
000200
000200
000400
000400
000400
000400
000800
000800
000800
000800
401000
401000
401000
801000
802000
402000
30C000
0F0000
ENDCHAR
STARTCHAR K
ENCODING 75
SWIDTH 600 0
DWIDTH 20 0
BBX 21 19 1 0
BITMAP
0FE1F8
010020
0100C0
020100
020200
020400
021800
042000
044000
05B000
060800
040800
080800
080400
080400
080400
100400
100200
FF03C0
ENDCHAR
STARTCHAR L
ENCODING 76
SWIDTH 600 0
DWIDTH 20 0
BBX 17 19 2 0
BITMAP
0FF800
008000
008000
010000
010000
010000
010000
020000
020000
020000
020000
020000
040080
040080
040080
040100
080100
080100
FFFF00
ENDCHAR
STARTCHAR M
ENCODING 77
SWIDTH 600 0
DWIDTH 20 0
BBX 22 19 1 0
BITMAP
0F003C
030050
028050
0480A0
048120
048120
044220
084440
084440
084840
083040
083040
102080
100080
100080
100080
200100
200100
FC0FC0
ENDCHAR
STARTCHAR N
ENCODING 78
SWIDTH 600 0
DWIDTH 20 0
BBX 20 19 2 0
BITMAP
1F03F0
030040
028040
048080
048080
048080
044080
084100
084100
084100
082100
082100
102200
101200
101200
101200
201400
200C00
FC0C00
ENDCHAR
STARTCHAR O
ENCODING 79
SWIDTH 600 0
DWIDTH 20 0
BBX 16 19 4 0
BITMAP
01F0
0608
1804
2002
2002
4001
4001
4001
8001
8001
8001
8002
8002
8002
4004
4004
2018
1060
0F80
ENDCHAR
STARTCHAR P
ENCODING 80
SWIDTH 600 0
DWIDTH 20 0
BBX 18 19 1 0
BITMAP
0FFE00
010180
010040
020040
020040
020040
020040
040080
040100
040600
07F800
040000
080000
080000
080000
080000
100000
100000
FFC000
ENDCHAR
STARTCHAR Q
ENCODING 81
SWIDTH 600 0
DWIDTH 20 0
BBX 16 22 4 -3
BITMAP
03F0
0C0C
1002
2002
2001
4001
4001
4001
8001
8001
8001
8002
8002
8002
4004
4004
2008
1830
07C0
1800
7E0C
C1F0
ENDCHAR
STARTCHAR R
ENCODING 82
SWIDTH 600 0
DWIDTH 20 0
BBX 19 19 1 0
BITMAP
0FFE00
010180
010040
020040
020040
020040
020080
040100
040E00
07F000
041800
040400
080400
080200
080200
080100
100100
100080
FF00E0
ENDCHAR
STARTCHAR S
ENCODING 83
SWIDTH 600 0
DWIDTH 20 0
BBX 17 19 3 0
BITMAP
00F880
030680
040180
040100
080100
080100
080000
080000
060000
01C000
003800
000400
000200
400200
400200
400400
600400
B03800
8FC000
ENDCHAR
STARTCHAR T
ENCODING 84
SWIDTH 600 0
DWIDTH 20 0
BBX 16 19 5 0
BITMAP
3FFF
2081
2081
4102
4102
4102
4102
0200
0200
0200
0200
0200
0400
0400
0400
0400
0800
0800
FFC0
ENDCHAR
STARTCHAR U
ENCODING 85
SWIDTH 600 0
DWIDTH 20 0
BBX 17 19 5 0
BITMAP
7E1F80
100200
100200
200400
200400
200400
200400
400800
400800
400800
400800
801000
801000
801000
802000
402000
404000
208000
1F0000
ENDCHAR
STARTCHAR V
ENCODING 86
SWIDTH 600 0
DWIDTH 20 0
BBX 19 19 4 0
BITMAP
FC0FE0
200100
200100
200200
100200
100400
100400
100800
101000
101000
082000
084000
084000
088000
088000
090000
050000
060000
060000
ENDCHAR
STARTCHAR W
ENCODING 87
SWIDTH 600 0
DWIDTH 20 0
BBX 19 19 4 0
BITMAP
FE0FE0
200080
200100
200100
21C100
414200
424200
424200
444400
444400
484400
484800
484800
504800
905000
A05000
A05000
C06000
C06000
ENDCHAR
STARTCHAR X
ENCODING 88
SWIDTH 600 0
DWIDTH 20 0
BBX 21 19 1 0
BITMAP
0F81F8
020020
020040
010080
010100
008200
008400
004800
005000
002000
005000
009000
010800
020800
040400
080400
100200
200200
FC1F80
ENDCHAR
STARTCHAR Y
ENCODING 89
SWIDTH 600 0
DWIDTH 20 0
BBX 17 19 5 0
BITMAP
F81F80
200400
100800
100800
081000
082000
084000
048000
048000
030000
020000
020000
020000
040000
040000
040000
040000
080000
FFC000
ENDCHAR
STARTCHAR Z
ENCODING 90
SWIDTH 600 0
DWIDTH 20 0
BBX 16 19 3 0
BITMAP
07FF
0401
0402
0804
0808
0808
0010
0020
0040
0080
0100
0200
0404
0404
0804
1008
2008
4008
FFF8
ENDCHAR
STARTCHAR bracketleft
ENCODING 91
SWIDTH 600 0
DWIDTH 20 0
BBX 11 25 8 -4
BITMAP
07E0
0400
0400
0800
0800
0800
0800
0800
1000
1000
1000
1000
2000
2000
2000
2000
2000
4000
4000
4000
4000
4000
8000
8000
FC00
ENDCHAR
STARTCHAR backslash
ENCODING 92
SWIDTH 600 0
DWIDTH 20 0
BBX 6 25 9 -3
BITMAP
80
80
80
40
40
40
40
40
20
20
20
20
20
10
10
10
10
08
08
08
08
08
04
04
04
ENDCHAR
STARTCHAR bracketright
ENCODING 93
SWIDTH 600 0
DWIDTH 20 0
BBX 10 25 4 -4
BITMAP
07C0
0040
0040
0080
0080
0080
0080
0080
0100
0100
0100
0100
0200
0200
0200
0200
0200
0400
0400
0400
0400
0400
0800
0800
F800
ENDCHAR
STARTCHAR asciicircum
ENCODING 94
SWIDTH 600 0
DWIDTH 20 0
BBX 12 9 6 12
BITMAP
0100
0380
0680
0CC0
1840
3060
6020
C030
8010
ENDCHAR
STARTCHAR underscore
ENCODING 95
SWIDTH 600 0
DWIDTH 20 0
BBX 20 1 0 -6
BITMAP
FFFFF0
ENDCHAR
STARTCHAR grave
ENCODING 96
SWIDTH 600 0
DWIDTH 20 0
BBX 6 5 9 16
BITMAP
C0
60
30
18
0C
ENDCHAR
STARTCHAR a
ENCODING 97
SWIDTH 600 0
DWIDTH 20 0
BBX 14 14 4 0
BITMAP
07C0
1830
0008
0008
0008
0008
0F88
3070
4010
4010
8010
8020
80E0
7F3C
ENDCHAR
STARTCHAR b
ENCODING 98
SWIDTH 600 0
DWIDTH 20 0
BBX 18 20 1 0
BITMAP
0F0000
010000
020000
020000
020000
020000
021E00
046100
058080
050080
060040
040040
0C0040
080040
080080
080100
0C0100
140200
120C00
F1F000
ENDCHAR
STARTCHAR c
ENCODING 99
SWIDTH 600 0
DWIDTH 20 0
BBX 14 14 5 0
BITMAP
07E4
1814
201C
4008
4008
8000
8000
8000
8000
8000
4008
4030
30C0
0F00
ENDCHAR
STARTCHAR d
ENCODING 100
SWIDTH 600 0
DWIDTH 20 0
BBX 16 20 4 0
BITMAP
000F
0001
0002
0002
0002
0002
0782
1864
3014
400C
400C
8004
8004
8008
8008
8018
8018
4070
6190
1E1E
ENDCHAR
STARTCHAR e
ENCODING 101
SWIDTH 600 0
DWIDTH 20 0
BBX 14 14 4 0
BITMAP
07C0
1830
2008
4008
4004
8004
FFFC
8000
8000
8000
4000
4018
3060
0F80
ENDCHAR
STARTCHAR f
ENCODING 102
SWIDTH 600 0
DWIDTH 20 0
BBX 18 20 4 0
BITMAP
001F00
0060C0
004000
008000
008000
008000
1FFE00
010000
010000
010000
020000
020000
020000
020000
040000
040000
040000
040000
080000
FFF000
ENDCHAR
STARTCHAR g
ENCODING 103
SWIDTH 600 0
DWIDTH 20 0
BBX 18 20 4 -6
BITMAP
07E3C0
181200
200A00
200400
400400
400400
800400
800C00
800800
801800
402800
60C800
1F1000
001000
001000
001000
001000
002000
004000
7F8000
ENDCHAR
STARTCHAR h
ENCODING 104
SWIDTH 600 0
DWIDTH 20 0
BBX 17 20 2 0
BITMAP
1E0000
020000
040000
040000
040000
040000
043C00
08C200
0B0200
0C0100
080100
080100
100100
100200
100200
100200
100200
200400
200400
FC1F80
ENDCHAR
STARTCHAR i
ENCODING 105
SWIDTH 600 0
DWIDTH 20 0
BBX 13 20 3 0
BITMAP
0060
0060
0060
0000
0000
0000
0FC0
0040
0040
0080
0080
0080
0080
0100
0100
0100
0100
0200
0200
FFF8
ENDCHAR
STARTCHAR j
ENCODING 106
SWIDTH 600 0
DWIDTH 20 0
BBX 14 26 2 -6
BITMAP
000C
000C
000C
0000
0000
0000
0FFC
0004
0004
0008
0008
0008
0008
0010
0010
0010
0010
0010
0020
0020
0020
0020
0040
0040
0380
FC00
ENDCHAR
STARTCHAR k
ENCODING 107
SWIDTH 600 0
DWIDTH 20 0
BBX 17 20 2 0
BITMAP
0F0000
010000
020000
020000
020000
020000
021F80
040C00
041000
042000
04C000
050000
0E8000
084000
084000
082000
081000
100800
100800
F03F00
ENDCHAR
STARTCHAR l
ENCODING 108
SWIDTH 600 0
DWIDTH 20 0
BBX 13 20 3 0
BITMAP
0FE0
0020
0040
0040
0040
0040
0040
0080
0080
0080
0080
0080
0100
0100
0100
0100
0100
0200
0200
FFF8
ENDCHAR
STARTCHAR m
ENCODING 109
SWIDTH 600 0
DWIDTH 20 0
BBX 19 14 1 0
BITMAP
1CE1C0
051220
061420
0C1820
081020
081020
081040
102040
102040
102040
102040
204080
204080
F870E0
ENDCHAR
STARTCHAR n
ENCODING 110
SWIDTH 600 0
DWIDTH 20 0
BBX 16 14 2 0
BITMAP
1C3C
04C2
0502
0E01
0801
0801
0801
1002
1002
1002
1002
2004
2004
FC1F
ENDCHAR
STARTCHAR o
ENCODING 111
SWIDTH 600 0
DWIDTH 20 0
BBX 15 14 4 0
BITMAP
03F0
0C08
1004
2004
2002
4002
4002
8004
8004
8008
4008
4010
2060
1F80
ENDCHAR
STARTCHAR p
ENCODING 112
SWIDTH 600 0
DWIDTH 20 0
BBX 19 20 0 -6
BITMAP
0F0F00
0130C0
014040
018040
030020
020020
020020
060020
040020
040040
060040
060080
058300
087C00
080000
080000
080000
100000
100000
FF0000
ENDCHAR
STARTCHAR q
ENCODING 113
SWIDTH 600 0
DWIDTH 20 0
BBX 18 20 4 -6
BITMAP
03C3C0
0C3200
300A00
200600
400400
400400
800C00
800C00
800800
801800
801800
402800
60C800
1F1000
001000
001000
001000
002000
002000
03FC00
ENDCHAR
STARTCHAR r
ENCODING 114
SWIDTH 600 0
DWIDTH 20 0
BBX 17 14 3 0
BITMAP
1F0F00
013080
01C000
030000
020000
020000
020000
040000
040000
040000
040000
080000
080000
FFF000
ENDCHAR
STARTCHAR s
ENCODING 115
SWIDTH 600 0
DWIDTH 20 0
BBX 15 14 4 0
BITMAP
01E2
061A
0804
1004
1000
0C00
0380
0070
0008
4004
4004
4008
B030
8FC0
ENDCHAR
STARTCHAR t
ENCODING 116
SWIDTH 600 0
DWIDTH 20 0
BBX 13 19 4 0
BITMAP
0400
0400
0400
0800
0800
FFF8
0800
0800
1000
1000
1000
1000
1000
2000
2000
2000
1008
1030
0FC0
ENDCHAR
STARTCHAR u
ENCODING 117
SWIDTH 600 0
DWIDTH 20 0
BBX 15 14 4 0
BITMAP
F03E
1002
1002
2004
2004
2004
2004
2008
4008
4008
4008
4030
20D0
1F1C
ENDCHAR
STARTCHAR v
ENCODING 118
SWIDTH 600 0
DWIDTH 20 0
BBX 17 14 4 0
BITMAP
FC1F80
200400
200400
200800
100800
101000
102000
102000
104000
108000
088000
090000
0A0000
0E0000
ENDCHAR
STARTCHAR w
ENCODING 119
SWIDTH 600 0
DWIDTH 20 0
BBX 17 14 4 0
BITMAP
F80F80
400100
400100
400200
410200
430400
428400
448800
448800
489000
489000
50A000
50A000
60C000
ENDCHAR
STARTCHAR x
ENCODING 120
SWIDTH 600 0
DWIDTH 20 0
BBX 19 14 1 0
BITMAP
0F83E0
020080
010300
010400
008800
005000
006000
00A000
011000
020800
040400
180400
200200
FC1F80
ENDCHAR
STARTCHAR y
ENCODING 121
SWIDTH 600 0
DWIDTH 20 0
BBX 20 20 0 -6
BITMAP
1F81F0
040040
020040
020080
020100
010100
010200
010400
010400
008800
009000
00A000
006000
004000
008000
008000
010000
020000
020000
FFC000
ENDCHAR
STARTCHAR z
ENCODING 122
SWIDTH 600 0
DWIDTH 20 0
BBX 14 14 4 0
BITMAP
1FFC
1008
2010
2020
0040
0080
0100
0200
0400
0800
1008
2008
4010
FFF0
ENDCHAR
STARTCHAR braceleft
ENCODING 123
SWIDTH 600 0
DWIDTH 20 0
BBX 9 25 8 -4
BITMAP
0180
0200
0600
0400
0C00
0800
0800
0800
1800
1000
1000
1000
6000
8000
6000
2000
2000
2000
2000
6000
4000
4000
4000
4000
3000
ENDCHAR
STARTCHAR bar
ENCODING 124
SWIDTH 600 0
DWIDTH 20 0
BBX 6 25 8 -4
BITMAP
04
04
04
08
08
08
08
08
10
10
10
10
20
20
20
20
20
40
40
40
40
40
80
80
80
ENDCHAR
STARTCHAR braceright
ENCODING 125
SWIDTH 600 0
DWIDTH 20 0
BBX 9 25 5 -4
BITMAP
0200
0100
0080
0080
0080
0100
0100
0100
0100
0300
0200
0100
0100
0180
0200
0200
0600
0400
0400
0C00
0800
0800
0800
3000
C000
ENDCHAR
STARTCHAR asciitilde
ENCODING 126
SWIDTH 600 0
DWIDTH 20 0
BBX 14 5 5 7
BITMAP
1C00
3E0C
6318
C1F0
00E0
ENDCHAR
STARTCHAR space
ENCODING 160
SWIDTH 600 0
DWIDTH 20 0
BBX 1 1 0 0
BITMAP
00
ENDCHAR
STARTCHAR exclamdown
ENCODING 161
SWIDTH 600 0
DWIDTH 20 0
BBX 7 20 7 -6
BITMAP
0E
1E
1C
00
00
00
08
08
08
18
10
30
30
30
60
70
60
60
E0
40
ENDCHAR
STARTCHAR cent
ENCODING 162
SWIDTH 600 0
DWIDTH 20 0
BBX 12 21 6 0
BITMAP
0080
0080
0080
0100
0100
07C0
1830
2020
4020
4000
8000
8000
8000
8000
4040
6080
1F00
0800
0800
1000
1000
ENDCHAR
STARTCHAR sterling
ENCODING 163
SWIDTH 600 0
DWIDTH 20 0
BBX 14 19 3 0
BITMAP
00E0
0198
0204
0200
0600
0400
0400
0400
0400
7FC0
0400
0400
0C00
0800
0800
1000
1004
2008
FFF0
ENDCHAR
STARTCHAR currency
ENCODING 164
SWIDTH 600 0
DWIDTH 20 0
BBX 13 13 6 3
BITMAP
4008
2790
1860
1040
2020
2020
4020
4020
4040
4040
2180
5E40
8020
ENDCHAR
STARTCHAR yen
ENCODING 165
SWIDTH 600 0
DWIDTH 20 0
BBX 17 19 5 0
BITMAP
F81F80
200400
100800
100800
081000
082000
084000
048000
048000
030000
7FF800
020000
020000
FFF000
040000
040000
040000
080000
FF8000
ENDCHAR
STARTCHAR brokenbar
ENCODING 166
SWIDTH 600 0
DWIDTH 20 0
BBX 6 25 8 -4
BITMAP
04
04
04
08
08
08
08
10
10
10
00
00
00
00
00
20
20
20
40
40
40
40
80
80
80
ENDCHAR
STARTCHAR section
ENCODING 167
SWIDTH 600 0
DWIDTH 20 0
BBX 16 23 4 -2
BITMAP
00FF
0101
0201
0201
0400
0400
0E00
1180
2040
2020
3010
1008
080C
0404
0204
0188
0070
0020
0020
8040
8040
8180
FE00
ENDCHAR
STARTCHAR dieresis
ENCODING 168
SWIDTH 600 0
DWIDTH 20 0
BBX 10 3 9 16
BITMAP
60C0
E1C0
C180
ENDCHAR
STARTCHAR copyright
ENCODING 169
SWIDTH 600 0
DWIDTH 20 0
BBX 19 19 2 0
BITMAP
007C00
018300
060080
080040
107040
218E20
420420
440420
440020
880020
880020
880020
880440
840840
823080
41C100
200200
1C1C00
03E000
ENDCHAR
STARTCHAR ordfeminine
ENCODING 170
SWIDTH 600 0
DWIDTH 20 0
BBX 10 12 7 7
BITMAP
0F00
1980
0040
00C0
1E80
3180
4180
6300
3DC0
0000
0000
FFC0
ENDCHAR
STARTCHAR guillemotleft
ENCODING 171
SWIDTH 600 0
DWIDTH 20 0
BBX 17 14 4 0
BITMAP
004080
008100
030600
060C00
0C1800
387000
70E000
E1C000
60C000
306000
183000
081000
040800
020400
ENDCHAR
STARTCHAR logicalnot
ENCODING 172
SWIDTH 600 0
DWIDTH 20 0
BBX 14 6 5 6
BITMAP
FFFC
0004
0004
0008
0008
0008
ENDCHAR
STARTCHAR hyphen
ENCODING 173
SWIDTH 600 0
DWIDTH 20 0
BBX 14 1 5 8
BITMAP
FFFC
ENDCHAR
STARTCHAR registered
ENCODING 174
SWIDTH 600 0
DWIDTH 20 0
BBX 20 19 2 0
BITMAP
007C00
038300
0C0080
100040
21F020
408820
408410
810410
810410
810810
81F010
812020
821020
420840
470C40
200080
100300
0C0C00
03F000
ENDCHAR
STARTCHAR macron
ENCODING 175
SWIDTH 600 0
DWIDTH 20 0
BBX 10 1 9 17
BITMAP
FFC0
ENDCHAR
STARTCHAR degree
ENCODING 176
SWIDTH 600 0
DWIDTH 20 0
BBX 10 10 8 11
BITMAP
0F00
3080
4040
8040
8040
8040
8040
8080
4300
3C00
ENDCHAR
STARTCHAR plusminus
ENCODING 177
SWIDTH 600 0
DWIDTH 20 0
BBX 16 16 3 1
BITMAP
0020
0020
0020
0040
0040
0040
3FFF
0080
0080
0080
0100
0100
0100
0000
0000
FFFC
ENDCHAR
STARTCHAR twosuperior
ENCODING 178
SWIDTH 600 0
DWIDTH 20 0
BBX 11 13 7 8
BITMAP
0380
0C40
1020
2020
0020
0040
0080
0300
0400
0800
3000
4080
FF80
ENDCHAR
STARTCHAR threesuperior
ENCODING 179
SWIDTH 600 0
DWIDTH 20 0
BBX 9 13 8 8
BITMAP
0E00
1100
2080
0080
0080
0300
0C00
0200
0100
0100
8100
4200
3C00
ENDCHAR
STARTCHAR acute
ENCODING 180
SWIDTH 600 0
DWIDTH 20 0
BBX 7 5 13 16
BITMAP
06
0C
38
60
C0
ENDCHAR
STARTCHAR mu
ENCODING 181
SWIDTH 600 0
DWIDTH 20 0
BBX 16 20 3 -6
BITMAP
781F
0801
0801
1002
1002
1002
1002
1004
2004
2004
2004
2018
5028
4FCE
4000
4000
4000
8000
8000
8000
ENDCHAR
STARTCHAR paragraph
ENCODING 182
SWIDTH 600 0
DWIDTH 20 0
BBX 16 23 6 -2
BITMAP
07FF
1C88
3088
6110
6110
C110
C110
C110
C110
6220
6220
3E20
0220
0220
0440
0440
0440
0440
0440
0440
0880
0880
F9E0
ENDCHAR
STARTCHAR periodcentered
ENCODING 183
SWIDTH 600 0
DWIDTH 20 0
BBX 4 4 9 8
BITMAP
70
F0
F0
E0
ENDCHAR
STARTCHAR cedilla
ENCODING 184
SWIDTH 600 0
DWIDTH 20 0
BBX 6 5 6 -5
BITMAP
10
10
38
8C
78
ENDCHAR
STARTCHAR onesuperior
ENCODING 185
SWIDTH 600 0
DWIDTH 20 0
BBX 8 13 7 8
BITMAP
06
1A
22
02
04
04
04
04
04
08
08
08
FF
ENDCHAR
STARTCHAR ordmasculine
ENCODING 186
SWIDTH 600 0
DWIDTH 20 0
BBX 11 12 7 7
BITMAP
0700
1CC0
2060
6020
4020
4060
6040
3380
0E00
0000
0000
FFC0
ENDCHAR
STARTCHAR guillemotright
ENCODING 187
SWIDTH 600 0
DWIDTH 20 0
BBX 18 14 2 0
BITMAP
101000
080800
0C0C00
060600
060600
030300
038380
01C1C0
038380
060600
1C1C00
303000
606000
808000
ENDCHAR
STARTCHAR onequarter
ENCODING 188
SWIDTH 600 0
DWIDTH 20 0
BBX 20 21 2 0
BITMAP
060000
1A0000
220010
020020
040040
040080
040100
040200
080400
080800
081040
FF90C0
002140
004240
008480
010880
021080
041FC0
080100
100100
000780
ENDCHAR
STARTCHAR onehalf
ENCODING 189
SWIDTH 600 0
DWIDTH 20 0
BBX 19 21 2 0
BITMAP
060000
1A0000
220020
040040
040080
040100
040200
040400
080800
081000
082380
FF2440
004840
008040
010080
020300
040400
080800
101000
002000
003F80
ENDCHAR
STARTCHAR threequarters
ENCODING 190
SWIDTH 600 0
DWIDTH 20 0
BBX 19 21 3 0
BITMAP
0F0000
108000
208020
008040
010080
0F0100
010200
008400
008800
809080
612180
1E4280
008480
010900
021100
042100
084100
107F80
200200
000200
000F00
ENDCHAR
STARTCHAR questiondown
ENCODING 191
SWIDTH 600 0
DWIDTH 20 0
BBX 10 20 4 -6
BITMAP
01C0
03C0
0380
0000
0000
0000
0200
0200
0200
0C00
1800
6000
C000
8000
8000
8000
8040
4180
6300
1C00
ENDCHAR
STARTCHAR Agrave
ENCODING 192
SWIDTH 600 0
DWIDTH 20 0
BBX 19 26 0 0
BITMAP
003000
001800
000C00
000600
000300
000000
000000
01FE00
001200
001200
002200
002200
004100
004100
008100
008100
010100
020100
020100
07FF00
040100
080080
080080
100080
100080
FE07E0
ENDCHAR
STARTCHAR Aacute
ENCODING 193
SWIDTH 600 0
DWIDTH 20 0
BBX 19 26 0 0
BITMAP
000060
0000C0
000300
000600
000C00
000000
000000
01FE00
001200
001200
002200
002200
004100
004100
008100
008100
010100
020100
020100
07FF00
040100
080080
080080
100080
100080
FE07E0
ENDCHAR
STARTCHAR Acircumflex
ENCODING 194
SWIDTH 600 0
DWIDTH 20 0
BBX 19 26 0 0
BITMAP
000400
000E00
003B00
006180
00C0C0
000000
000000
01FE00
001200
001200
002200
002200
004100
004100
008100
008100
010100
020100
020100
07FF00
040100
080080
080080
100080
100080
FE07E0
ENDCHAR
STARTCHAR Atilde
ENCODING 195
SWIDTH 600 0
DWIDTH 20 0
BBX 19 24 0 0
BITMAP
007820
00CE60
0083C0
000000
000000
01FE00
001200
001200
002200
002200
004100
004100
008100
008100
010100
020100
020100
07FF00
040100
080080
080080
100080
100080
FE07E0
ENDCHAR
STARTCHAR Adieresis
ENCODING 196
SWIDTH 600 0
DWIDTH 20 0
BBX 19 24 0 0
BITMAP
003060
0070E0
0060C0
000000
000000
01FE00
001200
001200
002200
002200
004100
004100
008100
008100
010100
020100
020100
07FF00
040100
080080
080080
100080
100080
FE07E0
ENDCHAR
STARTCHAR Aring
ENCODING 197
SWIDTH 600 0
DWIDTH 20 0
BBX 19 26 0 0
BITMAP
000700
000880
001080
001080
001100
000E00
000000
01FE00
001200
001200
002200
002200
004100
004100
008100
008100
010100
020100
020100
07FF00
040100
080080
080080
100080
100080
FE07E0
ENDCHAR
STARTCHAR AE
ENCODING 198
SWIDTH 600 0
DWIDTH 20 0
BBX 22 19 0 0
BITMAP
00FFFC
001204
002204
002408
004408
004408
008440
008840
010FC0
010880
020880
03F800
041000
041000
081010
081010
102010
102020
F9FFE0
ENDCHAR
STARTCHAR Ccedilla
ENCODING 199
SWIDTH 600 0
DWIDTH 20 0
BBX 17 24 4 -5
BITMAP
00F080
070E80
080180
100100
200100
200100
400000
400000
800000
800000
800000
800000
800000
800000
800000
400400
401800
38E000
070000
040000
040000
0E0000
230000
1E0000
ENDCHAR
STARTCHAR Egrave
ENCODING 200
SWIDTH 600 0
DWIDTH 20 0
BBX 19 26 1 0
BITMAP
00C000
006000
003000
001800
000C00
000000
000000
0FFFE0
010020
010020
020040
020040
020440
020400
040400
07FC00
040800
040800
040800
080000
080080
080080
080080
100100
100100
FFFF00
ENDCHAR
STARTCHAR Eacute
ENCODING 201
SWIDTH 600 0
DWIDTH 20 0
BBX 19 26 1 0
BITMAP
0000C0
000180
000700
000C00
001800
000000
000000
0FFFE0
010020
010020
020040
020040
020440
020400
040400
07FC00
040800
040800
040800
080000
080080
080080
080080
100100
100100
FFFF00
ENDCHAR
STARTCHAR Ecircumflex
ENCODING 202
SWIDTH 600 0
DWIDTH 20 0
BBX 19 26 1 0
BITMAP
000400
000E00
003B00
006180
00C0C0
000000
000000
0FFFE0
010020
010020
020040
020040
020440
020400
040400
07FC00
040800
040800
040800
080000
080080
080080
080080
100100
100100
FFFF00
ENDCHAR
STARTCHAR Edieresis
ENCODING 203
SWIDTH 600 0
DWIDTH 20 0
BBX 19 24 1 0
BITMAP
003060
0070E0
0060C0
000000
000000
0FFFE0
010020
010020
020040
020040
020440
020400
040400
07FC00
040800
040800
040800
080000
080080
080080
080080
100100
100100
FFFF00
ENDCHAR
STARTCHAR Igrave
ENCODING 204
SWIDTH 600 0
DWIDTH 20 0
BBX 15 26 4 0
BITMAP
0300
0180
00C0
0060
0030
0000
0000
1FFE
0040
0040
0080
0080
0080
0080
0100
0100
0100
0100
0100
0200
0200
0200
0200
0400
0400
FFF0
ENDCHAR
STARTCHAR Iacute
ENCODING 205
SWIDTH 600 0
DWIDTH 20 0
BBX 15 26 4 0
BITMAP
0006
000C
0038
0060
00C0
0000
0000
1FFE
0040
0040
0080
0080
0080
0080
0100
0100
0100
0100
0100
0200
0200
0200
0200
0400
0400
FFF0
ENDCHAR
STARTCHAR Icircumflex
ENCODING 206
SWIDTH 600 0
DWIDTH 20 0
BBX 15 26 4 0
BITMAP
0020
0070
01D8
030C
0606
0000
0000
1FFE
0040
0040
0080
0080
0080
0080
0100
0100
0100
0100
0100
0200
0200
0200
0200
0400
0400
FFF0
ENDCHAR
STARTCHAR Idieresis
ENCODING 207
SWIDTH 600 0
DWIDTH 20 0
BBX 16 24 4 0
BITMAP
0183
0387
0306
0000
0000
1FFE
0040
0040
0080
0080
0080
0080
0100
0100
0100
0100
0100
0200
0200
0200
0200
0400
0400
FFF0
ENDCHAR
STARTCHAR Eth
ENCODING 208
SWIDTH 600 0
DWIDTH 20 0
BBX 17 19 2 0
BITMAP
0FF800
020600
020100
040100
040080
040080
040080
080080
080080
3F8080
080080
080080
100100
100100
100200
100200
200C00
207000
FF8000
ENDCHAR
STARTCHAR Ntilde
ENCODING 209
SWIDTH 600 0
DWIDTH 20 0
BBX 20 24 2 0
BITMAP
00F040
019CC0
010780
000000
000000
1F03F0
030040
028040
048080
048080
048080
044080
084100
084100
084100
082100
082100
102200
101200
101200
101200
201400
200C00
FC0C00
ENDCHAR
STARTCHAR Ograve
ENCODING 210
SWIDTH 600 0
DWIDTH 20 0
BBX 16 26 4 0
BITMAP
0180
00C0
0060
0030
0018
0000
0000
01F0
0608
1804
2002
2002
4001
4001
4001
8001
8001
8001
8002
8002
8002
4004
4004
2018
1060
0F80
ENDCHAR
STARTCHAR Oacute
ENCODING 211
SWIDTH 600 0
DWIDTH 20 0
BBX 16 26 4 0
BITMAP
0006
000C
0030
0060
00C0
0000
0000
01F0
0608
1804
2002
2002
4001
4001
4001
8001
8001
8001
8002
8002
8002
4004
4004
2018
1060
0F80
ENDCHAR
STARTCHAR Ocircumflex
ENCODING 212
SWIDTH 600 0
DWIDTH 20 0
BBX 16 26 4 0
BITMAP
0020
0070
01D8
030C
0606
0000
0000
01F0
0608
1804
2002
2002
4001
4001
4001
8001
8001
8001
8002
8002
8002
4004
4004
2018
1060
0F80
ENDCHAR
STARTCHAR Otilde
ENCODING 213
SWIDTH 600 0
DWIDTH 20 0
BBX 16 24 4 0
BITMAP
0782
0DF6
083C
0000
0000
01F0
0608
1804
2002
2002
4001
4001
4001
8001
8001
8001
8002
8002
8002
4004
4004
2018
1060
0F80
ENDCHAR
STARTCHAR Odieresis
ENCODING 214
SWIDTH 600 0
DWIDTH 20 0
BBX 16 24 4 0
BITMAP
0306
070E
060C
0000
0000
01F0
0608
1804
2002
2002
4001
4001
4001
8001
8001
8001
8002
8002
8002
4004
4004
2018
1060
0F80
ENDCHAR
STARTCHAR multiply
ENCODING 215
SWIDTH 600 0
DWIDTH 20 0
BBX 15 14 4 1
BITMAP
1002
0804
0808
0410
0420
0240
0180
0300
0480
0840
1040
2020
4020
8010
ENDCHAR
STARTCHAR Oslash
ENCODING 216
SWIDTH 600 0
DWIDTH 20 0
BBX 17 19 4 0
BITMAP
01F080
060900
180600
200600
200A00
401100
402100
404100
804100
808100
810100
820200
840200
840200
480400
500400
201800
506000
8F8000
ENDCHAR
STARTCHAR Ugrave
ENCODING 217
SWIDTH 600 0
DWIDTH 20 0
BBX 17 26 5 0
BITMAP
030000
018000
00C000
006000
003000
000000
000000
7E1F80
100200
100200
200400
200400
200400
200400
400800
400800
400800
400800
801000
801000
801000
802000
402000
404000
208000
1F0000
ENDCHAR
STARTCHAR Uacute
ENCODING 218
SWIDTH 600 0
DWIDTH 20 0
BBX 17 26 5 0
BITMAP
000C00
001800
007000
00C000
018000
000000
000000
7E1F80
100200
100200
200400
200400
200400
200400
400800
400800
400800
400800
801000
801000
801000
802000
402000
404000
208000
1F0000
ENDCHAR
STARTCHAR Ucircumflex
ENCODING 219
SWIDTH 600 0
DWIDTH 20 0
BBX 17 26 5 0
BITMAP
004000
00E000
03B000
061800
0C0C00
000000
000000
7E1F80
100200
100200
200400
200400
200400
200400
400800
400800
400800
400800
801000
801000
801000
802000
402000
404000
208000
1F0000
ENDCHAR
STARTCHAR Udieresis
ENCODING 220
SWIDTH 600 0
DWIDTH 20 0
BBX 17 24 5 0
BITMAP
030600
070E00
060C00
000000
000000
7E1F80
100200
100200
200400
200400
200400
200400
400800
400800
400800
400800
801000
801000
801000
802000
402000
404000
208000
1F0000
ENDCHAR
STARTCHAR Yacute
ENCODING 221
SWIDTH 600 0
DWIDTH 20 0
BBX 17 26 5 0
BITMAP
000600
000C00
003800
006000
00C000
000000
000000
F81F80
200400
100800
100800
081000
082000
084000
048000
048000
030000
020000
020000
020000
040000
040000
040000
040000
080000
FFC000
ENDCHAR
STARTCHAR Thorn
ENCODING 222
SWIDTH 600 0
DWIDTH 20 0
BBX 17 19 1 0
BITMAP
0FE000
010000
010000
020000
03F800
020600
020100
040080
040080
040080
040100
040100
080E00
0FF000
080000
080000
100000
100000
FE0000
ENDCHAR
STARTCHAR germandbls
ENCODING 223
SWIDTH 600 0
DWIDTH 20 0
BBX 16 21 1 0
BITMAP
003C
00C2
0102
0101
0201
0201
0202
0402
040C
0438
0404
0402
0401
0801
0801
0801
0801
0882
1082
1084
F8F8
ENDCHAR
STARTCHAR agrave
ENCODING 224
SWIDTH 600 0
DWIDTH 20 0
BBX 14 21 4 0
BITMAP
1800
0C00
0600
0300
0180
0000
0000
03C0
1C30
0010
0008
0008
0008
0F88
3070
4010
4010
8010
8060
80A0
7F3C
ENDCHAR
STARTCHAR aacute
ENCODING 225
SWIDTH 600 0
DWIDTH 20 0
BBX 14 21 4 0
BITMAP
000C
0018
0070
00C0
0180
0000
0000
03C0
1C30
0010
0008
0008
0008
0F88
3070
4010
4010
8010
8060
80A0
7F3C
ENDCHAR
STARTCHAR acircumflex
ENCODING 226
SWIDTH 600 0
DWIDTH 20 0
BBX 14 21 4 0
BITMAP
0040
00E0
03B0
0618
0C0C
0000
0000
03C0
1C30
0010
0008
0008
0008
0F88
3070
4010
4010
8010
8060
80A0
7F3C
ENDCHAR
STARTCHAR atilde
ENCODING 227
SWIDTH 600 0
DWIDTH 20 0
BBX 14 19 4 0
BITMAP
0F04
19CC
1078
0000
0000
03C0
1C30
0010
0008
0008
0008
0F88
3070
4010
4010
8010
8060
80A0
7F3C
ENDCHAR
STARTCHAR adieresis
ENCODING 228
SWIDTH 600 0
DWIDTH 20 0
BBX 14 19 4 0
BITMAP
060C
0E1C
0C18
0000
0000
03C0
1C30
0010
0008
0008
0008
0F88
3070
4010
4010
8010
8060
80A0
7F3C
ENDCHAR
STARTCHAR aring
ENCODING 229
SWIDTH 600 0
DWIDTH 20 0
BBX 14 22 4 0
BITMAP
0070
0088
0108
0108
0110
00E0
0000
0000
03C0
1C30
0010
0008
0008
0008
0F88
3070
4010
4010
8010
8060
80A0
7F3C
ENDCHAR
STARTCHAR ae
ENCODING 230
SWIDTH 600 0
DWIDTH 20 0
BBX 20 14 1 0
BITMAP
0F83C0
304420
002820
002810
003010
0F3010
30FFF0
406000
804000
804000
806000
81E020
4650C0
384F00
ENDCHAR
STARTCHAR ccedilla
ENCODING 231
SWIDTH 600 0
DWIDTH 20 0
BBX 15 19 4 -5
BITMAP
01E2
061A
1806
2004
2004
4000
4000
8000
8000
8000
8004
4018
38E0
0700
0400
0400
0E00
2300
1E00
ENDCHAR
STARTCHAR egrave
ENCODING 232
SWIDTH 600 0
DWIDTH 20 0
BBX 14 21 4 0
BITMAP
1800
0C00
0600
0300
0180
0000
0000
07C0
1830
2008
4008
4004
8004
FFFC
8000
8000
8000
4000
4018
3060
0F80
ENDCHAR
STARTCHAR eacute
ENCODING 233
SWIDTH 600 0
DWIDTH 20 0
BBX 14 21 4 0
BITMAP
0018
0030
00C0
0180
0300
0000
0000
07C0
1830
2008
4008
4004
8004
FFFC
8000
8000
8000
4000
4018
3060
0F80
ENDCHAR
STARTCHAR ecircumflex
ENCODING 234
SWIDTH 600 0
DWIDTH 20 0
BBX 14 21 4 0
BITMAP
0080
01C0
0760
0C30
1818
0000
0000
07C0
1830
2008
4008
4004
8004
FFFC
8000
8000
8000
4000
4018
3060
0F80
ENDCHAR
STARTCHAR edieresis
ENCODING 235
SWIDTH 600 0
DWIDTH 20 0
BBX 14 19 4 0
BITMAP
0C18
1C38
1830
0000
0000
07C0
1830
2008
4008
4004
8004
FFFC
8000
8000
8000
4000
4018
3060
0F80
ENDCHAR
STARTCHAR igrave
ENCODING 236
SWIDTH 600 0
DWIDTH 20 0
BBX 13 21 3 0
BITMAP
0600
0300
0180
00C0
0060
0000
0000
0FC0
0040
0040
0080
0080
0080
0080
0100
0100
0100
0100
0200
0200
FFF8
ENDCHAR
STARTCHAR iacute
ENCODING 237
SWIDTH 600 0
DWIDTH 20 0
BBX 14 21 3 0
BITMAP
000C
0018
0070
00C0
0180
0000
0000
0FC0
0040
0040
0080
0080
0080
0080
0100
0100
0100
0100
0200
0200
FFF8
ENDCHAR
STARTCHAR icircumflex
ENCODING 238
SWIDTH 600 0
DWIDTH 20 0
BBX 14 21 3 0
BITMAP
0040
00E0
03B0
0618
0C0C
0000
0000
0FC0
0040
0040
0080
0080
0080
0080
0100
0100
0100
0100
0200
0200
FFF8
ENDCHAR
STARTCHAR idieresis
ENCODING 239
SWIDTH 600 0
DWIDTH 20 0
BBX 15 19 3 0
BITMAP
0306
070E
060C
0000
0000
0FC0
0040
0040
0080
0080
0080
0080
0100
0100
0100
0100
0200
0200
FFF8
ENDCHAR
STARTCHAR eth
ENCODING 240
SWIDTH 600 0
DWIDTH 20 0
BBX 16 21 4 0
BITMAP
0783
186C
0030
00D0
0308
0C08
1008
0004
0004
03C4
0C34
300C
4004
4004
8004
8004
8008
8008
4010
2060
1F80
ENDCHAR
STARTCHAR ntilde
ENCODING 241
SWIDTH 600 0
DWIDTH 20 0
BBX 16 19 2 0
BITMAP
03C1
0673
041E
0000
0000
1C3C
04C2
0702
0C01
0801
0801
0801
1002
1002
1002
1002
2004
2004
FC1F
ENDCHAR
STARTCHAR ograve
ENCODING 242
SWIDTH 600 0
DWIDTH 20 0
BBX 15 21 4 0
BITMAP
0300
0180
00C0
0060
0030
0000
0000
03F0
0C08
1004
2004
2002
4002
4002
8004
8004
8008
4008
4010
2060
1F80
ENDCHAR
STARTCHAR oacute
ENCODING 243
SWIDTH 600 0
DWIDTH 20 0
BBX 15 21 4 0
BITMAP
0006
000C
0030
0060
00C0
0000
0000
03F0
0C08
1004
2004
2002
4002
4002
8004
8004
8008
4008
4010
2060
1F80
ENDCHAR
STARTCHAR ocircumflex
ENCODING 244
SWIDTH 600 0
DWIDTH 20 0
BBX 15 21 4 0
BITMAP
0040
00E0
03B0
0618
0C0C
0000
0000
03F0
0C08
1004
2004
2002
4002
4002
8004
8004
8008
4008
4010
2060
1F80
ENDCHAR
STARTCHAR otilde
ENCODING 245
SWIDTH 600 0
DWIDTH 20 0
BBX 15 19 4 0
BITMAP
0782
0DF6
083C
0000
0000
03F0
0C08
1004
2004
2002
4002
4002
8004
8004
8008
4008
4010
2060
1F80
ENDCHAR
STARTCHAR odieresis
ENCODING 246
SWIDTH 600 0
DWIDTH 20 0
BBX 15 19 4 0
BITMAP
0306
070E
060C
0000
0000
03F0
0C08
1004
2004
2002
4002
4002
8004
8004
8008
4008
4010
2060
1F80
ENDCHAR
STARTCHAR divide
ENCODING 247
SWIDTH 600 0
DWIDTH 20 0
BBX 14 15 5 2
BITMAP
00E0
01E0
01C0
0000
0000
0000
0000
FFFC
0000
0000
0000
0000
0700
0F00
0E00
ENDCHAR
STARTCHAR oslash
ENCODING 248
SWIDTH 600 0
DWIDTH 20 0
BBX 15 14 4 0
BITMAP
03F2
0C0C
100C
2014
2022
4042
4182
8204
8404
8808
5008
6010
6060
9F80
ENDCHAR
STARTCHAR ugrave
ENCODING 249
SWIDTH 600 0
DWIDTH 20 0
BBX 15 22 4 0
BITMAP
0600
0300
0180
00C0
0060
0000
0000
0000
F03E
1002
1002
2004
2004
2004
2004
2008
4008
4008
4008
4030
2050
1F9C
ENDCHAR
STARTCHAR uacute
ENCODING 250
SWIDTH 600 0
DWIDTH 20 0
BBX 15 22 4 0
BITMAP
000C
0018
0070
00C0
0180
0000
0000
0000
F03E
1002
1002
2004
2004
2004
2004
2008
4008
4008
4008
4030
2050
1F9C
ENDCHAR
STARTCHAR ucircumflex
ENCODING 251
SWIDTH 600 0
DWIDTH 20 0
BBX 15 21 4 0
BITMAP
0080
01C0
0760
0C30
1818
0000
0000
F03E
1002
1002
2004
2004
2004
2004
2008
4008
4008
4008
4030
6050
1F9C
ENDCHAR
STARTCHAR udieresis
ENCODING 252
SWIDTH 600 0
DWIDTH 20 0
BBX 15 19 4 0
BITMAP
060C
0E1C
0C18
0000
0000
F03E
1002
1002
2004
2004
2004
2004
2008
4008
4008
4008
4030
6050
1F9C
ENDCHAR
STARTCHAR yacute
ENCODING 253
SWIDTH 600 0
DWIDTH 20 0
BBX 20 28 1 -6
BITMAP
000300
000600
001C00
003000
006000
000000
000000
000000
1F03F0
080080
040080
040100
040200
020200
020400
020800
020800
011000
012000
014000
00C000
008000
010000
010000
020000
040000
040000
FF8000
ENDCHAR
STARTCHAR thorn
ENCODING 254
SWIDTH 600 0
DWIDTH 20 0
BBX 20 27 0 -6
BITMAP
038000
008000
008000
010000
010000
010000
010000
010F00
0230C0
02C020
028010
030010
020010
060010
040010
040020
040020
060040
0600C0
090300
08FC00
080000
080000
080000
100000
100000
FF0000
ENDCHAR
STARTCHAR ydieresis
ENCODING 255
SWIDTH 600 0
DWIDTH 20 0
BBX 20 25 1 -6
BITMAP
0060C0
00E1C0
00C180
000000
000000
1F03F0
080080
040080
040100
040200
020200
020400
020800
020800
011000
012000
014000
00C000
008000
010000
010000
020000
040000
040000
FF8000
ENDCHAR
STARTCHAR Amacron
ENCODING 256
SWIDTH 600 0
DWIDTH 20 0
BBX 19 21 0 0
BITMAP
03FF00
000000
01FE00
001200
001200
002200
002200
004100
004100
008100
008100
010100
020100
020100
07FF00
040100
080080
080080
100080
100080
FE07E0
ENDCHAR
STARTCHAR amacron
ENCODING 257
SWIDTH 600 0
DWIDTH 20 0
BBX 14 16 4 0
BITMAP
1FF8
0000
07C0
1830
0008
0008
0008
0008
0F88
3070
4010
4010
8010
8020
80E0
7F3C
ENDCHAR
STARTCHAR Abreve
ENCODING 258
SWIDTH 600 0
DWIDTH 20 0
BBX 19 25 0 0
BITMAP
030300
030300
030600
01FC00
007000
000000
01FE00
001200
001200
002200
002200
004100
004100
008100
008100
010100
020100
020100
07FF00
040100
080080
080080
100080
100080
FE07E0
ENDCHAR
STARTCHAR abreve
ENCODING 259
SWIDTH 600 0
DWIDTH 20 0
BBX 14 20 4 0
BITMAP
1818
1818
1830
0FE0
0380
0000
07C0
1830
0008
0008
0008
0008
0F88
3070
4010
4010
8010
8020
80E0
7F3C
ENDCHAR
STARTCHAR Aogonek
ENCODING 260
SWIDTH 600 0
DWIDTH 20 0
BBX 19 24 0 -5
BITMAP
01FE00
001200
001200
002200
002200
004100
004100
008100
008100
010100
020100
020100
07FF00
040100
080080
080080
100080
100080
FE27E0
004000
004000
008000
009000
006000
ENDCHAR
STARTCHAR aogonek
ENCODING 261
SWIDTH 600 0
DWIDTH 20 0
BBX 14 19 4 -5
BITMAP
07C0
1830
0008
0008
0008
0008
0F88
3070
4010
4010
8010
8020
80E0
7F3C
0200
0200
0400
0480
0300
ENDCHAR
STARTCHAR Cacute
ENCODING 262
SWIDTH 600 0
DWIDTH 20 0
BBX 17 25 4 0
BITMAP
000600
000C00
003800
006000
00C000
000000
00F080
070E80
080180
100100
200100
200100
400000
400000
800000
800000
800000
800000
800000
800000
800000
400400
401800
38E000
070000
ENDCHAR
STARTCHAR cacute
ENCODING 263
SWIDTH 600 0
DWIDTH 20 0
BBX 14 20 5 0
BITMAP
0018
0030
00E0
0180
0300
0000
07E4
1814
201C
4008
4008
8000
8000
8000
8000
8000
4008
4030
30C0
0F00
ENDCHAR
STARTCHAR Ccircumflex
ENCODING 264
SWIDTH 600 0
DWIDTH 20 0
BBX 17 25 4 0
BITMAP
002000
007000
01D800
030C00
060600
000000
00F080
070E80
080180
100100
200100
200100
400000
400000
800000
800000
800000
800000
800000
800000
800000
400400
401800
38E000
070000
ENDCHAR
STARTCHAR ccircumflex
ENCODING 265
SWIDTH 600 0
DWIDTH 20 0
BBX 14 20 5 0
BITMAP
0080
01C0
0760
0C30
1818
0000
07E4
1814
201C
4008
4008
8000
8000
8000
8000
8000
4008
4030
30C0
0F00
ENDCHAR
STARTCHAR Cdotaccent
ENCODING 266
SWIDTH 600 0
DWIDTH 20 0
BBX 17 23 4 0
BITMAP
003000
007000
006000
000000
00F080
070E80
080180
100100
200100
200100
400000
400000
800000
800000
800000
800000
800000
800000
800000
400400
401800
38E000
070000
ENDCHAR
STARTCHAR cdotaccent
ENCODING 267
SWIDTH 600 0
DWIDTH 20 0
BBX 14 18 5 0
BITMAP
00C0
01C0
0180
0000
07E4
1814
201C
4008
4008
8000
8000
8000
8000
8000
4008
4030
30C0
0F00
ENDCHAR
STARTCHAR Ccaron
ENCODING 268
SWIDTH 600 0
DWIDTH 20 0
BBX 17 25 4 0
BITMAP
060600
030C00
01B800
00E000
004000
000000
00F080
070E80
080180
100100
200100
200100
400000
400000
800000
800000
800000
800000
800000
800000
800000
400400
401800
38E000
070000
ENDCHAR
STARTCHAR ccaron
ENCODING 269
SWIDTH 600 0
DWIDTH 20 0
BBX 14 20 5 0
BITMAP
1818
0C30
06E0
0380
0100
0000
07E4
1814
201C
4008
4008
8000
8000
8000
8000
8000
4008
4030
30C0
0F00
ENDCHAR
STARTCHAR Dcaron
ENCODING 270
SWIDTH 600 0
DWIDTH 20 0
BBX 17 25 2 0
BITMAP
060600
030C00
01B800
00E000
004000
000000
0FF800
020600
020100
040100
040080
040080
040080
080080
080080
080080
080080
080080
100100
100100
100200
100200
200C00
207000
FF8000
ENDCHAR
STARTCHAR dcaron
ENCODING 271
SWIDTH 600 0
DWIDTH 20 0
BBX 18 26 4 0
BITMAP
00C0C0
006180
003700
001C00
000800
000000
000F00
000100
000200
000200
000200
000200
078200
186400
301400
400C00
400C00
800400
800400
800800
800800
801800
801800
407000
619000
1E1E00
ENDCHAR
STARTCHAR Dcroat
ENCODING 272
SWIDTH 600 0
DWIDTH 20 0
BBX 17 19 2 0
BITMAP
0FF800
020600
020100
040100
040080
040080
040080
080080
080080
3F8080
080080
080080
100100
100100
100200
100200
200C00
207000
FF8000
ENDCHAR
STARTCHAR dcroat
ENCODING 273
SWIDTH 600 0
DWIDTH 20 0
BBX 20 20 4 0
BITMAP
000F00
000100
000200
000200
07FFF0
000200
078200
186400
301400
400C00
400C00
800400
800400
800800
800800
801800
801800
407000
619000
1E1E00
ENDCHAR
STARTCHAR Emacron
ENCODING 274
SWIDTH 600 0
DWIDTH 20 0
BBX 19 21 1 0
BITMAP
03FF00
000000
0FFFE0
010020
010020
020040
020040
020440
020400
040400
07FC00
040800
040800
040800
080000
080080
080080
080080
100100
100100
FFFF00
ENDCHAR
STARTCHAR emacron
ENCODING 275
SWIDTH 600 0
DWIDTH 20 0
BBX 14 16 4 0
BITMAP
3FF0
0000
07C0
1830
2008
4008
4004
8004
FFFC
8000
8000
8000
4000
4018
3060
0F80
ENDCHAR
STARTCHAR Ebreve
ENCODING 276
SWIDTH 600 0
DWIDTH 20 0
BBX 19 25 1 0
BITMAP
030300
030300
030600
01FC00
007000
000000
0FFFE0
010020
010020
020040
020040
020440
020400
040400
07FC00
040800
040800
040800
080000
080080
080080
080080
100100
100100
FFFF00
ENDCHAR
STARTCHAR ebreve
ENCODING 277
SWIDTH 600 0
DWIDTH 20 0
BBX 14 20 4 0
BITMAP
1818
1818
1830
0FE0
0380
0000
07C0
1830
2008
4008
4004
8004
FFFC
8000
8000
8000
4000
4018
3060
0F80
ENDCHAR
STARTCHAR Edotaccent
ENCODING 278
SWIDTH 600 0
DWIDTH 20 0
BBX 19 23 1 0
BITMAP
001800
003800
003000
000000
0FFFE0
010020
010020
020040
020040
020440
020400
040400
07FC00
040800
040800
040800
080000
080080
080080
080080
100100
100100
FFFF00
ENDCHAR
STARTCHAR edotaccent
ENCODING 279
SWIDTH 600 0
DWIDTH 20 0
BBX 14 18 4 0
BITMAP
0180
0380
0300
0000
07C0
1830
2008
4008
4004
8004
FFFC
8000
8000
8000
4000
4018
3060
0F80
ENDCHAR
STARTCHAR Eogonek
ENCODING 280
SWIDTH 600 0
DWIDTH 20 0
BBX 19 24 1 -5
BITMAP
0FFFE0
010020
010020
020040
020040
020440
020400
040400
07FC00
040800
040800
040800
080000
080080
080080
080080
100100
100100
FFFF00
008000
008000
010000
012000
00C000
ENDCHAR
STARTCHAR eogonek
ENCODING 281
SWIDTH 600 0
DWIDTH 20 0
BBX 14 19 4 -5
BITMAP
07C0
1830
2008
4008
4004
8004
FFFC
8000
8000
8000
4000
4018
3060
0F80
0200
0200
0400
0480
0300
ENDCHAR
STARTCHAR Ecaron
ENCODING 282
SWIDTH 600 0
DWIDTH 20 0
BBX 19 25 1 0
BITMAP
030300
018600
00DC00
007000
002000
000000
0FFFE0
010020
010020
020040
020040
020440
020400
040400
07FC00
040800
040800
040800
080000
080080
080080
080080
100100
100100
FFFF00
ENDCHAR
STARTCHAR ecaron
ENCODING 283
SWIDTH 600 0
DWIDTH 20 0
BBX 14 20 4 0
BITMAP
1818
0C30
06E0
0380
0100
0000
07C0
1830
2008
4008
4004
8004
FFFC
8000
8000
8000
4000
4018
3060
0F80
ENDCHAR
STARTCHAR Gcircumflex
ENCODING 284
SWIDTH 600 0
DWIDTH 20 0
BBX 17 25 4 0
BITMAP
002000
007000
01D800
030C00
060600
000000
00F080
070E80
080180
100100
200100
400100
400000
800000
800000
800000
800000
80FF00
800200
800400
800400
400400
400800
303800
0FC000
ENDCHAR
STARTCHAR gcircumflex
ENCODING 285
SWIDTH 600 0
DWIDTH 20 0
BBX 18 26 4 -6
BITMAP
004000
00E000
03B000
061800
0C0C00
000000
07E3C0
181200
200A00
200400
400400
400400
800400
800C00
800800
801800
402800
60C800
1F1000
001000
001000
001000
001000
002000
004000
7F8000
ENDCHAR
STARTCHAR Gbreve
ENCODING 286
SWIDTH 600 0
DWIDTH 20 0
BBX 17 25 4 0
BITMAP
060600
060600
060C00
03F800
00E000
000000
00F080
070E80
080180
100100
200100
400100
400000
800000
800000
800000
800000
80FF00
800200
800400
800400
400400
400800
303800
0FC000
ENDCHAR
STARTCHAR gbreve
ENCODING 287
SWIDTH 600 0
DWIDTH 20 0
BBX 18 26 4 -6
BITMAP
060600
060600
060C00
03F800
00E000
000000
07E3C0
181200
200A00
200400
400400
400400
800400
800C00
800800
801800
402800
60C800
1F1000
001000
001000
001000
001000
002000
004000
7F8000
ENDCHAR
STARTCHAR Gdotaccent
ENCODING 288
SWIDTH 600 0
DWIDTH 20 0
BBX 17 23 4 0
BITMAP
003000
007000
006000
000000
00F080
070E80
080180
100100
200100
400100
400000
800000
800000
800000
800000
80FF00
800200
800400
800400
400400
400800
303800
0FC000
ENDCHAR
STARTCHAR gdotaccent
ENCODING 289
SWIDTH 600 0
DWIDTH 20 0
BBX 18 24 4 -6
BITMAP
006000
00E000
00C000
000000
07E3C0
181200
200A00
200400
400400
400400
800400
800C00
800800
801800
402800
60C800
1F1000
001000
001000
001000
001000
002000
004000
7F8000
ENDCHAR
STARTCHAR Gcommaaccent
ENCODING 290
SWIDTH 600 0
DWIDTH 20 0
BBX 17 27 4 -8
BITMAP
00F080
070E80
080180
100100
200100
400100
400000
800000
800000
800000
800000
80FF00
800200
800400
800400
400400
400800
303800
0FC000
000000
03E000
03C000
078000
070000
0E0000
0C0000
180000
ENDCHAR
STARTCHAR gcommaaccent
ENCODING 291
SWIDTH 600 0
DWIDTH 20 0
BBX 18 28 4 -6
BITMAP
0F8000
078000
03C000
01C000
00E000
006000
003000
000000
07E3C0
181200
200A00
200400
400400
400400
800400
800C00
800800
801800
402800
60C800
1F1000
001000
001000
001000
001000
002000
004000
7F8000
ENDCHAR
STARTCHAR Hcircumflex
ENCODING 292
SWIDTH 600 0
DWIDTH 20 0
BBX 20 25 2 0
BITMAP
001000
003800
00EC00
018600
030300
000000
0FC3F0
020040
020040
040080
040080
040080
040080
080100
080100
0FFF00
080100
080100
100200
100200
100200
100200
200400
200400
FC3F80
ENDCHAR
STARTCHAR hcircumflex
ENCODING 293
SWIDTH 600 0
DWIDTH 20 0
BBX 17 26 2 0
BITMAP
020000
070000
1D8000
30C000
606000
000000
1E0000
020000
040000
040000
040000
040000
043C00
08C200
0B0200
0C0100
080100
080100
100100
100200
100200
100200
100200
200400
200400
FC1F80
ENDCHAR
STARTCHAR Hbar
ENCODING 294
SWIDTH 600 0
DWIDTH 20 0
BBX 20 19 2 0
BITMAP
0FC3F0
020040
020040
040080
FFFFF0
040080
040080
080100
080100
0FFF00
080100
080100
100200
100200
100200
100200
200400
200400
FC3F80
ENDCHAR
STARTCHAR hbar
ENCODING 295
SWIDTH 600 0
DWIDTH 20 0
BBX 20 20 -1 0
BITMAP
03C000
004000
008000
008000
FFFE00
008000
008780
011840
016040
018020
010020
010020
020020
020040
020040
020040
020040
040080
040080
1F83F0
ENDCHAR
STARTCHAR Itilde
ENCODING 296
SWIDTH 600 0
DWIDTH 20 0
BBX 15 23 4 0
BITMAP
1E08
3398
20F0
0000
1FFE
0040
0040
0080
0080
0080
0080
0100
0100
0100
0100
0100
0200
0200
0200
0200
0400
0400
FFF0
ENDCHAR
STARTCHAR itilde
ENCODING 297
SWIDTH 600 0
DWIDTH 20 0
BBX 13 18 3 0
BITMAP
3C10
6730
41E0
0000
0FC0
0040
0040
0080
0080
0080
0080
0100
0100
0100
0100
0200
0200
FFF8
ENDCHAR
STARTCHAR Imacron
ENCODING 298
SWIDTH 600 0
DWIDTH 20 0
BBX 15 21 4 0
BITMAP
0FFC
0000
1FFE
0040
0040
0080
0080
0080
0080
0100
0100
0100
0100
0100
0200
0200
0200
0200
0400
0400
FFF0
ENDCHAR
STARTCHAR imacron
ENCODING 299
SWIDTH 600 0
DWIDTH 20 0
BBX 13 16 3 0
BITMAP
3FF0
0000
0FC0
0040
0040
0080
0080
0080
0080
0100
0100
0100
0100
0200
0200
FFF8
ENDCHAR
STARTCHAR Ibreve
ENCODING 300
SWIDTH 600 0
DWIDTH 20 0
BBX 15 25 4 0
BITMAP
0C0C
0C0C
0C18
07F0
01C0
0000
1FFE
0040
0040
0080
0080
0080
0080
0100
0100
0100
0100
0100
0200
0200
0200
0200
0400
0400
FFF0
ENDCHAR
STARTCHAR ibreve
ENCODING 301
SWIDTH 600 0
DWIDTH 20 0
BBX 13 20 3 0
BITMAP
1818
1818
1830
0FE0
0380
0000
0FC0
0040
0040
0080
0080
0080
0080
0100
0100
0100
0100
0200
0200
FFF8
ENDCHAR
STARTCHAR Iogonek
ENCODING 302
SWIDTH 600 0
DWIDTH 20 0
BBX 15 24 4 -5
BITMAP
1FFE
0040
0040
0080
0080
0080
0080
0100
0100
0100
0100
0100
0200
0200
0200
0200
0400
0400
FFF0
0200
0200
0400
0480
0300
ENDCHAR
STARTCHAR iogonek
ENCODING 303
SWIDTH 600 0
DWIDTH 20 0
BBX 13 25 3 -5
BITMAP
0060
0060
0060
0000
0000
0000
0FC0
0040
0040
0080
0080
0080
0080
0100
0100
0100
0100
0200
0200
FFF8
0200
0200
0400
0480
0300
ENDCHAR
STARTCHAR Idotaccent
ENCODING 304
SWIDTH 600 0
DWIDTH 20 0
BBX 15 23 4 0
BITMAP
00C0
01C0
0180
0000
1FFE
0040
0040
0080
0080
0080
0080
0100
0100
0100
0100
0100
0200
0200
0200
0200
0400
0400
FFF0
ENDCHAR
STARTCHAR dotlessi
ENCODING 305
SWIDTH 600 0
DWIDTH 20 0
BBX 13 14 3 0
BITMAP
0FC0
0040
0040
0080
0080
0080
0080
0100
0100
0100
0100
0200
0200
FFF8
ENDCHAR
STARTCHAR IJ
ENCODING 306
SWIDTH 600 0
DWIDTH 20 0
BBX 23 19 4 0
BITMAP
1FFFFE
004020
004020
008040
008040
008040
008040
010080
010080
010080
010080
050100
060100
060100
0A0100
0A0200
040200
070C00
FFF000
ENDCHAR
STARTCHAR ij
ENCODING 307
SWIDTH 600 0
DWIDTH 20 0
BBX 18 26 3 -6
BITMAP
0060C0
0060C0
0060C0
000000
000000
000000
0FFFC0
004040
004040
008080
008080
008080
008080
010100
010100
010100
010100
020100
020200
FFFA00
000200
000200
000400
000400
003800
0FC000
ENDCHAR
STARTCHAR Jcircumflex
ENCODING 308
SWIDTH 600 0
DWIDTH 20 0
BBX 19 25 4 0
BITMAP
000800
001C00
007600
00C300
018180
000000
00FFE0
000200
000200
000400
000400
000400
000400
000800
000800
000800
000800
401000
401000
401000
801000
802000
402000
30C000
0F0000
ENDCHAR
STARTCHAR jcircumflex
ENCODING 309
SWIDTH 600 0
DWIDTH 20 0
BBX 14 26 2 -6
BITMAP
0040
00E0
03B0
0618
0C0C
0000
0FFC
0004
0004
0008
0008
0008
0008
0010
0010
0010
0010
0010
0020
0020
0020
0020
0040
0040
0380
FC00
ENDCHAR
STARTCHAR Kcommaaccent
ENCODING 310
SWIDTH 600 0
DWIDTH 20 0
BBX 21 27 1 -8
BITMAP
0FE1F8
010020
0100C0
020100
020200
020400
021800
042000
044000
05B000
060800
040800
080800
080400
080400
080400
100400
100200
FF03C0
000000
01F000
01E000
03C000
038000
070000
060000
0C0000
ENDCHAR
STARTCHAR kcommaaccent
ENCODING 311
SWIDTH 600 0
DWIDTH 20 0
BBX 17 28 2 -8
BITMAP
0F0000
010000
020000
020000
020000
020000
021F80
040C00
041000
042000
04C000
050000
0E8000
084000
084000
082000
081000
100800
100800
F03F00
000000
03E000
03C000
078000
070000
0E0000
0C0000
180000
ENDCHAR
STARTCHAR kgreenlandic
ENCODING 312
SWIDTH 600 0
DWIDTH 20 0
BBX 17 14 2 0
BITMAP
021F80
040C00
041000
042000
04C000
050000
0E8000
084000
084000
082000
081000
100800
100800
F03F00
ENDCHAR
STARTCHAR Lacute
ENCODING 313
SWIDTH 600 0
DWIDTH 20 0
BBX 17 25 2 0
BITMAP
001800
003000
00E000
018000
030000
000000
0FF800
008000
008000
010000
010000
010000
010000
020000
020000
020000
020000
020000
040080
040080
040080
040100
080100
080100
FFFF00
ENDCHAR
STARTCHAR lacute
ENCODING 314
SWIDTH 600 0
DWIDTH 20 0
BBX 13 26 3 0
BITMAP
0018
0030
00E0
0180
0300
0000
0FE0
0020
0040
0040
0040
0040
0040
0080
0080
0080
0080
0080
0100
0100
0100
0100
0100
0200
0200
FFF8
ENDCHAR
STARTCHAR Lcommaaccent
ENCODING 315
SWIDTH 600 0
DWIDTH 20 0
BBX 17 27 2 -8
BITMAP
0FF800
008000
008000
010000
010000
010000
010000
020000
020000
020000
020000
020000
040080
040080
040080
040100
080100
080100
FFFF00
000000
01F000
01E000
03C000
038000
070000
060000
0C0000
ENDCHAR
STARTCHAR lcommaaccent
ENCODING 316
SWIDTH 600 0
DWIDTH 20 0
BBX 13 28 3 -8
BITMAP
0FE0
0020
0040
0040
0040
0040
0040
0080
0080
0080
0080
0080
0100
0100
0100
0100
0100
0200
0200
FFF8
0000
07C0
0780
0F00
0E00
1C00
1800
3000
ENDCHAR
STARTCHAR Lcaron
ENCODING 317
SWIDTH 600 0
DWIDTH 20 0
BBX 17 25 2 0
BITMAP
0C0C00
061800
037000
01C000
008000
000000
0FF800
008000
008000
010000
010000
010000
010000
020000
020000
020000
020000
020000
040080
040080
040080
040100
080100
080100
FFFF00
ENDCHAR
STARTCHAR lcaron
ENCODING 318
SWIDTH 600 0
DWIDTH 20 0
BBX 13 26 3 0
BITMAP
1818
0C30
06E0
0380
0100
0000
0FE0
0020
0040
0040
0040
0040
0040
0080
0080
0080
0080
0080
0100
0100
0100
0100
0100
0200
0200
FFF8
ENDCHAR
STARTCHAR Ldot
ENCODING 319
SWIDTH 600 0
DWIDTH 20 0
BBX 17 19 2 0
BITMAP
0FF800
008000
008000
010000
010000
010000
010000
023800
027800
027800
027000
020000
040080
040080
040080
040100
080100
080100
FFFF00
ENDCHAR
STARTCHAR ldot
ENCODING 320
SWIDTH 600 0
DWIDTH 20 0
BBX 16 20 3 0
BITMAP
0FE0
0020
0040
0040
0040
0040
0040
0080
0087
008F
008F
008E
0100
0100
0100
0100
0100
0200
0200
FFF8
ENDCHAR
STARTCHAR Lslash
ENCODING 321
SWIDTH 600 0
DWIDTH 20 0
BBX 17 19 2 0
BITMAP
0FF800
008000
008000
010000
010000
010000
010800
023000
02C000
030000
0E0000
320000
440080
040080
040080
040100
080100
080100
FFFF00
ENDCHAR
STARTCHAR lslash
ENCODING 322
SWIDTH 600 0
DWIDTH 20 0
BBX 14 21 3 0
BITMAP
07E0
0020
0020
0040
0040
0040
0044
0058
00A0
00C0
0180
0680
0880
0100
0100
0100
0100
0100
0200
0200
FFF8
ENDCHAR
STARTCHAR Nacute
ENCODING 323
SWIDTH 600 0
DWIDTH 20 0
BBX 20 25 2 0
BITMAP
000300
000600
001C00
003000
006000
000000
1F03F0
030040
028040
048080
048080
048080
044080
084100
084100
084100
082100
082100
102200
101200
101200
101200
201400
200C00
FC0C00
ENDCHAR
STARTCHAR nacute
ENCODING 324
SWIDTH 600 0
DWIDTH 20 0
BBX 16 20 2 0
BITMAP
0018
0030
00E0
0180
0300
0000
1C3C
04C2
0502
0E01
0801
0801
0801
1002
1002
1002
1002
2004
2004
FC1F
ENDCHAR
STARTCHAR Ncommaaccent
ENCODING 325
SWIDTH 600 0
DWIDTH 20 0
BBX 20 27 2 -8
BITMAP
1F03F0
030040
028040
048080
048080
048080
044080
084100
084100
084100
082100
082100
102200
101200
101200
101200
201400
200C00
FC0C00
000000
01F000
01E000
03C000
038000
070000
060000
0C0000
ENDCHAR
STARTCHAR ncommaaccent
ENCODING 326
SWIDTH 600 0
DWIDTH 20 0
BBX 16 22 2 -8
BITMAP
1C3C
04C2
0502
0E01
0801
0801
0801
1002
1002
1002
1002
2004
2004
FC1F
0000
03E0
03C0
0780
0700
0E00
0C00
1800
ENDCHAR
STARTCHAR Ncaron
ENCODING 327
SWIDTH 600 0
DWIDTH 20 0
BBX 20 25 2 0
BITMAP
030300
018600
00DC00
007000
002000
000000
1F03F0
030040
028040
048080
048080
048080
044080
084100
084100
084100
082100
082100
102200
101200
101200
101200
201400
200C00
FC0C00
ENDCHAR
STARTCHAR ncaron
ENCODING 328
SWIDTH 600 0
DWIDTH 20 0
BBX 16 20 2 0
BITMAP
0C0C
0618
0370
01C0
0080
0000
1C3C
04C2
0502
0E01
0801
0801
0801
1002
1002
1002
1002
2004
2004
FC1F
ENDCHAR
STARTCHAR napostrophe
ENCODING 329
SWIDTH 600 0
DWIDTH 20 0
BBX 22 20 -4 0
BITMAP
1F0000
1E0000
3C0000
380000
700000
600000
C070F0
001308
001408
003804
002004
002004
002004
004008
004008
004008
004008
008010
008010
03F07C
ENDCHAR
STARTCHAR Eng
ENCODING 330
SWIDTH 600 0
DWIDTH 20 0
BBX 20 25 2 -6
BITMAP
1F03F0
030040
028040
048080
048080
048080
044080
084100
084100
084100
082100
082100
102200
101200
101200
101200
201600
200C00
FC0C00
000400
000400
000800
000800
007000
1F8000
ENDCHAR
STARTCHAR eng
ENCODING 331
SWIDTH 600 0
DWIDTH 20 0
BBX 16 20 2 -6
BITMAP
1C3C
04C2
0502
0E01
0801
0801
0801
1002
1002
1002
1002
2002
2004
FC04
0004
0004
0008
0008
0070
1F80
ENDCHAR
STARTCHAR Omacron
ENCODING 332
SWIDTH 600 0
DWIDTH 20 0
BBX 16 21 4 0
BITMAP
1FF8
0000
01F0
0608
1804
2002
2002
4001
4001
4001
8001
8001
8001
8002
8002
8002
4004
4004
2018
1060
0F80
ENDCHAR
STARTCHAR omacron
ENCODING 333
SWIDTH 600 0
DWIDTH 20 0
BBX 15 16 4 0
BITMAP
1FF8
0000
03F0
0C08
1004
2004
2002
4002
4002
8004
8004
8008
4008
4010
2060
1F80
ENDCHAR
STARTCHAR Obreve
ENCODING 334
SWIDTH 600 0
DWIDTH 20 0
BBX 16 25 4 0
BITMAP
0C0C
0C0C
0C18
07F0
01C0
0000
01F0
0608
1804
2002
2002
4001
4001
4001
8001
8001
8001
8002
8002
8002
4004
4004
2018
1060
0F80
ENDCHAR
STARTCHAR obreve
ENCODING 335
SWIDTH 600 0
DWIDTH 20 0
BBX 15 20 4 0
BITMAP
1818
1818
1830
0FE0
0380
0000
03F0
0C08
1004
2004
2002
4002
4002
8004
8004
8008
4008
4010
2060
1F80
ENDCHAR
STARTCHAR Ohungarumlaut
ENCODING 336
SWIDTH 600 0
DWIDTH 20 0
BBX 16 25 4 0
BITMAP
0063
00C6
039C
0630
0C60
0000
01F0
0608
1804
2002
2002
4001
4001
4001
8001
8001
8001
8002
8002
8002
4004
4004
2018
1060
0F80
ENDCHAR
STARTCHAR ohungarumlaut
ENCODING 337
SWIDTH 600 0
DWIDTH 20 0
BBX 15 20 4 0
BITMAP
00C6
018C
0738
0C60
18C0
0000
03F0
0C08
1004
2004
2002
4002
4002
8004
8004
8008
4008
4010
2060
1F80
ENDCHAR
STARTCHAR OE
ENCODING 338
SWIDTH 600 0
DWIDTH 20 0
BBX 20 19 2 0
BITMAP
00FFF0
030810
0C0810
101020
201020
201020
401000
402100
802100
803F00
802200
802200
804000
804040
404040
404040
208080
188080
07FF80
ENDCHAR
STARTCHAR oe
ENCODING 339
SWIDTH 600 0
DWIDTH 20 0
BBX 20 14 1 0
BITMAP
0783C0
184C20
205010
403010
402010
802010
803FF0
804000
804000
804000
80A000
412060
421080
3C0F00
ENDCHAR
STARTCHAR Racute
ENCODING 340
SWIDTH 600 0
DWIDTH 20 0
BBX 19 25 1 0
BITMAP
000600
000C00
003800
006000
00C000
000000
0FFE00
010180
010040
020040
020040
020040
020080
040100
040E00
07F000
041800
040400
080400
080200
080200
080100
100100
100080
FF00E0
ENDCHAR
STARTCHAR racute
ENCODING 341
SWIDTH 600 0
DWIDTH 20 0
BBX 17 20 3 0
BITMAP
000C00
001800
007000
00C000
018000
000000
1F0F00
013080
01C000
030000
020000
020000
020000
040000
040000
040000
040000
080000
080000
FFF000
ENDCHAR
STARTCHAR Rcommaaccent
ENCODING 342
SWIDTH 600 0
DWIDTH 20 0
BBX 19 27 1 -8
BITMAP
0FFE00
010180
010040
020040
020040
020040
020080
040100
040E00
07F000
041800
040400
080400
080200
080200
080100
100100
100080
FF00E0
000000
01F000
01E000
03C000
038000
070000
060000
0C0000
ENDCHAR
STARTCHAR rcommaaccent
ENCODING 343
SWIDTH 600 0
DWIDTH 20 0
BBX 17 22 3 -8
BITMAP
1F0F00
013080
01C000
030000
020000
020000
020000
040000
040000
040000
040000
080000
080000
FFF000
000000
07C000
078000
0F0000
0E0000
1C0000
180000
300000
ENDCHAR
STARTCHAR Rcaron
ENCODING 344
SWIDTH 600 0
DWIDTH 20 0
BBX 19 25 1 0
BITMAP
030300
018600
00DC00
007000
002000
000000
0FFE00
010180
010040
020040
020040
020040
020080
040100
040E00
07F000
041800
040400
080400
080200
080200
080100
100100
100080
FF00E0
ENDCHAR
STARTCHAR rcaron
ENCODING 345
SWIDTH 600 0
DWIDTH 20 0
BBX 17 20 3 0
BITMAP
0C0C00
061800
037000
01C000
008000
000000
1F0F00
013080
01C000
030000
020000
020000
020000
040000
040000
040000
040000
080000
080000
FFF000
ENDCHAR
STARTCHAR Sacute
ENCODING 346
SWIDTH 600 0
DWIDTH 20 0
BBX 17 25 3 0
BITMAP
000600
000C00
003800
006000
00C000
000000
00F880
030680
040180
040100
080100
080100
080000
080000
060000
01C000
003800
000400
000200
400200
400200
400400
600400
B03800
8FC000
ENDCHAR
STARTCHAR sacute
ENCODING 347
SWIDTH 600 0
DWIDTH 20 0
BBX 15 20 4 0
BITMAP
000C
0018
0070
00C0
0180
0000
01E2
061A
0804
1004
1000
0C00
0380
0070
0008
4004
4004
4008
B030
8FC0
ENDCHAR
STARTCHAR Scircumflex
ENCODING 348
SWIDTH 600 0
DWIDTH 20 0
BBX 17 25 3 0
BITMAP
002000
007000
01D800
030C00
060600
000000
00F880
030680
040180
040100
080100
080100
080000
080000
060000
01C000
003800
000400
000200
400200
400200
400400
600400
B03800
8FC000
ENDCHAR
STARTCHAR scircumflex
ENCODING 349
SWIDTH 600 0
DWIDTH 20 0
BBX 15 20 4 0
BITMAP
0040
00E0
03B0
0618
0C0C
0000
01E2
061A
0804
1004
1000
0C00
0380
0070
0008
4004
4004
4008
B030
8FC0
ENDCHAR
STARTCHAR Scedilla
ENCODING 350
SWIDTH 600 0
DWIDTH 20 0
BBX 17 24 3 -5
BITMAP
00F880
030680
040180
040100
080100
080100
080000
080000
060000
01C000
003800
000400
000200
400200
400200
400400
600400
B03800
8FC000
010000
010000
038000
08C000
078000
ENDCHAR
STARTCHAR scedilla
ENCODING 351
SWIDTH 600 0
DWIDTH 20 0
BBX 15 19 4 -5
BITMAP
01E2
061A
0804
1004
1000
0C00
0380
0070
0008
4004
4004
4008
B030
8FC0
0200
0200
0700
1180
0F00
ENDCHAR
STARTCHAR Scaron
ENCODING 352
SWIDTH 600 0
DWIDTH 20 0
BBX 17 26 3 0
BITMAP
018180
00C300
006E00
003800
001000
000000
000000
00F880
030680
040180
040100
080100
080100
080000
080000
060000
01C000
003800
000400
000200
400200
400200
400400
600400
B03800
8FC000
ENDCHAR
STARTCHAR scaron
ENCODING 353
SWIDTH 600 0
DWIDTH 20 0
BBX 15 22 4 0
BITMAP
0606
030C
01B8
00E0
0040
0000
0000
0000
01E2
061A
0804
1004
1000
0C00
0380
0070
0008
4004
4004
4008
B030
8FC0
ENDCHAR
STARTCHAR Tcommaaccent
ENCODING 354
SWIDTH 600 0
DWIDTH 20 0
BBX 16 24 5 -5
BITMAP
3FFF
2081
2081
4102
4102
4102
4102
0200
0200
0200
0200
0200
0400
0400
0400
0400
0800
0800
FFC0
0200
0200
0700
1180
0F00
ENDCHAR
STARTCHAR tcommaaccent
ENCODING 355
SWIDTH 600 0
DWIDTH 20 0
BBX 13 24 4 -5
BITMAP
0400
0400
0400
0800
0800
FFF8
0800
0800
1000
1000
1000
1000
1000
2000
2000
2000
1008
1030
0FC0
0200
0200
0700
1180
0F00
ENDCHAR
STARTCHAR Tcaron
ENCODING 356
SWIDTH 600 0
DWIDTH 20 0
BBX 16 25 5 0
BITMAP
0C0C
0618
0370
01C0
0080
0000
3FFF
2081
2081
4102
4102
4102
4102
0200
0200
0200
0200
0200
0400
0400
0400
0400
0800
0800
FFC0
ENDCHAR
STARTCHAR tcaron
ENCODING 357
SWIDTH 600 0
DWIDTH 20 0
BBX 13 25 4 0
BITMAP
6060
30C0
1B80
0E00
0400
0000
0400
0400
0400
0800
0800
FFF8
0800
0800
1000
1000
1000
1000
1000
2000
2000
2000
1008
1030
0FC0
ENDCHAR
STARTCHAR Tbar
ENCODING 358
SWIDTH 600 0
DWIDTH 20 0
BBX 16 19 5 0
BITMAP
3FFF
2081
2081
4102
4102
4102
4102
0200
0200
7FFF
0200
0200
0400
0400
0400
0400
0800
0800
FFC0
ENDCHAR
STARTCHAR tbar
ENCODING 359
SWIDTH 600 0
DWIDTH 20 0
BBX 15 19 3 0
BITMAP
0200
0200
0200
0400
0400
7FFC
0400
0400
0800
0800
0800
0800
FFFE
1000
1000
1000
0804
0818
07E0
ENDCHAR
STARTCHAR Utilde
ENCODING 360
SWIDTH 600 0
DWIDTH 20 0
BBX 17 23 5 0
BITMAP
0F0400
19CC00
107800
000000
7E1F80
100200
100200
200400
200400
200400
200400
400800
400800
400800
400800
801000
801000
801000
802000
402000
404000
208000
1F0000
ENDCHAR
STARTCHAR utilde
ENCODING 361
SWIDTH 600 0
DWIDTH 20 0
BBX 15 18 4 0
BITMAP
1E08
3398
20F0
0000
F03E
1002
1002
2004
2004
2004
2004
2008
4008
4008
4008
4030
20D0
1F1C
ENDCHAR
STARTCHAR Umacron
ENCODING 362
SWIDTH 600 0
DWIDTH 20 0
BBX 17 21 5 0
BITMAP
0FFC00
000000
7E1F80
100200
100200
200400
200400
200400
200400
400800
400800
400800
400800
801000
801000
801000
802000
402000
404000
208000
1F0000
ENDCHAR
STARTCHAR umacron
ENCODING 363
SWIDTH 600 0
DWIDTH 20 0
BBX 15 16 4 0
BITMAP
1FF8
0000
F03E
1002
1002
2004
2004
2004
2004
2008
4008
4008
4008
4030
20D0
1F1C
ENDCHAR
STARTCHAR Ubreve
ENCODING 364
SWIDTH 600 0
DWIDTH 20 0
BBX 17 25 5 0
BITMAP
0C0C00
0C0C00
0C1800
07F000
01C000
000000
7E1F80
100200
100200
200400
200400
200400
200400
400800
400800
400800
400800
801000
801000
801000
802000
402000
404000
208000
1F0000
ENDCHAR
STARTCHAR ubreve
ENCODING 365
SWIDTH 600 0
DWIDTH 20 0
BBX 15 20 4 0
BITMAP
1818
1818
1830
0FE0
0380
0000
F03E
1002
1002
2004
2004
2004
2004
2008
4008
4008
4008
4030
20D0
1F1C
ENDCHAR
STARTCHAR Uring
ENCODING 366
SWIDTH 600 0
DWIDTH 20 0
BBX 17 26 5 0
BITMAP
00E000
011000
021000
021000
022000
01C000
000000
7E1F80
100200
100200
200400
200400
200400
200400
400800
400800
400800
400800
801000
801000
801000
802000
402000
404000
208000
1F0000
ENDCHAR
STARTCHAR uring
ENCODING 367
SWIDTH 600 0
DWIDTH 20 0
BBX 15 21 4 0
BITMAP
01C0
0220
0420
0420
0440
0380
0000
F03E
1002
1002
2004
2004
2004
2004
2008
4008
4008
4008
4030
20D0
1F1C
ENDCHAR
STARTCHAR Uhungarumlaut
ENCODING 368
SWIDTH 600 0
DWIDTH 20 0
BBX 17 25 5 0
BITMAP
006300
00C600
039C00
063000
0C6000
000000
7E1F80
100200
100200
200400
200400
200400
200400
400800
400800
400800
400800
801000
801000
801000
802000
402000
404000
208000
1F0000
ENDCHAR
STARTCHAR uhungarumlaut
ENCODING 369
SWIDTH 600 0
DWIDTH 20 0
BBX 15 20 4 0
BITMAP
00C6
018C
0738
0C60
18C0
0000
F03E
1002
1002
2004
2004
2004
2004
2008
4008
4008
4008
4030
20D0
1F1C
ENDCHAR
STARTCHAR Uogonek
ENCODING 370
SWIDTH 600 0
DWIDTH 20 0
BBX 17 24 5 -5
BITMAP
7E1F80
100200
100200
200400
200400
200400
200400
400800
400800
400800
400800
801000
801000
801000
802000
402000
404000
208000
1F0000
020000
020000
040000
048000
030000
ENDCHAR
STARTCHAR uogonek
ENCODING 371
SWIDTH 600 0
DWIDTH 20 0
BBX 15 19 4 -5
BITMAP
F03E
1002
1002
2004
2004
2004
2004
2008
4008
4008
4008
4030
20D0
1F9C
0100
0100
0200
0240
0180
ENDCHAR
STARTCHAR Wcircumflex
ENCODING 372
SWIDTH 600 0
DWIDTH 20 0
BBX 19 25 4 0
BITMAP
004000
00E000
03B000
061800
0C0C00
000000
FE0FE0
200080
200100
200100
21C100
414200
424200
424200
444400
444400
484400
484800
484800
504800
905000
A05000
A05000
C06000
C06000
ENDCHAR
STARTCHAR wcircumflex
ENCODING 373
SWIDTH 600 0
DWIDTH 20 0
BBX 17 20 4 0
BITMAP
008000
01C000
076000
0C3000
181800
000000
F80F80
400100
400100
400200
410200
430400
428400
448800
448800
489000
489000
50A000
50A000
60C000
ENDCHAR
STARTCHAR Ycircumflex
ENCODING 374
SWIDTH 600 0
DWIDTH 20 0
BBX 17 25 5 0
BITMAP
008000
01C000
076000
0C3000
181800
000000
F81F80
200400
100800
100800
081000
082000
084000
048000
048000
030000
020000
020000
020000
040000
040000
040000
040000
080000
FFC000
ENDCHAR
STARTCHAR ycircumflex
ENCODING 375
SWIDTH 600 0
DWIDTH 20 0
BBX 20 26 0 -6
BITMAP
001000
003800
00EC00
018600
030300
000000
1F81F0
040040
020040
020080
020100
010100
010200
010400
010400
008800
009000
00A000
006000
004000
008000
008000
010000
020000
020000
FFC000
ENDCHAR
STARTCHAR Ydieresis
ENCODING 376
SWIDTH 600 0
DWIDTH 20 0
BBX 17 24 5 0
BITMAP
030600
070E00
060C00
000000
000000
F81F80
200400
100800
100800
081000
082000
084000
048000
048000
030000
020000
020000
020000
040000
040000
040000
040000
080000
FFC000
ENDCHAR
STARTCHAR Zacute
ENCODING 377
SWIDTH 600 0
DWIDTH 20 0
BBX 16 25 3 0
BITMAP
000C
0018
0070
00C0
0180
0000
07FF
0401
0402
0804
0808
0808
0010
0020
0040
0080
0100
0200
0404
0404
0804
1008
2008
4008
FFF8
ENDCHAR
STARTCHAR zacute
ENCODING 378
SWIDTH 600 0
DWIDTH 20 0
BBX 14 20 4 0
BITMAP
0018
0030
00E0
0180
0300
0000
1FFC
1008
2010
2020
0040
0080
0100
0200
0400
0800
1008
2008
4010
FFF0
ENDCHAR
STARTCHAR Zdotaccent
ENCODING 379
SWIDTH 600 0
DWIDTH 20 0
BBX 16 23 3 0
BITMAP
0060
00E0
00C0
0000
07FF
0401
0402
0804
0808
0808
0010
0020
0040
0080
0100
0200
0404
0404
0804
1008
2008
4008
FFF8
ENDCHAR
STARTCHAR zdotaccent
ENCODING 380
SWIDTH 600 0
DWIDTH 20 0
BBX 14 18 4 0
BITMAP
00C0
01C0
0180
0000
1FFC
1008
2010
2020
0040
0080
0100
0200
0400
0800
1008
2008
4010
FFF0
ENDCHAR
STARTCHAR Zcaron
ENCODING 381
SWIDTH 600 0
DWIDTH 20 0
BBX 17 26 3 0
BITMAP
018180
00C300
006E00
003800
001000
000000
000000
07FF00
040100
040200
080400
080800
080800
001000
002000
004000
008000
010000
020000
040400
040400
080400
100800
200800
400800
FFF800
ENDCHAR
STARTCHAR zcaron
ENCODING 382
SWIDTH 600 0
DWIDTH 20 0
BBX 15 22 4 0
BITMAP
0606
030C
01B8
00E0
0040
0000
0000
0000
1FFC
1008
2010
2020
0040
0080
0100
0200
0400
0800
1008
2008
4010
FFF0
ENDCHAR
STARTCHAR uni0186
ENCODING 390
SWIDTH 600 0
DWIDTH 20 0
BBX 17 19 4 0
BITMAP
007000
038E00
0C0100
100100
000080
000080
000080
000080
000080
000080
000080
000100
000100
400200
400200
400400
C00800
B87000
878000
ENDCHAR
STARTCHAR uni0189
ENCODING 393
SWIDTH 600 0
DWIDTH 20 0
BBX 17 19 2 0
BITMAP
0FF800
020600
020100
040100
040080
040080
040080
080080
080080
3F8080
080080
080080
100100
100100
100200
100200
200C00
207000
FF8000
ENDCHAR
STARTCHAR uni018E
ENCODING 398
SWIDTH 600 0
DWIDTH 20 0
BBX 19 19 1 0
BITMAP
1FFFE0
100100
100100
200200
200200
200200
000200
020400
020400
020400
07FC00
040400
040800
440800
400800
400800
801000
801000
FFFE00
ENDCHAR
STARTCHAR florin
ENCODING 402
SWIDTH 600 0
DWIDTH 20 0
BBX 19 24 2 -3
BITMAP
0003E0
000C00
001000
001000
001000
002000
002000
002000
004000
07FE00
004000
004000
008000
008000
008000
008000
008000
010000
010000
010000
010000
020000
0E0000
F00000
ENDCHAR
STARTCHAR uni0197
ENCODING 407
SWIDTH 600 0
DWIDTH 20 0
BBX 15 19 4 0
BITMAP
1FFE
0040
0040
0080
0080
0080
0080
0100
0100
FFFE
0100
0100
0200
0200
0200
0200
0400
0400
FFF0
ENDCHAR
STARTCHAR uni019A
ENCODING 410
SWIDTH 600 0
DWIDTH 20 0
BBX 15 20 2 0
BITMAP
07F0
0010
0020
0020
0020
0020
0020
0040
0040
FFFE
0040
0040
0080
0080
0080
0080
0080
0100
0100
7FFC
ENDCHAR
STARTCHAR uni019D
ENCODING 413
SWIDTH 600 0
DWIDTH 20 0
BBX 28 25 -6 -6
BITMAP
001F03F0
00030040
00028040
00048080
00048080
00048080
00044080
00084100
00084100
00084100
00082100
00082100
00102200
00101200
00101200
00101200
00101400
00200C00
00200C00
00200000
00200000
00400000
00400000
03800000
FC000000
ENDCHAR
STARTCHAR uni019F
ENCODING 415
SWIDTH 600 0
DWIDTH 20 0
BBX 16 19 4 0
BITMAP
01F0
0608
1804
2002
2002
4001
4001
4001
8001
FFFF
8001
8002
8002
8002
4004
4004
2018
1060
0F80
ENDCHAR
STARTCHAR Ohorn
ENCODING 416
SWIDTH 600 0
DWIDTH 20 0
BBX 23 19 4 0
BITMAP
01F03E
06083C
180478
200270
2002E0
4001C0
400180
400100
800100
800100
800100
800200
800200
800200
400400
400400
201800
106000
0F8000
ENDCHAR
STARTCHAR ohorn
ENCODING 417
SWIDTH 600 0
DWIDTH 20 0
BBX 22 14 4 0
BITMAP
03F07C
0C0878
1004F0
2004E0
2003C0
400380
400300
800400
800400
800800
400800
401000
206000
1F8000
ENDCHAR
STARTCHAR Uhorn
ENCODING 431
SWIDTH 600 0
DWIDTH 20 0
BBX 23 19 5 0
BITMAP
7E1FBE
10023C
100278
200470
2004E0
2004C0
200580
400800
400800
400800
400800
801000
801000
801000
802000
402000
404000
208000
1F0000
ENDCHAR
STARTCHAR uhorn
ENCODING 432
SWIDTH 600 0
DWIDTH 20 0
BBX 22 14 4 0
BITMAP
F03E7C
100278
1002F0
2004E0
2005C0
200580
200700
200800
400800
400800
400800
403000
20D000
1F1C00
ENDCHAR
STARTCHAR uni01B5
ENCODING 437
SWIDTH 600 0
DWIDTH 20 0
BBX 16 19 3 0
BITMAP
07FF
0401
0402
0804
0808
0808
0010
0020
0040
7FFF
0100
0200
0404
0404
0804
1008
2008
4008
FFF8
ENDCHAR
STARTCHAR uni01B6
ENCODING 438
SWIDTH 600 0
DWIDTH 20 0
BBX 15 14 4 0
BITMAP
1FFC
1008
2010
2020
0040
0080
FFFE
0200
0400
0800
1008
2008
4010
FFF0
ENDCHAR
STARTCHAR uni01BB
ENCODING 443
SWIDTH 600 0
DWIDTH 20 0
BBX 15 20 3 0
BITMAP
00F8
0304
0402
0802
1002
0002
0004
0004
0008
FFFE
0020
0040
0080
0100
0200
0400
1800
3008
C008
FFF0
ENDCHAR
STARTCHAR uni01BC
ENCODING 444
SWIDTH 600 0
DWIDTH 20 0
BBX 14 20 5 0
BITMAP
07FC
0400
0400
0800
0800
0800
11C0
1630
1810
1008
0008
0008
0008
0008
0008
0010
0010
8020
60C0
1F00
ENDCHAR
STARTCHAR uni01C0
ENCODING 448
SWIDTH 600 0
DWIDTH 20 0
BBX 6 25 8 -4
BITMAP
04
04
04
08
08
08
08
08
10
10
10
10
20
20
20
20
20
40
40
40
40
40
80
80
80
ENDCHAR
STARTCHAR uni01C2
ENCODING 450
SWIDTH 600 0
DWIDTH 20 0
BBX 17 25 3 -3
BITMAP
001000
001000
001000
002000
002000
002000
002000
002000
004000
004000
7FFF80
004000
008000
008000
008000
FFFF00
008000
010000
010000
010000
010000
010000
020000
020000
020000
ENDCHAR
STARTCHAR uni01C3
ENCODING 451
SWIDTH 600 0
DWIDTH 20 0
BBX 8 21 8 0
BITMAP
02
07
06
06
0E
0C
0C
0C
08
08
18
10
10
10
00
00
00
00
70
F0
E0
ENDCHAR
STARTCHAR uni01CD
ENCODING 461
SWIDTH 600 0
DWIDTH 20 0
BBX 19 25 0 0
BITMAP
030300
018600
00DC00
007000
002000
000000
01FE00
001200
001200
002200
002200
004100
004100
008100
008100
010100
020100
020100
07FF00
040100
080080
080080
100080
100080
FE07E0
ENDCHAR
STARTCHAR uni01CE
ENCODING 462
SWIDTH 600 0
DWIDTH 20 0
BBX 14 20 4 0
BITMAP
1818
0C30
06E0
0380
0100
0000
07C0
1830
0008
0008
0008
0008
0F88
3070
4010
4010
8010
8020
80E0
7F3C
ENDCHAR
STARTCHAR uni01CF
ENCODING 463
SWIDTH 600 0
DWIDTH 20 0
BBX 15 25 4 0
BITMAP
0C0C
0618
0370
01C0
0080
0000
1FFE
0040
0040
0080
0080
0080
0080
0100
0100
0100
0100
0100
0200
0200
0200
0200
0400
0400
FFF0
ENDCHAR
STARTCHAR uni01D0
ENCODING 464
SWIDTH 600 0
DWIDTH 20 0
BBX 13 20 3 0
BITMAP
1818
0C30
06E0
0380
0100
0000
0FC0
0040
0040
0080
0080
0080
0080
0100
0100
0100
0100
0200
0200
FFF8
ENDCHAR
STARTCHAR uni01D1
ENCODING 465
SWIDTH 600 0
DWIDTH 20 0
BBX 16 25 4 0
BITMAP
0C0C
0618
0370
01C0
0080
0000
01F0
0608
1804
2002
2002
4001
4001
4001
8001
8001
8001
8002
8002
8002
4004
4004
2018
1060
0F80
ENDCHAR
STARTCHAR uni01D2
ENCODING 466
SWIDTH 600 0
DWIDTH 20 0
BBX 15 20 4 0
BITMAP
1818
0C30
06E0
0380
0100
0000
03F0
0C08
1004
2004
2002
4002
4002
8004
8004
8008
4008
4010
2060
1F80
ENDCHAR
STARTCHAR uni01D3
ENCODING 467
SWIDTH 600 0
DWIDTH 20 0
BBX 17 25 5 0
BITMAP
0C0C00
061800
037000
01C000
008000
000000
7E1F80
100200
100200
200400
200400
200400
200400
400800
400800
400800
400800
801000
801000
801000
802000
402000
404000
208000
1F0000
ENDCHAR
STARTCHAR uni01D4
ENCODING 468
SWIDTH 600 0
DWIDTH 20 0
BBX 15 20 4 0
BITMAP
1818
0C30
06E0
0380
0100
0000
F03E
1002
1002
2004
2004
2004
2004
2008
4008
4008
4008
4030
20D0
1F1C
ENDCHAR
STARTCHAR uni01D5
ENCODING 469
SWIDTH 600 0
DWIDTH 20 0
BBX 17 26 5 0
BITMAP
0FFC00
000000
030600
070E00
060C00
000000
000000
7E1F80
100200
100200
200400
200400
200400
200400
400800
400800
400800
400800
801000
801000
801000
802000
402000
404000
208000
1F0000
ENDCHAR
STARTCHAR uni01D6
ENCODING 470
SWIDTH 600 0
DWIDTH 20 0
BBX 15 21 4 0
BITMAP
0FFC
0000
060C
0E1C
0C18
0000
0000
F03E
1002
1002
2004
2004
2004
2004
2008
4008
4008
4008
4030
6050
1F9C
ENDCHAR
STARTCHAR uni01D7
ENCODING 471
SWIDTH 600 0
DWIDTH 20 0
BBX 17 30 5 0
BITMAP
000C00
001800
007000
00C000
018000
000000
030600
070E00
060C00
000000
000000
7E1F80
100200
100200
200400
200400
200400
200400
400800
400800
400800
400800
801000
801000
801000
802000
402000
404000
208000
1F0000
ENDCHAR
STARTCHAR uni01D8
ENCODING 472
SWIDTH 600 0
DWIDTH 20 0
BBX 15 25 4 0
BITMAP
0018
0030
00E0
0180
0300
0000
060C
0E1C
0C18
0000
0000
F03E
1002
1002
2004
2004
2004
2004
2008
4008
4008
4008
4030
6050
1F9C
ENDCHAR
STARTCHAR uni01D9
ENCODING 473
SWIDTH 600 0
DWIDTH 20 0
BBX 17 30 5 0
BITMAP
060600
030C00
01B800
00E000
004000
000000
030600
070E00
060C00
000000
000000
7E1F80
100200
100200
200400
200400
200400
200400
400800
400800
400800
400800
801000
801000
801000
802000
402000
404000
208000
1F0000
ENDCHAR
STARTCHAR uni01DA
ENCODING 474
SWIDTH 600 0
DWIDTH 20 0
BBX 15 25 4 0
BITMAP
0C0C
0618
0370
01C0
0080
0000
060C
0E1C
0C18
0000
0000
F03E
1002
1002
2004
2004
2004
2004
2008
4008
4008
4008
4030
6050
1F9C
ENDCHAR
STARTCHAR uni01DB
ENCODING 475
SWIDTH 600 0
DWIDTH 20 0
BBX 17 30 5 0
BITMAP
060000
030000
018000
00C000
006000
000000
030600
070E00
060C00
000000
000000
7E1F80
100200
100200
200400
200400
200400
200400
400800
400800
400800
400800
801000
801000
801000
802000
402000
404000
208000
1F0000
ENDCHAR
STARTCHAR uni01DC
ENCODING 476
SWIDTH 600 0
DWIDTH 20 0
BBX 15 25 4 0
BITMAP
0600
0300
0180
00C0
0060
0000
060C
0E1C
0C18
0000
0000
F03E
1002
1002
2004
2004
2004
2004
2008
4008
4008
4008
4030
6050
1F9C
ENDCHAR
STARTCHAR uni01DD
ENCODING 477
SWIDTH 600 0
DWIDTH 20 0
BBX 14 14 4 0
BITMAP
07C0
1830
6008
0008
0004
0004
0004
FFFC
8004
8008
4008
4010
3060
0F80
ENDCHAR
STARTCHAR uni01DE
ENCODING 478
SWIDTH 600 0
DWIDTH 20 0
BBX 19 26 0 0
BITMAP
01FF80
000000
003060
0070E0
0060C0
000000
000000
01FE00
001200
001200
002200
002200
004100
004100
008100
008100
010100
020100
020100
07FF00
040100
080080
080080
100080
100080
FE07E0
ENDCHAR
STARTCHAR uni01DF
ENCODING 479
SWIDTH 600 0
DWIDTH 20 0
BBX 14 21 4 0
BITMAP
1FF8
0000
060C
0E1C
0C18
0000
0000
03C0
1C30
0010
0008
0008
0008
0F88
3070
4010
4010
8010
8060
80A0
7F3C
ENDCHAR
STARTCHAR uni01E0
ENCODING 480
SWIDTH 600 0
DWIDTH 20 0
BBX 19 25 0 0
BITMAP
03FF00
000000
001800
003800
003000
000000
01FE00
001200
001200
002200
002200
004100
004100
008100
008100
010100
020100
020100
07FF00
040100
080080
080080
100080
100080
FE07E0
ENDCHAR
STARTCHAR uni01E1
ENCODING 481
SWIDTH 600 0
DWIDTH 20 0
BBX 14 20 4 0
BITMAP
1FF8
0000
00C0
01C0
0180
0000
07C0
1830
0008
0008
0008
0008
0F88
3070
4010
4010
8010
8020
80E0
7F3C
ENDCHAR
STARTCHAR uni01E2
ENCODING 482
SWIDTH 600 0
DWIDTH 20 0
BBX 22 21 0 0
BITMAP
007FE0
000000
00FFFC
001204
002204
002408
004408
004408
008440
008840
010FC0
010880
020880
03F800
041000
041000
081010
081010
102010
102020
F9FFE0
ENDCHAR
STARTCHAR uni01E3
ENCODING 483
SWIDTH 600 0
DWIDTH 20 0
BBX 20 16 1 0
BITMAP
03FF00
000000
0F83C0
304420
002820
002810
003010
0F3010
30FFF0
406000
804000
804000
806000
81E020
4650C0
384F00
ENDCHAR
STARTCHAR uni01E4
ENCODING 484
SWIDTH 600 0
DWIDTH 20 0
BBX 22 19 4 0
BITMAP
00F080
070E80
080180
100100
200100
400100
400000
800000
800000
800000
800000
80FF00
800200
81FFFC
800400
400400
400800
303800
0FC000
ENDCHAR
STARTCHAR uni01E5
ENCODING 485
SWIDTH 600 0
DWIDTH 20 0
BBX 18 20 4 -6
BITMAP
07E3C0
181200
200A00
200400
400400
400400
800400
800C00
800800
801800
402800
60C800
1F1000
001000
001000
FFFFC0
001000
002000
004000
7F8000
ENDCHAR
STARTCHAR Gcaron
ENCODING 486
SWIDTH 600 0
DWIDTH 20 0
BBX 17 25 4 0
BITMAP
060600
030C00
01B800
00E000
004000
000000
00F080
070E80
080180
100100
200100
400100
400000
800000
800000
800000
800000
80FF00
800200
800400
800400
400400
400800
303800
0FC000
ENDCHAR
STARTCHAR gcaron
ENCODING 487
SWIDTH 600 0
DWIDTH 20 0
BBX 18 26 4 -6
BITMAP
060600
030C00
01B800
00E000
004000
000000
07E3C0
181200
200A00
200400
400400
400400
800400
800C00
800800
801800
402800
60C800
1F1000
001000
001000
001000
001000
002000
004000
7F8000
ENDCHAR
STARTCHAR uni01E8
ENCODING 488
SWIDTH 600 0
DWIDTH 20 0
BBX 21 25 1 0
BITMAP
018180
00C300
006E00
003800
001000
000000
0FE1F8
010020
0100C0
020100
020200
020400
021800
042000
044000
05B000
060800
040800
080800
080400
080400
080400
100400
100200
FF03C0
ENDCHAR
STARTCHAR uni01E9
ENCODING 489
SWIDTH 600 0
DWIDTH 20 0
BBX 17 26 2 0
BITMAP
303000
186000
0DC000
070000
020000
000000
0F0000
010000
020000
020000
020000
020000
021F80
040C00
041000
042000
04C000
050000
0E8000
084000
084000
082000
081000
100800
100800
F03F00
ENDCHAR
STARTCHAR uni01EA
ENCODING 490
SWIDTH 600 0
DWIDTH 20 0
BBX 16 24 4 -5
BITMAP
01F0
0608
1804
2002
2002
4001
4001
4001
8001
8001
8001
8002
8002
8002
4004
4004
2018
1060
0F80
0100
0100
0200
0240
0180
ENDCHAR
STARTCHAR uni01EB
ENCODING 491
SWIDTH 600 0
DWIDTH 20 0
BBX 15 19 4 -5
BITMAP
03F0
0C08
1004
2004
2002
4002
4002
8004
8004
8008
4008
4010
2060
1F80
0200
0200
0400
0480
0300
ENDCHAR
STARTCHAR uni01EC
ENCODING 492
SWIDTH 600 0
DWIDTH 20 0
BBX 16 26 4 -5
BITMAP
1FF8
0000
01F0
0608
1804
2002
2002
4001
4001
4001
8001
8001
8001
8002
8002
8002
4004
4004
2018
1060
0F80
0100
0100
0200
0240
0180
ENDCHAR
STARTCHAR uni01ED
ENCODING 493
SWIDTH 600 0
DWIDTH 20 0
BBX 15 21 4 -5
BITMAP
1FF8
0000
03F0
0C08
1004
2004
2002
4002
4002
8004
8004
8008
4008
4010
2060
1F80
0200
0200
0400
0480
0300
ENDCHAR
STARTCHAR uni01F0
ENCODING 496
SWIDTH 600 0
DWIDTH 20 0
BBX 15 26 2 -6
BITMAP
0606
030C
01B8
00E0
0040
0000
0FFC
0004
0004
0008
0008
0008
0008
0010
0010
0010
0010
0010
0020
0020
0020
0020
0040
0040
0380
FC00
ENDCHAR
STARTCHAR uni01F4
ENCODING 500
SWIDTH 600 0
DWIDTH 20 0
BBX 17 25 4 0
BITMAP
000600
000C00
003800
006000
00C000
000000
00F080
070E80
080180
100100
200100
400100
400000
800000
800000
800000
800000
80FF00
800200
800400
800400
400400
400800
303800
0FC000
ENDCHAR
STARTCHAR uni01F5
ENCODING 501
SWIDTH 600 0
DWIDTH 20 0
BBX 18 26 4 -6
BITMAP
000C00
001800
007000
00C000
018000
000000
07E3C0
181200
200A00
200400
400400
400400
800400
800C00
800800
801800
402800
60C800
1F1000
001000
001000
001000
001000
002000
004000
7F8000
ENDCHAR
STARTCHAR uni01F8
ENCODING 504
SWIDTH 600 0
DWIDTH 20 0
BBX 20 25 2 0
BITMAP
018000
00C000
006000
003000
001800
000000
1F03F0
030040
028040
048080
048080
048080
044080
084100
084100
084100
082100
082100
102200
101200
101200
101200
201400
200C00
FC0C00
ENDCHAR
STARTCHAR uni01F9
ENCODING 505
SWIDTH 600 0
DWIDTH 20 0
BBX 16 20 2 0
BITMAP
0600
0300
0180
00C0
0060
0000
1C3C
04C2
0502
0E01
0801
0801
0801
1002
1002
1002
1002
2004
2004
FC1F
ENDCHAR
STARTCHAR Aringacute
ENCODING 506
SWIDTH 600 0
DWIDTH 20 0
BBX 19 32 0 0
BITMAP
000180
000300
000E00
001800
003000
000000
000700
000880
001080
001080
001100
000E00
000000
01FE00
001200
001200
002200
002200
004100
004100
008100
008100
010100
020100
020100
07FF00
040100
080080
080080
100080
100080
FE07E0
ENDCHAR
STARTCHAR aringacute
ENCODING 507
SWIDTH 600 0
DWIDTH 20 0
BBX 14 28 4 0
BITMAP
000C
0018
0070
00C0
0180
0000
0070
0088
0108
0108
0110
00E0
0000
0000
03C0
1C30
0010
0008
0008
0008
0F88
3070
4010
4010
8010
8060
80A0
7F3C
ENDCHAR
STARTCHAR AEacute
ENCODING 508
SWIDTH 600 0
DWIDTH 20 0
BBX 22 25 0 0
BITMAP
000060
0000C0
000380
000600
000C00
000000
00FFFC
001204
002204
002408
004408
004408
008440
008840
010FC0
010880
020880
03F800
041000
041000
081010
081010
102010
102020
F9FFE0
ENDCHAR
STARTCHAR aeacute
ENCODING 509
SWIDTH 600 0
DWIDTH 20 0
BBX 20 20 1 0
BITMAP
000300
000600
001C00
003000
006000
000000
0F83C0
304420
002820
002810
003010
0F3010
30FFF0
406000
804000
804000
806000
81E020
4650C0
384F00
ENDCHAR
STARTCHAR Oslashacute
ENCODING 510
SWIDTH 600 0
DWIDTH 20 0
BBX 17 25 4 0
BITMAP
000C00
001800
007000
00C000
018000
000000
01F080
060900
180600
200600
200A00
401100
402100
404100
804100
808100
810100
820200
840200
840200
480400
500400
201800
506000
8F8000
ENDCHAR
STARTCHAR oslashacute
ENCODING 511
SWIDTH 600 0
DWIDTH 20 0
BBX 15 20 4 0
BITMAP
000C
0018
0070
00C0
0180
0000
03F2
0C0C
100C
2014
2022
4042
4182
8204
8404
8808
5008
6010
6060
9F80
ENDCHAR
STARTCHAR Scommaaccent
ENCODING 536
SWIDTH 600 0
DWIDTH 20 0
BBX 17 27 3 -8
BITMAP
00F880
030680
040180
040100
080100
080100
080000
080000
060000
01C000
003800
000400
000200
400200
400200
400400
600400
B03800
8FC000
000000
07C000
078000
0F0000
0E0000
1C0000
180000
300000
ENDCHAR
STARTCHAR scommaaccent
ENCODING 537
SWIDTH 600 0
DWIDTH 20 0
BBX 15 22 4 -8
BITMAP
01E2
061A
0804
1004
1000
0C00
0380
0070
0008
4004
4004
4008
B030
8FC0
0000
07C0
0780
0F00
0E00
1C00
1800
3000
ENDCHAR
STARTCHAR Tcommaaccent
ENCODING 538
SWIDTH 600 0
DWIDTH 20 0
BBX 16 27 5 -8
BITMAP
3FFF
2081
2081
4102
4102
4102
4102
0200
0200
0200
0200
0200
0400
0400
0400
0400
0800
0800
FFC0
0000
0F80
0F00
1E00
1C00
3800
3000
6000
ENDCHAR
STARTCHAR tcommaaccent
ENCODING 539
SWIDTH 600 0
DWIDTH 20 0
BBX 13 27 4 -8
BITMAP
0400
0400
0400
0800
0800
FFF8
0800
0800
1000
1000
1000
1000
1000
2000
2000
2000
1008
1030
0FC0
0000
07C0
0780
0F00
0E00
1C00
1800
3000
ENDCHAR
STARTCHAR uni021E
ENCODING 542
SWIDTH 600 0
DWIDTH 20 0
BBX 20 25 2 0
BITMAP
018180
00C300
006E00
003800
001000
000000
0FC3F0
020040
020040
040080
040080
040080
040080
080100
080100
0FFF00
080100
080100
100200
100200
100200
100200
200400
200400
FC3F80
ENDCHAR
STARTCHAR uni021F
ENCODING 543
SWIDTH 600 0
DWIDTH 20 0
BBX 17 26 2 0
BITMAP
303000
186000
0DC000
070000
020000
000000
1E0000
020000
040000
040000
040000
040000
043C00
08C200
0B0200
0C0100
080100
080100
100100
100200
100200
100200
100200
200400
200400
FC1F80
ENDCHAR
STARTCHAR uni0226
ENCODING 550
SWIDTH 600 0
DWIDTH 20 0
BBX 19 23 0 0
BITMAP
001800
003800
003000
000000
01FE00
001200
001200
002200
002200
004100
004100
008100
008100
010100
020100
020100
07FF00
040100
080080
080080
100080
100080
FE07E0
ENDCHAR
STARTCHAR uni0227
ENCODING 551
SWIDTH 600 0
DWIDTH 20 0
BBX 14 18 4 0
BITMAP
00C0
01C0
0180
0000
07C0
1830
0008
0008
0008
0008
0F88
3070
4010
4010
8010
8020
80E0
7F3C
ENDCHAR
STARTCHAR uni0228
ENCODING 552
SWIDTH 600 0
DWIDTH 20 0
BBX 19 24 1 -5
BITMAP
0FFFE0
010020
010020
020040
020040
020440
020400
040400
07FC00
040800
040800
040800
080000
080080
080080
080080
100100
100100
FFFF00
004000
004000
00E000
023000
01E000
ENDCHAR
STARTCHAR uni0229
ENCODING 553
SWIDTH 600 0
DWIDTH 20 0
BBX 14 19 4 -5
BITMAP
07C0
1830
2008
4008
4004
8004
FFFC
8000
8000
8000
4000
4018
3060
0F80
0200
0200
0700
1180
0F00
ENDCHAR
STARTCHAR uni022A
ENCODING 554
SWIDTH 600 0
DWIDTH 20 0
BBX 16 26 4 0
BITMAP
0FFC
0000
0306
070E
060C
0000
0000
01F0
0608
1804
2002
2002
4001
4001
4001
8001
8001
8001
8002
8002
8002
4004
4004
2018
1060
0F80
ENDCHAR
STARTCHAR uni022B
ENCODING 555
SWIDTH 600 0
DWIDTH 20 0
BBX 15 21 4 0
BITMAP
0FFC
0000
0306
070E
060C
0000
0000
03F0
0C08
1004
2004
2002
4002
4002
8004
8004
8008
4008
4010
2060
1F80
ENDCHAR
STARTCHAR uni022C
ENCODING 556
SWIDTH 600 0
DWIDTH 20 0
BBX 16 26 4 0
BITMAP
0FFC
0000
0782
0DF6
083C
0000
0000
01F0
0608
1804
2002
2002
4001
4001
4001
8001
8001
8001
8002
8002
8002
4004
4004
2018
1060
0F80
ENDCHAR
STARTCHAR uni022D
ENCODING 557
SWIDTH 600 0
DWIDTH 20 0
BBX 15 21 4 0
BITMAP
0FFC
0000
0782
0DF6
083C
0000
0000
03F0
0C08
1004
2004
2002
4002
4002
8004
8004
8008
4008
4010
2060
1F80
ENDCHAR
STARTCHAR uni022E
ENCODING 558
SWIDTH 600 0
DWIDTH 20 0
BBX 16 23 4 0
BITMAP
00C0
01C0
0180
0000
01F0
0608
1804
2002
2002
4001
4001
4001
8001
8001
8001
8002
8002
8002
4004
4004
2018
1060
0F80
ENDCHAR
STARTCHAR uni022F
ENCODING 559
SWIDTH 600 0
DWIDTH 20 0
BBX 15 18 4 0
BITMAP
00C0
01C0
0180
0000
03F0
0C08
1004
2004
2002
4002
4002
8004
8004
8008
4008
4010
2060
1F80
ENDCHAR
STARTCHAR uni0230
ENCODING 560
SWIDTH 600 0
DWIDTH 20 0
BBX 16 25 4 0
BITMAP
0FFC
0000
00C0
01C0
0180
0000
01F0
0608
1804
2002
2002
4001
4001
4001
8001
8001
8001
8002
8002
8002
4004
4004
2018
1060
0F80
ENDCHAR
STARTCHAR uni0231
ENCODING 561
SWIDTH 600 0
DWIDTH 20 0
BBX 15 20 4 0
BITMAP
1FF8
0000
00C0
01C0
0180
0000
03F0
0C08
1004
2004
2002
4002
4002
8004
8004
8008
4008
4010
2060
1F80
ENDCHAR
STARTCHAR uni0232
ENCODING 562
SWIDTH 600 0
DWIDTH 20 0
BBX 17 21 5 0
BITMAP
1FF800
000000
F81F80
200400
100800
100800
081000
082000
084000
048000
048000
030000
020000
020000
020000
040000
040000
040000
040000
080000
FFC000
ENDCHAR
STARTCHAR uni0233
ENCODING 563
SWIDTH 600 0
DWIDTH 20 0
BBX 20 22 0 -6
BITMAP
03FF00
000000
1F81F0
040040
020040
020080
020100
010100
010200
010400
010400
008800
009000
00A000
006000
004000
008000
008000
010000
020000
020000
FFC000
ENDCHAR
STARTCHAR uni0250
ENCODING 592
SWIDTH 600 0
DWIDTH 20 0
BBX 14 14 4 0
BITMAP
F3F8
1C04
1004
2004
2008
2008
3830
47C0
4000
4000
4000
4000
3060
0F80
ENDCHAR
STARTCHAR uni0259
ENCODING 601
SWIDTH 600 0
DWIDTH 20 0
BBX 14 14 4 0
BITMAP
07C0
1830
6008
0008
0004
0004
0004
FFFC
8004
8008
4008
4010
3060
0F80
ENDCHAR
STARTCHAR uni025F
ENCODING 607
SWIDTH 600 0
DWIDTH 20 0
BBX 18 20 4 -6
BITMAP
03FFC0
000400
000800
000800
000800
000800
001000
001000
001000
001000
002000
002000
002000
1FFE00
004000
004000
004000
008000
C18000
3E0000
ENDCHAR
STARTCHAR uni0265
ENCODING 613
SWIDTH 600 0
DWIDTH 20 0
BBX 17 20 2 -6
BITMAP
FC1F80
100200
100200
200400
200400
200400
200400
400400
400800
400800
401800
206800
218800
1E1000
001000
001000
001000
001000
002000
003C00
ENDCHAR
STARTCHAR uni0275
ENCODING 629
SWIDTH 600 0
DWIDTH 20 0
BBX 15 14 4 0
BITMAP
03F0
0C08
1004
2004
2002
4002
FFFE
8004
8004
8008
4008
4010
2060
1F80
ENDCHAR
STARTCHAR uni0279
ENCODING 633
SWIDTH 600 0
DWIDTH 20 0
BBX 17 14 3 0
BITMAP
07FF80
000800
000800
001000
001000
001000
001000
002000
002000
002000
006000
01C000
864000
787C00
ENDCHAR
STARTCHAR uni0287
ENCODING 647
SWIDTH 600 0
DWIDTH 20 0
BBX 13 19 4 0
BITMAP
1F80
6040
8040
0020
0020
0020
0040
0040
0040
0040
0040
0080
0080
FFF8
0080
0080
0100
0100
0100
ENDCHAR
STARTCHAR uni0289
ENCODING 649
SWIDTH 600 0
DWIDTH 20 0
BBX 15 14 4 0
BITMAP
F03E
1002
1002
2004
2004
2004
FFFE
2008
4008
4008
4008
4030
20D0
1F1C
ENDCHAR
STARTCHAR uni028C
ENCODING 652
SWIDTH 600 0
DWIDTH 20 0
BBX 17 14 4 0
BITMAP
003800
002800
004800
008800
008400
010400
020400
020400
040400
080400
080200
100200
100200
FC1F80
ENDCHAR
STARTCHAR uni028D
ENCODING 653
SWIDTH 600 0
DWIDTH 20 0
BBX 17 14 4 0
BITMAP
018300
028500
028500
048900
048900
089100
089100
10A100
106100
204100
200100
400100
400100
F80F80
ENDCHAR
STARTCHAR uni028E
ENCODING 654
SWIDTH 600 0
DWIDTH 20 0
BBX 20 20 0 0
BITMAP
003FF0
000400
000400
000800
001000
001000
002000
006000
005000
009000
011000
020800
020800
040800
080800
080400
100400
200400
200200
F81F80
ENDCHAR
STARTCHAR uni029E
ENCODING 670
SWIDTH 600 0
DWIDTH 20 0
BBX 17 20 2 -6
BITMAP
7E0780
080400
080400
040800
020800
010800
010800
00B800
005000
019000
021000
041000
181000
FC2000
002000
002000
002000
002000
004000
007800
ENDCHAR
STARTCHAR uni02BB
ENCODING 699
SWIDTH 600 0
DWIDTH 20 0
BBX 8 7 10 13
BITMAP
F8
78
3C
1C
0E
06
03
ENDCHAR
STARTCHAR afii57929
ENCODING 700
SWIDTH 600 0
DWIDTH 20 0
BBX 8 7 8 13
BITMAP
1F
1E
3C
38
70
60
C0
ENDCHAR
STARTCHAR afii64937
ENCODING 701
SWIDTH 600 0
DWIDTH 20 0
BBX 8 7 8 13
BITMAP
F8
78
3C
1C
0E
06
03
ENDCHAR
STARTCHAR circumflex
ENCODING 710
SWIDTH 600 0
DWIDTH 20 0
BBX 10 5 8 16
BITMAP
0400
0E00
3B00
6180
C0C0
ENDCHAR
STARTCHAR caron
ENCODING 711
SWIDTH 600 0
DWIDTH 20 0
BBX 10 5 9 16
BITMAP
C0C0
6180
3700
1C00
0800
ENDCHAR
STARTCHAR uni02C8
ENCODING 712
SWIDTH 600 0
DWIDTH 20 0
BBX 5 9 11 11
BITMAP
78
70
70
F0
E0
E0
E0
C0
C0
ENDCHAR
STARTCHAR macron
ENCODING 713
SWIDTH 600 0
DWIDTH 20 0
BBX 10 1 9 17
BITMAP
FFC0
ENDCHAR
STARTCHAR uni02CA
ENCODING 714
SWIDTH 600 0
DWIDTH 20 0
BBX 7 5 13 16
BITMAP
06
0C
38
60
C0
ENDCHAR
STARTCHAR uni02CB
ENCODING 715
SWIDTH 600 0
DWIDTH 20 0
BBX 6 5 9 16
BITMAP
C0
60
30
18
0C
ENDCHAR
STARTCHAR uni02CD
ENCODING 717
SWIDTH 600 0
DWIDTH 20 0
BBX 10 1 9 -2
BITMAP
FFC0
ENDCHAR
STARTCHAR uni02CE
ENCODING 718
SWIDTH 600 0
DWIDTH 20 0
BBX 6 5 9 -6
BITMAP
C0
60
30
18
0C
ENDCHAR
STARTCHAR uni02CF
ENCODING 719
SWIDTH 600 0
DWIDTH 20 0
BBX 7 5 13 -6
BITMAP
06
0C
38
60
C0
ENDCHAR
STARTCHAR breve
ENCODING 728
SWIDTH 600 0
DWIDTH 20 0
BBX 10 5 9 16
BITMAP
C0C0
C0C0
C180
7F00
1C00
ENDCHAR
STARTCHAR dotaccent
ENCODING 729
SWIDTH 600 0
DWIDTH 20 0
BBX 3 3 12 16
BITMAP
60
E0
C0
ENDCHAR
STARTCHAR ring
ENCODING 730
SWIDTH 600 0
DWIDTH 20 0
BBX 6 6 11 16
BITMAP
38
44
84
84
88
70
ENDCHAR
STARTCHAR ogonek
ENCODING 731
SWIDTH 600 0
DWIDTH 20 0
BBX 4 6 9 -5
BITMAP
20
40
40
80
90
60
ENDCHAR
STARTCHAR tilde
ENCODING 732
SWIDTH 600 0
DWIDTH 20 0
BBX 11 3 8 16
BITMAP
7820
CE60
83C0
ENDCHAR
STARTCHAR hungarumlaut
ENCODING 733
SWIDTH 600 0
DWIDTH 20 0
BBX 12 5 8 16
BITMAP
0630
0C60
39C0
6300
C600
ENDCHAR
STARTCHAR uni02EE
ENCODING 750
SWIDTH 600 0
DWIDTH 20 0
BBX 15 9 6 12
BITMAP
070E
0F1E
1E3C
1C38
3870
30E0
70E0
E1C0
C180
ENDCHAR
STARTCHAR uni037E
ENCODING 894
SWIDTH 600 0
DWIDTH 20 0
BBX 10 17 4 -3
BITMAP
01C0
03C0
03C0
0380
0000
0000
0000
0000
0000
0000
1F00
1E00
3C00
3800
7000
E000
C000
ENDCHAR
STARTCHAR tonos
ENCODING 900
SWIDTH 600 0
DWIDTH 20 0
BBX 7 5 13 16
BITMAP
06
0C
38
60
C0
ENDCHAR
STARTCHAR dieresistonos
ENCODING 901
SWIDTH 600 0
DWIDTH 20 0
BBX 10 9 9 16
BITMAP
00C0
0180
0700
0C00
1800
0000
60C0
E1C0
C180
ENDCHAR
STARTCHAR anoteleia
ENCODING 903
SWIDTH 600 0
DWIDTH 20 0
BBX 4 4 9 8
BITMAP
70
F0
F0
E0
ENDCHAR
STARTCHAR mu
ENCODING 956
SWIDTH 600 0
DWIDTH 20 0
BBX 16 20 3 -6
BITMAP
781F
0801
0801
1002
1002
1002
1002
1004
2004
2004
2004
2018
5028
4FCE
4000
4000
4000
8000
8000
8000
ENDCHAR
STARTCHAR uni1E00
ENCODING 7680
SWIDTH 600 0
DWIDTH 20 0
BBX 19 26 0 -7
BITMAP
01FE00
001200
001200
002200
002200
004100
004100
008100
008100
010100
020100
020100
07FF00
040100
080080
080080
100080
100080
FE07E0
000000
00E000
011000
021000
021000
022000
01C000
ENDCHAR
STARTCHAR uni1E01
ENCODING 7681
SWIDTH 600 0
DWIDTH 20 0
BBX 14 21 4 -7
BITMAP
07C0
1830
0008
0008
0008
0008
0F88
3070
4010
4010
8010
8020
80E0
7F3C
0000
0380
0440
0840
0840
0880
0700
ENDCHAR
STARTCHAR uni1E02
ENCODING 7682
SWIDTH 600 0
DWIDTH 20 0
BBX 19 23 1 0
BITMAP
001800
003800
003000
000000
0FFF80
010040
010020
020020
020020
020020
020040
040080
040300
07FE00
040180
040040
080040
080040
080040
080080
100080
100700
FFF800
ENDCHAR
STARTCHAR uni1E03
ENCODING 7683
SWIDTH 600 0
DWIDTH 20 0
BBX 18 24 1 0
BITMAP
018000
038000
030000
000000
0F0000
010000
020000
020000
020000
020000
021E00
046100
058080
050080
060040
040040
0C0040
080040
080080
080100
0C0100
140200
120C00
F1F000
ENDCHAR
STARTCHAR uni1E04
ENCODING 7684
SWIDTH 600 0
DWIDTH 20 0
BBX 19 23 1 -4
BITMAP
0FFF80
010040
010020
020020
020020
020020
020040
040080
040300
07FE00
040180
040040
080040
080040
080040
080080
100080
100700
FFF800
000000
00C000
01C000
018000
ENDCHAR
STARTCHAR uni1E05
ENCODING 7685
SWIDTH 600 0
DWIDTH 20 0
BBX 18 24 1 -4
BITMAP
0F0000
010000
020000
020000
020000
020000
021E00
046100
058080
050080
060040
040040
0C0040
080040
080080
080100
0C0100
140200
120C00
F1F000
000000
018000
038000
030000
ENDCHAR
STARTCHAR uni1E06
ENCODING 7686
SWIDTH 600 0
DWIDTH 20 0
BBX 19 21 1 -2
BITMAP
0FFF80
010040
010020
020020
020020
020020
020040
040080
040300
07FE00
040180
040040
080040
080040
080040
080080
100080
100700
FFF800
000000
0FFC00
ENDCHAR
STARTCHAR uni1E07
ENCODING 7687
SWIDTH 600 0
DWIDTH 20 0
BBX 18 22 1 -2
BITMAP
0F0000
010000
020000
020000
020000
020000
021E00
046100
058080
050080
060040
040040
0C0040
080040
080080
080100
0C0100
140200
120C00
F1F000
000000
1FF800
ENDCHAR
STARTCHAR uni1E08
ENCODING 7688
SWIDTH 600 0
DWIDTH 20 0
BBX 17 30 4 -5
BITMAP
000600
000C00
003800
006000
00C000
000000
00F080
070E80
080180
100100
200100
200100
400000
400000
800000
800000
800000
800000
800000
800000
800000
400400
401800
38E000
070000
040000
040000
0E0000
230000
1E0000
ENDCHAR
STARTCHAR uni1E09
ENCODING 7689
SWIDTH 600 0
DWIDTH 20 0
BBX 15 25 4 -5
BITMAP
000C
0018
0070
00C0
0180
0000
01E2
061A
1806
2004
2004
4000
4000
8000
8000
8000
8004
4018
38E0
0700
0400
0400
0E00
2300
1E00
ENDCHAR
STARTCHAR uni1E0A
ENCODING 7690
SWIDTH 600 0
DWIDTH 20 0
BBX 17 23 2 0
BITMAP
006000
00E000
00C000
000000
0FF800
020600
020100
040100
040080
040080
040080
080080
080080
080080
080080
080080
100100
100100
100200
100200
200C00
207000
FF8000
ENDCHAR
STARTCHAR uni1E0B
ENCODING 7691
SWIDTH 600 0
DWIDTH 20 0
BBX 16 24 4 0
BITMAP
000C
001C
0018
0000
000F
0001
0002
0002
0002
0002
0782
1864
3014
400C
400C
8004
8004
8008
8008
8018
8018
4070
6190
1E1E
ENDCHAR
STARTCHAR uni1E0C
ENCODING 7692
SWIDTH 600 0
DWIDTH 20 0
BBX 17 23 2 -4
BITMAP
0FF800
020600
020100
040100
040080
040080
040080
080080
080080
080080
080080
080080
100100
100100
100200
100200
200C00
207000
FF8000
000000
018000
038000
030000
ENDCHAR
STARTCHAR uni1E0D
ENCODING 7693
SWIDTH 600 0
DWIDTH 20 0
BBX 16 24 4 -4
BITMAP
000F
0001
0002
0002
0002
0002
0782
1864
3014
400C
400C
8004
8004
8008
8008
8018
8018
4070
6190
1E1E
0000
0180
0380
0300
ENDCHAR
STARTCHAR uni1E0E
ENCODING 7694
SWIDTH 600 0
DWIDTH 20 0
BBX 17 21 2 -2
BITMAP
0FF800
020600
020100
040100
040080
040080
040080
080080
080080
080080
080080
080080
100100
100100
100200
100200
200C00
207000
FF8000
000000
3FF000
ENDCHAR
STARTCHAR uni1E0F
ENCODING 7695
SWIDTH 600 0
DWIDTH 20 0
BBX 16 22 4 -2
BITMAP
000F
0001
0002
0002
0002
0002
0782
1864
3014
400C
400C
8004
8004
8008
8008
8018
8018
4070
6190
1E1E
0000
1FF8
ENDCHAR
STARTCHAR uni1E10
ENCODING 7696
SWIDTH 600 0
DWIDTH 20 0
BBX 17 24 2 -5
BITMAP
0FF800
020600
020100
040100
040080
040080
040080
080080
080080
080080
080080
080080
100100
100100
100200
100200
200C00
207000
FF8000
010000
010000
038000
08C000
078000
ENDCHAR
STARTCHAR uni1E11
ENCODING 7697
SWIDTH 600 0
DWIDTH 20 0
BBX 16 25 4 -5
BITMAP
000F
0001
0002
0002
0002
0002
0782
1864
3014
400C
400C
8004
8004
8008
8008
8018
8018
4070
6190
1E1E
0080
0080
01C0
0460
03C0
ENDCHAR
STARTCHAR uni1E12
ENCODING 7698
SWIDTH 600 0
DWIDTH 20 0
BBX 17 25 2 -6
BITMAP
0FF800
020600
020100
040100
040080
040080
040080
080080
080080
080080
080080
080080
100100
100100
100200
100200
200C00
207000
FF8000
000000
010000
038000
0EC000
186000
303000
ENDCHAR
STARTCHAR uni1E13
ENCODING 7699
SWIDTH 600 0
DWIDTH 20 0
BBX 16 26 4 -6
BITMAP
000F
0001
0002
0002
0002
0002
0782
1864
3014
400C
400C
8004
8004
8008
8008
8018
8018
4070
6190
1E1E
0000
0080
01C0
0760
0C30
1818
ENDCHAR
STARTCHAR uni1E14
ENCODING 7700
SWIDTH 600 0
DWIDTH 20 0
BBX 19 27 1 0
BITMAP
018000
00C000
006000
003000
001800
000000
03FF00
000000
0FFFE0
010020
010020
020040
020040
020440
020400
040400
07FC00
040800
040800
040800
080000
080080
080080
080080
100100
100100
FFFF00
ENDCHAR
STARTCHAR uni1E15
ENCODING 7701
SWIDTH 600 0
DWIDTH 20 0
BBX 14 22 4 0
BITMAP
1800
0C00
0600
0300
0180
0000
3FF0
0000
07C0
1830
2008
4008
4004
8004
FFFC
8000
8000
8000
4000
4018
3060
0F80
ENDCHAR
STARTCHAR uni1E16
ENCODING 7702
SWIDTH 600 0
DWIDTH 20 0
BBX 19 27 1 0
BITMAP
000300
000600
001C00
003000
006000
000000
03FF00
000000
0FFFE0
010020
010020
020040
020040
020440
020400
040400
07FC00
040800
040800
040800
080000
080080
080080
080080
100100
100100
FFFF00
ENDCHAR
STARTCHAR uni1E17
ENCODING 7703
SWIDTH 600 0
DWIDTH 20 0
BBX 14 22 4 0
BITMAP
0030
0060
01C0
0300
0600
0000
3FF0
0000
07C0
1830
2008
4008
4004
8004
FFFC
8000
8000
8000
4000
4018
3060
0F80
ENDCHAR
STARTCHAR uni1E18
ENCODING 7704
SWIDTH 600 0
DWIDTH 20 0
BBX 19 25 1 -6
BITMAP
0FFFE0
010020
010020
020040
020040
020440
020400
040400
07FC00
040800
040800
040800
080000
080080
080080
080080
100100
100100
FFFF00
000000
004000
00E000
03B000
061800
0C0C00
ENDCHAR
STARTCHAR uni1E19
ENCODING 7705
SWIDTH 600 0
DWIDTH 20 0
BBX 14 20 4 -6
BITMAP
07C0
1830
2008
4008
4004
8004
FFFC
8000
8000
8000
4000
4018
3060
0F80
0000
0200
0700
1D80
30C0
6060
ENDCHAR
STARTCHAR uni1E1A
ENCODING 7706
SWIDTH 600 0
DWIDTH 20 0
BBX 19 23 1 -4
BITMAP
0FFFE0
010020
010020
020040
020040
020440
020400
040400
07FC00
040800
040800
040800
080000
080080
080080
080080
100100
100100
FFFF00
000000
078200
0CE600
083C00
ENDCHAR
STARTCHAR uni1E1B
ENCODING 7707
SWIDTH 600 0
DWIDTH 20 0
BBX 14 18 4 -4
BITMAP
07C0
1830
2008
4008
4004
8004
FFFC
8000
8000
8000
4000
4018
3060
0F80
0000
1E08
3398
20F0
ENDCHAR
STARTCHAR uni1E1C
ENCODING 7708
SWIDTH 600 0
DWIDTH 20 0
BBX 19 30 1 -5
BITMAP
030300
030300
030600
01FC00
007000
000000
0FFFE0
010020
010020
020040
020040
020440
020400
040400
07FC00
040800
040800
040800
080000
080080
080080
080080
100100
100100
FFFF00
004000
004000
00E000
023000
01E000
ENDCHAR
STARTCHAR uni1E1D
ENCODING 7709
SWIDTH 600 0
DWIDTH 20 0
BBX 14 25 4 -5
BITMAP
1818
1818
1830
0FE0
0380
0000
07C0
1830
2008
4008
4004
8004
FFFC
8000
8000
8000
4000
4018
3060
0F80
0200
0200
0700
1180
0F00
ENDCHAR
STARTCHAR uni1E1E
ENCODING 7710
SWIDTH 600 0
DWIDTH 20 0
BBX 20 23 1 0
BITMAP
001800
003800
003000
000000
0FFFF0
010010
010010
020020
020020
020420
020400
040400
07FC00
040800
040800
040800
080000
080000
080000
080000
100000
100000
FFC000
ENDCHAR
STARTCHAR uni1E1F
ENCODING 7711
SWIDTH 600 0
DWIDTH 20 0
BBX 18 24 4 0
BITMAP
001800
003800
003000
000000
001F00
0060C0
004000
008000
008000
008000
1FFE00
010000
010000
010000
020000
020000
020000
020000
040000
040000
040000
040000
080000
FFF000
ENDCHAR
STARTCHAR uni1E20
ENCODING 7712
SWIDTH 600 0
DWIDTH 20 0
BBX 17 21 4 0
BITMAP
07FE00
000000
00F080
070E80
080180
100100
200100
400100
400000
800000
800000
800000
800000
80FF00
800200
800400
800400
400400
400800
303800
0FC000
ENDCHAR
STARTCHAR uni1E21
ENCODING 7713
SWIDTH 600 0
DWIDTH 20 0
BBX 18 22 4 -6
BITMAP
0FFC00
000000
07E3C0
181200
200A00
200400
400400
400400
800400
800C00
800800
801800
402800
60C800
1F1000
001000
001000
001000
001000
002000
004000
7F8000
ENDCHAR
STARTCHAR uni1E22
ENCODING 7714
SWIDTH 600 0
DWIDTH 20 0
BBX 20 23 2 0
BITMAP
001800
003800
003000
000000
0FC3F0
020040
020040
040080
040080
040080
040080
080100
080100
0FFF00
080100
080100
100200
100200
100200
100200
200400
200400
FC3F80
ENDCHAR
STARTCHAR uni1E23
ENCODING 7715
SWIDTH 600 0
DWIDTH 20 0
BBX 17 24 2 0
BITMAP
030000
070000
060000
000000
1E0000
020000
040000
040000
040000
040000
043C00
08C200
0B0200
0C0100
080100
080100
100100
100200
100200
100200
100200
200400
200400
FC1F80
ENDCHAR
STARTCHAR uni1E24
ENCODING 7716
SWIDTH 600 0
DWIDTH 20 0
BBX 20 23 2 -4
BITMAP
0FC3F0
020040
020040
040080
040080
040080
040080
080100
080100
0FFF00
080100
080100
100200
100200
100200
100200
200400
200400
FC3F80
000000
00C000
01C000
018000
ENDCHAR
STARTCHAR uni1E25
ENCODING 7717
SWIDTH 600 0
DWIDTH 20 0
BBX 17 24 2 -4
BITMAP
1E0000
020000
040000
040000
040000
040000
043C00
08C200
0B0200
0C0100
080100
080100
100100
100200
100200
100200
100200
200400
200400
FC1F80
000000
00C000
01C000
018000
ENDCHAR
STARTCHAR uni1E26
ENCODING 7718
SWIDTH 600 0
DWIDTH 20 0
BBX 20 23 2 0
BITMAP
00C180
01C380
018300
000000
0FC3F0
020040
020040
040080
040080
040080
040080
080100
080100
0FFF00
080100
080100
100200
100200
100200
100200
200400
200400
FC3F80
ENDCHAR
STARTCHAR uni1E27
ENCODING 7719
SWIDTH 600 0
DWIDTH 20 0
BBX 17 24 2 0
BITMAP
183000
387000
306000
000000
1E0000
020000
040000
040000
040000
040000
043C00
08C200
0B0200
0C0100
080100
080100
100100
100200
100200
100200
100200
200400
200400
FC1F80
ENDCHAR
STARTCHAR uni1E28
ENCODING 7720
SWIDTH 600 0
DWIDTH 20 0
BBX 20 24 2 -5
BITMAP
0FC3F0
020040
020040
040080
040080
040080
040080
080100
080100
0FFF00
080100
080100
100200
100200
100200
100200
200400
200400
FC3F80
004000
004000
00E000
023000
01E000
ENDCHAR
STARTCHAR uni1E29
ENCODING 7721
SWIDTH 600 0
DWIDTH 20 0
BBX 17 25 2 -5
BITMAP
1E0000
020000
040000
040000
040000
040000
043C00
08C200
0B0200
0C0100
080100
080100
100100
100200
100200
100200
100200
200400
200400
FC1F80
008000
008000
01C000
046000
03C000
ENDCHAR
STARTCHAR uni1E2A
ENCODING 7722
SWIDTH 600 0
DWIDTH 20 0
BBX 20 25 2 -6
BITMAP
0FC3F0
020040
020040
040080
040080
040080
040080
080100
080100
0FFF00
080100
080100
100200
100200
100200
100200
200400
200400
FC3F80
000000
0C0C00
0C0C00
0C1800
07F000
01C000
ENDCHAR
STARTCHAR uni1E2B
ENCODING 7723
SWIDTH 600 0
DWIDTH 20 0
BBX 17 26 2 -6
BITMAP
1E0000
020000
040000
040000
040000
040000
043C00
08C200
0B0200
0C0100
080100
080100
100100
100200
100200
100200
100200
200400
200400
FC1F80
000000
0C0C00
0C0C00
0C1800
07F000
01C000
ENDCHAR
STARTCHAR uni1E2C
ENCODING 7724
SWIDTH 600 0
DWIDTH 20 0
BBX 15 23 4 -4
BITMAP
1FFE
0040
0040
0080
0080
0080
0080
0100
0100
0100
0100
0100
0200
0200
0200
0200
0400
0400
FFF0
0000
1E08
3398
20F0
ENDCHAR
STARTCHAR uni1E2D
ENCODING 7725
SWIDTH 600 0
DWIDTH 20 0
BBX 13 24 3 -4
BITMAP
0060
0060
0060
0000
0000
0000
0FC0
0040
0040
0080
0080
0080
0080
0100
0100
0100
0100
0200
0200
FFF8
0000
1E08
3398
20F0
ENDCHAR
STARTCHAR uni1E2E
ENCODING 7726
SWIDTH 600 0
DWIDTH 20 0
BBX 16 30 4 0
BITMAP
000C
0018
0070
00C0
0180
0000
0183
0387
0306
0000
0000
1FFE
0040
0040
0080
0080
0080
0080
0100
0100
0100
0100
0100
0200
0200
0200
0200
0400
0400
FFF0
ENDCHAR
STARTCHAR uni1E2F
ENCODING 7727
SWIDTH 600 0
DWIDTH 20 0
BBX 15 25 3 0
BITMAP
000C
0018
0070
00C0
0180
0000
0306
070E
060C
0000
0000
0FC0
0040
0040
0080
0080
0080
0080
0100
0100
0100
0100
0200
0200
FFF8
ENDCHAR
STARTCHAR uni1E30
ENCODING 7728
SWIDTH 600 0
DWIDTH 20 0
BBX 21 25 1 0
BITMAP
000180
000300
000E00
001800
003000
000000
0FE1F8
010020
0100C0
020100
020200
020400
021800
042000
044000
05B000
060800
040800
080800
080400
080400
080400
100400
100200
FF03C0
ENDCHAR
STARTCHAR uni1E31
ENCODING 7729
SWIDTH 600 0
DWIDTH 20 0
BBX 17 26 2 0
BITMAP
003000
006000
01C000
030000
060000
000000
0F0000
010000
020000
020000
020000
020000
021F80
040C00
041000
042000
04C000
050000
0E8000
084000
084000
082000
081000
100800
100800
F03F00
ENDCHAR
STARTCHAR uni1E32
ENCODING 7730
SWIDTH 600 0
DWIDTH 20 0
BBX 21 23 1 -4
BITMAP
0FE1F8
010020
0100C0
020100
020200
020400
021800
042000
044000
05B000
060800
040800
080800
080400
080400
080400
100400
100200
FF03C0
000000
00C000
01C000
018000
ENDCHAR
STARTCHAR uni1E33
ENCODING 7731
SWIDTH 600 0
DWIDTH 20 0
BBX 17 24 2 -4
BITMAP
0F0000
010000
020000
020000
020000
020000
021F80
040C00
041000
042000
04C000
050000
0E8000
084000
084000
082000
081000
100800
100800
F03F00
000000
018000
038000
030000
ENDCHAR
STARTCHAR uni1E34
ENCODING 7732
SWIDTH 600 0
DWIDTH 20 0
BBX 21 21 1 -2
BITMAP
0FE1F8
010020
0100C0
020100
020200
020400
021800
042000
044000
05B000
060800
040800
080800
080400
080400
080400
100400
100200
FF03C0
000000
0FFC00
ENDCHAR
STARTCHAR uni1E35
ENCODING 7733
SWIDTH 600 0
DWIDTH 20 0
BBX 17 22 2 -2
BITMAP
0F0000
010000
020000
020000
020000
020000
021F80
040C00
041000
042000
04C000
050000
0E8000
084000
084000
082000
081000
100800
100800
F03F00
000000
1FF800
ENDCHAR
STARTCHAR uni1E36
ENCODING 7734
SWIDTH 600 0
DWIDTH 20 0
BBX 17 23 2 -4
BITMAP
0FF800
008000
008000
010000
010000
010000
010000
020000
020000
020000
020000
020000
040080
040080
040080
040100
080100
080100
FFFF00
000000
00C000
01C000
018000
ENDCHAR
STARTCHAR uni1E37
ENCODING 7735
SWIDTH 600 0
DWIDTH 20 0
BBX 13 24 3 -4
BITMAP
0FE0
0020
0040
0040
0040
0040
0040
0080
0080
0080
0080
0080
0100
0100
0100
0100
0100
0200
0200
FFF8
0000
0300
0700
0600
ENDCHAR
STARTCHAR uni1E38
ENCODING 7736
SWIDTH 600 0
DWIDTH 20 0
BBX 17 25 2 -4
BITMAP
1FF800
000000
0FF800
008000
008000
010000
010000
010000
010000
020000
020000
020000
020000
020000
040080
040080
040080
040100
080100
080100
FFFF00
000000
00C000
01C000
018000
ENDCHAR
STARTCHAR uni1E39
ENCODING 7737
SWIDTH 600 0
DWIDTH 20 0
BBX 13 26 3 -4
BITMAP
1FF8
0000
0FE0
0020
0040
0040
0040
0040
0040
0080
0080
0080
0080
0080
0100
0100
0100
0100
0100
0200
0200
FFF8
0000
0300
0700
0600
ENDCHAR
STARTCHAR uni1E3A
ENCODING 7738
SWIDTH 600 0
DWIDTH 20 0
BBX 17 21 2 -2
BITMAP
0FF800
008000
008000
010000
010000
010000
010000
020000
020000
020000
020000
020000
040080
040080
040080
040100
080100
080100
FFFF00
000000
0FFC00
ENDCHAR
STARTCHAR uni1E3B
ENCODING 7739
SWIDTH 600 0
DWIDTH 20 0
BBX 13 22 3 -2
BITMAP
0FE0
0020
0040
0040
0040
0040
0040
0080
0080
0080
0080
0080
0100
0100
0100
0100
0100
0200
0200
FFF8
0000
3FF0
ENDCHAR
STARTCHAR uni1E3C
ENCODING 7740
SWIDTH 600 0
DWIDTH 20 0
BBX 17 25 2 -6
BITMAP
0FF800
008000
008000
010000
010000
010000
010000
020000
020000
020000
020000
020000
040080
040080
040080
040100
080100
080100
FFFF00
000000
008000
01C000
076000
0C3000
181800
ENDCHAR
STARTCHAR uni1E3D
ENCODING 7741
SWIDTH 600 0
DWIDTH 20 0
BBX 13 26 3 -6
BITMAP
0FE0
0020
0040
0040
0040
0040
0040
0080
0080
0080
0080
0080
0100
0100
0100
0100
0100
0200
0200
FFF8
0000
0200
0700
1D80
30C0
6060
ENDCHAR
STARTCHAR uni1E3E
ENCODING 7742
SWIDTH 600 0
DWIDTH 20 0
BBX 22 25 1 0
BITMAP
000180
000300
000E00
001800
003000
000000
0F003C
030050
028050
0480A0
048120
048120
044220
084440
084440
084840
083040
083040
102080
100080
100080
100080
200100
200100
FC0FC0
ENDCHAR
STARTCHAR uni1E3F
ENCODING 7743
SWIDTH 600 0
DWIDTH 20 0
BBX 19 20 1 0
BITMAP
000600
000C00
003800
006000
00C000
000000
1CE1C0
051220
061420
0C1820
081020
081020
081040
102040
102040
102040
102040
204080
204080
F870E0
ENDCHAR
STARTCHAR uni1E40
ENCODING 7744
SWIDTH 600 0
DWIDTH 20 0
BBX 22 23 1 0
BITMAP
000C00
001C00
001800
000000
0F003C
030050
028050
0480A0
048120
048120
044220
084440
084440
084840
083040
083040
102080
100080
100080
100080
200100
200100
FC0FC0
ENDCHAR
STARTCHAR uni1E41
ENCODING 7745
SWIDTH 600 0
DWIDTH 20 0
BBX 19 18 1 0
BITMAP
003000
007000
006000
000000
1CE1C0
051220
061420
0C1820
081020
081020
081040
102040
102040
102040
102040
204080
204080
F870E0
ENDCHAR
STARTCHAR uni1E42
ENCODING 7746
SWIDTH 600 0
DWIDTH 20 0
BBX 22 23 1 -4
BITMAP
0F003C
030050
028050
0480A0
048120
048120
044220
084440
084440
084840
083040
083040
102080
100080
100080
100080
200100
200100
FC0FC0
000000
006000
00E000
00C000
ENDCHAR
STARTCHAR uni1E43
ENCODING 7747
SWIDTH 600 0
DWIDTH 20 0
BBX 19 18 1 -4
BITMAP
1CE1C0
051220
061420
0C1820
081020
081020
081040
102040
102040
102040
102040
204080
204080
F870E0
000000
006000
00E000
00C000
ENDCHAR
STARTCHAR uni1E44
ENCODING 7748
SWIDTH 600 0
DWIDTH 20 0
BBX 20 23 2 0
BITMAP
001800
003800
003000
000000
1F03F0
030040
028040
048080
048080
048080
044080
084100
084100
084100
082100
082100
102200
101200
101200
101200
201400
200C00
FC0C00
ENDCHAR
STARTCHAR uni1E45
ENCODING 7749
SWIDTH 600 0
DWIDTH 20 0
BBX 16 18 2 0
BITMAP
00C0
01C0
0180
0000
1C3C
04C2
0502
0E01
0801
0801
0801
1002
1002
1002
1002
2004
2004
FC1F
ENDCHAR
STARTCHAR uni1E46
ENCODING 7750
SWIDTH 600 0
DWIDTH 20 0
BBX 20 23 2 -4
BITMAP
1F03F0
030040
028040
048080
048080
048080
044080
084100
084100
084100
082100
082100
102200
101200
101200
101200
201400
200C00
FC0C00
000000
00C000
01C000
018000
ENDCHAR
STARTCHAR uni1E47
ENCODING 7751
SWIDTH 600 0
DWIDTH 20 0
BBX 16 18 2 -4
BITMAP
1C3C
04C2
0502
0E01
0801
0801
0801
1002
1002
1002
1002
2004
2004
FC1F
0000
0180
0380
0300
ENDCHAR
STARTCHAR uni1E48
ENCODING 7752
SWIDTH 600 0
DWIDTH 20 0
BBX 20 21 2 -2
BITMAP
1F03F0
030040
028040
048080
048080
048080
044080
084100
084100
084100
082100
082100
102200
101200
101200
101200
201400
200C00
FC0C00
000000
0FFC00
ENDCHAR
STARTCHAR uni1E49
ENCODING 7753
SWIDTH 600 0
DWIDTH 20 0
BBX 16 16 2 -2
BITMAP
1C3C
04C2
0502
0E01
0801
0801
0801
1002
1002
1002
1002
2004
2004
FC1F
0000
1FF8
ENDCHAR
STARTCHAR uni1E4A
ENCODING 7754
SWIDTH 600 0
DWIDTH 20 0
BBX 20 25 2 -6
BITMAP
1F03F0
030040
028040
048080
048080
048080
044080
084100
084100
084100
082100
082100
102200
101200
101200
101200
201400
200C00
FC0C00
000000
008000
01C000
076000
0C3000
181800
ENDCHAR
STARTCHAR uni1E4B
ENCODING 7755
SWIDTH 600 0
DWIDTH 20 0
BBX 16 20 2 -6
BITMAP
1C3C
04C2
0502
0E01
0801
0801
0801
1002
1002
1002
1002
2004
2004
FC1F
0000
0080
01C0
0760
0C30
1818
ENDCHAR
STARTCHAR uni1E4C
ENCODING 7756
SWIDTH 600 0
DWIDTH 20 0
BBX 16 30 4 0
BITMAP
000C
0018
0070
00C0
0180
0000
0782
0DF6
083C
0000
0000
01F0
0608
1804
2002
2002
4001
4001
4001
8001
8001
8001
8002
8002
8002
4004
4004
2018
1060
0F80
ENDCHAR
STARTCHAR uni1E4D
ENCODING 7757
SWIDTH 600 0
DWIDTH 20 0
BBX 15 25 4 0
BITMAP
000C
0018
0070
00C0
0180
0000
0782
0DF6
083C
0000
0000
03F0
0C08
1004
2004
2002
4002
4002
8004
8004
8008
4008
4010
2060
1F80
ENDCHAR
STARTCHAR uni1E4E
ENCODING 7758
SWIDTH 600 0
DWIDTH 20 0
BBX 16 28 4 0
BITMAP
060C
0E1C
0C18
0000
0782
0DF6
083C
0000
0000
01F0
0608
1804
2002
2002
4001
4001
4001
8001
8001
8001
8002
8002
8002
4004
4004
2018
1060
0F80
ENDCHAR
STARTCHAR uni1E4F
ENCODING 7759
SWIDTH 600 0
DWIDTH 20 0
BBX 15 23 4 0
BITMAP
060C
0E1C
0C18
0000
0782
0DF6
083C
0000
0000
03F0
0C08
1004
2004
2002
4002
4002
8004
8004
8008
4008
4010
2060
1F80
ENDCHAR
STARTCHAR uni1E50
ENCODING 7760
SWIDTH 600 0
DWIDTH 20 0
BBX 16 27 4 0
BITMAP
0C00
0600
0300
0180
00C0
0000
1FF8
0000
01F0
0608
1804
2002
2002
4001
4001
4001
8001
8001
8001
8002
8002
8002
4004
4004
2018
1060
0F80
ENDCHAR
STARTCHAR uni1E51
ENCODING 7761
SWIDTH 600 0
DWIDTH 20 0
BBX 15 22 4 0
BITMAP
0C00
0600
0300
0180
00C0
0000
1FF8
0000
03F0
0C08
1004
2004
2002
4002
4002
8004
8004
8008
4008
4010
2060
1F80
ENDCHAR
STARTCHAR uni1E52
ENCODING 7762
SWIDTH 600 0
DWIDTH 20 0
BBX 16 27 4 0
BITMAP
0018
0030
00E0
0180
0300
0000
1FF8
0000
01F0
0608
1804
2002
2002
4001
4001
4001
8001
8001
8001
8002
8002
8002
4004
4004
2018
1060
0F80
ENDCHAR
STARTCHAR uni1E53
ENCODING 7763
SWIDTH 600 0
DWIDTH 20 0
BBX 15 22 4 0
BITMAP
0018
0030
00E0
0180
0300
0000
1FF8
0000
03F0
0C08
1004
2004
2002
4002
4002
8004
8004
8008
4008
4010
2060
1F80
ENDCHAR
STARTCHAR uni1E54
ENCODING 7764
SWIDTH 600 0
DWIDTH 20 0
BBX 18 25 1 0
BITMAP
000600
000C00
003800
006000
00C000
000000
0FFE00
010180
010040
020040
020040
020040
020040
040080
040100
040600
07F800
040000
080000
080000
080000
080000
100000
100000
FFC000
ENDCHAR
STARTCHAR uni1E55
ENCODING 7765
SWIDTH 600 0
DWIDTH 20 0
BBX 19 26 0 -6
BITMAP
000600
000C00
003800
006000
00C000
000000
0F0F00
0130C0
014040
018040
030020
020020
020020
060020
040020
040040
060040
060080
058300
087C00
080000
080000
080000
100000
100000
FF0000
ENDCHAR
STARTCHAR uni1E56
ENCODING 7766
SWIDTH 600 0
DWIDTH 20 0
BBX 18 23 1 0
BITMAP
003000
007000
006000
000000
0FFE00
010180
010040
020040
020040
020040
020040
040080
040100
040600
07F800
040000
080000
080000
080000
080000
100000
100000
FFC000
ENDCHAR
STARTCHAR uni1E57
ENCODING 7767
SWIDTH 600 0
DWIDTH 20 0
BBX 19 24 0 -6
BITMAP
003000
007000
006000
000000
0F0F00
0130C0
014040
018040
030020
020020
020020
060020
040020
040040
060040
060080
058300
087C00
080000
080000
080000
100000
100000
FF0000
ENDCHAR
STARTCHAR uni1E58
ENCODING 7768
SWIDTH 600 0
DWIDTH 20 0
BBX 19 23 1 0
BITMAP
003000
007000
006000
000000
0FFE00
010180
010040
020040
020040
020040
020080
040100
040E00
07F000
041800
040400
080400
080200
080200
080100
100100
100080
FF00E0
ENDCHAR
STARTCHAR uni1E59
ENCODING 7769
SWIDTH 600 0
DWIDTH 20 0
BBX 17 18 3 0
BITMAP
006000
00E000
00C000
000000
1F0F00
013080
01C000
030000
020000
020000
020000
040000
040000
040000
040000
080000
080000
FFF000
ENDCHAR
STARTCHAR uni1E5A
ENCODING 7770
SWIDTH 600 0
DWIDTH 20 0
BBX 19 23 1 -4
BITMAP
0FFE00
010180
010040
020040
020040
020040
020080
040100
040E00
07F000
041800
040400
080400
080200
080200
080100
100100
100080
FF00E0
000000
00C000
01C000
018000
ENDCHAR
STARTCHAR uni1E5B
ENCODING 7771
SWIDTH 600 0
DWIDTH 20 0
BBX 17 18 3 -4
BITMAP
1F0F00
013080
01C000
030000
020000
020000
020000
040000
040000
040000
040000
080000
080000
FFF000
000000
030000
070000
060000
ENDCHAR
STARTCHAR uni1E5C
ENCODING 7772
SWIDTH 600 0
DWIDTH 20 0
BBX 19 25 1 -4
BITMAP
07FE00
000000
0FFE00
010180
010040
020040
020040
020040
020080
040100
040E00
07F000
041800
040400
080400
080200
080200
080100
100100
100080
FF00E0
000000
00C000
01C000
018000
ENDCHAR
STARTCHAR uni1E5D
ENCODING 7773
SWIDTH 600 0
DWIDTH 20 0
BBX 17 20 3 -4
BITMAP
0FFC00
000000
1F0F00
013080
01C000
030000
020000
020000
020000
040000
040000
040000
040000
080000
080000
FFF000
000000
030000
070000
060000
ENDCHAR
STARTCHAR uni1E5E
ENCODING 7774
SWIDTH 600 0
DWIDTH 20 0
BBX 19 21 1 -2
BITMAP
0FFE00
010180
010040
020040
020040
020040
020080
040100
040E00
07F000
041800
040400
080400
080200
080200
080100
100100
100080
FF00E0
000000
0FFC00
ENDCHAR
STARTCHAR uni1E5F
ENCODING 7775
SWIDTH 600 0
DWIDTH 20 0
BBX 17 16 3 -2
BITMAP
1F0F00
013080
01C000
030000
020000
020000
020000
040000
040000
040000
040000
080000
080000
FFF000
000000
3FF000
ENDCHAR
STARTCHAR uni1E60
ENCODING 7776
SWIDTH 600 0
DWIDTH 20 0
BBX 17 23 3 0
BITMAP
003000
007000
006000
000000
00F880
030680
040180
040100
080100
080100
080000
080000
060000
01C000
003800
000400
000200
400200
400200
400400
600400
B03800
8FC000
ENDCHAR
STARTCHAR uni1E61
ENCODING 7777
SWIDTH 600 0
DWIDTH 20 0
BBX 15 18 4 0
BITMAP
0060
00E0
00C0
0000
01E2
061A
0804
1004
1000
0C00
0380
0070
0008
4004
4004
4008
B030
8FC0
ENDCHAR
STARTCHAR uni1E62
ENCODING 7778
SWIDTH 600 0
DWIDTH 20 0
BBX 17 23 3 -4
BITMAP
00F880
030680
040180
040100
080100
080100
080000
080000
060000
01C000
003800
000400
000200
400200
400200
400400
600400
B03800
8FC000
000000
030000
070000
060000
ENDCHAR
STARTCHAR uni1E63
ENCODING 7779
SWIDTH 600 0
DWIDTH 20 0
BBX 15 18 4 -4
BITMAP
01E2
061A
0804
1004
1000
0C00
0380
0070
0008
4004
4004
4008
B030
8FC0
0000
0300
0700
0600
ENDCHAR
STARTCHAR uni1E64
ENCODING 7780
SWIDTH 600 0
DWIDTH 20 0
BBX 17 29 3 0
BITMAP
003000
007000
006000
000000
000600
000C00
003800
006000
00C000
000000
00F880
030680
040180
040100
080100
080100
080000
080000
060000
01C000
003800
000400
000200
400200
400200
400400
600400
B03800
8FC000
ENDCHAR
STARTCHAR uni1E65
ENCODING 7781
SWIDTH 600 0
DWIDTH 20 0
BBX 15 24 4 0
BITMAP
0060
00E0
00C0
0000
000C
0018
0070
00C0
0180
0000
01E2
061A
0804
1004
1000
0C00
0380
0070
0008
4004
4004
4008
B030
8FC0
ENDCHAR
STARTCHAR uni1E66
ENCODING 7782
SWIDTH 600 0
DWIDTH 20 0
BBX 17 30 3 0
BITMAP
001800
003800
003000
000000
018180
00C300
006E00
003800
001000
000000
000000
00F880
030680
040180
040100
080100
080100
080000
080000
060000
01C000
003800
000400
000200
400200
400200
400400
600400
B03800
8FC000
ENDCHAR
STARTCHAR uni1E67
ENCODING 7783
SWIDTH 600 0
DWIDTH 20 0
BBX 15 26 4 0
BITMAP
0060
00E0
00C0
0000
0606
030C
01B8
00E0
0040
0000
0000
0000
01E2
061A
0804
1004
1000
0C00
0380
0070
0008
4004
4004
4008
B030
8FC0
ENDCHAR
STARTCHAR uni1E68
ENCODING 7784
SWIDTH 600 0
DWIDTH 20 0
BBX 17 27 3 -4
BITMAP
003000
007000
006000
000000
00F880
030680
040180
040100
080100
080100
080000
080000
060000
01C000
003800
000400
000200
400200
400200
400400
600400
B03800
8FC000
000000
030000
070000
060000
ENDCHAR
STARTCHAR uni1E69
ENCODING 7785
SWIDTH 600 0
DWIDTH 20 0
BBX 15 22 4 -4
BITMAP
0060
00E0
00C0
0000
01E2
061A
0804
1004
1000
0C00
0380
0070
0008
4004
4004
4008
B030
8FC0
0000
0300
0700
0600
ENDCHAR
STARTCHAR uni1E6A
ENCODING 7786
SWIDTH 600 0
DWIDTH 20 0
BBX 16 23 5 0
BITMAP
00C0
01C0
0180
0000
3FFF
2081
2081
4102
4102
4102
4102
0200
0200
0200
0200
0200
0400
0400
0400
0400
0800
0800
FFC0
ENDCHAR
STARTCHAR uni1E6B
ENCODING 7787
SWIDTH 600 0
DWIDTH 20 0
BBX 13 23 4 0
BITMAP
0600
0E00
0C00
0000
0400
0400
0400
0800
0800
FFF8
0800
0800
1000
1000
1000
1000
1000
2000
2000
2000
1008
1030
0FC0
ENDCHAR
STARTCHAR uni1E6C
ENCODING 7788
SWIDTH 600 0
DWIDTH 20 0
BBX 16 23 5 -4
BITMAP
3FFF
2081
2081
4102
4102
4102
4102
0200
0200
0200
0200
0200
0400
0400
0400
0400
0800
0800
FFC0
0000
0600
0E00
0C00
ENDCHAR
STARTCHAR uni1E6D
ENCODING 7789
SWIDTH 600 0
DWIDTH 20 0
BBX 13 23 4 -4
BITMAP
0400
0400
0400
0800
0800
FFF8
0800
0800
1000
1000
1000
1000
1000
2000
2000
2000
1008
1030
0FC0
0000
0300
0700
0600
ENDCHAR
STARTCHAR uni1E6E
ENCODING 7790
SWIDTH 600 0
DWIDTH 20 0
BBX 16 21 5 -2
BITMAP
3FFF
2081
2081
4102
4102
4102
4102
0200
0200
0200
0200
0200
0400
0400
0400
0400
0800
0800
FFC0
0000
7FE0
ENDCHAR
STARTCHAR uni1E6F
ENCODING 7791
SWIDTH 600 0
DWIDTH 20 0
BBX 13 21 4 -2
BITMAP
0400
0400
0400
0800
0800
FFF8
0800
0800
1000
1000
1000
1000
1000
2000
2000
2000
1008
1030
0FC0
0000
3FF0
ENDCHAR
STARTCHAR uni1E70
ENCODING 7792
SWIDTH 600 0
DWIDTH 20 0
BBX 16 25 5 -6
BITMAP
3FFF
2081
2081
4102
4102
4102
4102
0200
0200
0200
0200
0200
0400
0400
0400
0400
0800
0800
FFC0
0000
0200
0700
1D80
30C0
6060
ENDCHAR
STARTCHAR uni1E71
ENCODING 7793
SWIDTH 600 0
DWIDTH 20 0
BBX 13 25 4 -6
BITMAP
0400
0400
0400
0800
0800
FFF8
0800
0800
1000
1000
1000
1000
1000
2000
2000
2000
1008
1030
0FC0
0000
0200
0700
1D80
30C0
6060
ENDCHAR
STARTCHAR uni1E72
ENCODING 7794
SWIDTH 600 0
DWIDTH 20 0
BBX 17 23 5 -4
BITMAP
7E1F80
100200
100200
200400
200400
200400
200400
400800
400800
400800
400800
801000
801000
801000
802000
402000
404000
208000
1F0000
000000
306000
70E000
60C000
ENDCHAR
STARTCHAR uni1E73
ENCODING 7795
SWIDTH 600 0
DWIDTH 20 0
BBX 15 18 4 -4
BITMAP
F03E
1002
1002
2004
2004
2004
2004
2008
4008
4008
4008
4030
20D0
1F1C
0000
1830
3870
3060
ENDCHAR
STARTCHAR uni1E74
ENCODING 7796
SWIDTH 600 0
DWIDTH 20 0
BBX 17 23 5 -4
BITMAP
7E1F80
100200
100200
200400
200400
200400
200400
400800
400800
400800
400800
801000
801000
801000
802000
402000
404000
208000
1F0000
000000
1E0800
339800
20F000
ENDCHAR
STARTCHAR uni1E75
ENCODING 7797
SWIDTH 600 0
DWIDTH 20 0
BBX 15 18 4 -4
BITMAP
F03E
1002
1002
2004
2004
2004
2004
2008
4008
4008
4008
4030
20D0
1F1C
0000
0F04
19CC
1078
ENDCHAR
STARTCHAR uni1E76
ENCODING 7798
SWIDTH 600 0
DWIDTH 20 0
BBX 17 25 5 -6
BITMAP
7E1F80
100200
100200
200400
200400
200400
200400
400800
400800
400800
400800
801000
801000
801000
802000
402000
404000
208000
1F0000
000000
020000
070000
1D8000
30C000
606000
ENDCHAR
STARTCHAR uni1E77
ENCODING 7799
SWIDTH 600 0
DWIDTH 20 0
BBX 15 20 4 -6
BITMAP
F03E
1002
1002
2004
2004
2004
2004
2008
4008
4008
4008
4030
20D0
1F1C
0000
0100
0380
0EC0
1860
3030
ENDCHAR
STARTCHAR uni1E78
ENCODING 7800
SWIDTH 600 0
DWIDTH 20 0
BBX 17 29 5 0
BITMAP
001800
003000
00E000
018000
030000
000000
0F0400
19CC00
107800
000000
7E1F80
100200
100200
200400
200400
200400
200400
400800
400800
400800
400800
801000
801000
801000
802000
402000
404000
208000
1F0000
ENDCHAR
STARTCHAR uni1E79
ENCODING 7801
SWIDTH 600 0
DWIDTH 20 0
BBX 15 24 4 0
BITMAP
0030
0060
01C0
0300
0600
0000
1E08
3398
20F0
0000
F03E
1002
1002
2004
2004
2004
2004
2008
4008
4008
4008
4030
20D0
1F1C
ENDCHAR
STARTCHAR uni1E7A
ENCODING 7802
SWIDTH 600 0
DWIDTH 20 0
BBX 17 25 5 0
BITMAP
060C00
0E1C00
0C1800
000000
0FFC00
000000
7E1F80
100200
100200
200400
200400
200400
200400
400800
400800
400800
400800
801000
801000
801000
802000
402000
404000
208000
1F0000
ENDCHAR
STARTCHAR uni1E7B
ENCODING 7803
SWIDTH 600 0
DWIDTH 20 0
BBX 15 20 4 0
BITMAP
0C18
1C38
1830
0000
1FF8
0000
F03E
1002
1002
2004
2004
2004
2004
2008
4008
4008
4008
4030
20D0
1F1C
ENDCHAR
STARTCHAR uni1E7C
ENCODING 7804
SWIDTH 600 0
DWIDTH 20 0
BBX 19 23 4 0
BITMAP
0F0400
19CC00
107800
000000
FC0FE0
200100
200100
200200
100200
100400
100400
100800
101000
101000
082000
084000
084000
088000
088000
090000
050000
060000
060000
ENDCHAR
STARTCHAR uni1E7D
ENCODING 7805
SWIDTH 600 0
DWIDTH 20 0
BBX 17 18 4 0
BITMAP
1E0800
339800
20F000
000000
FC1F80
200400
200400
200800
100800
101000
102000
102000
104000
108000
088000
090000
0A0000
0E0000
ENDCHAR
STARTCHAR uni1E7E
ENCODING 7806
SWIDTH 600 0
DWIDTH 20 0
BBX 19 23 4 -4
BITMAP
FC0FE0
200100
200100
200200
100200
100400
100400
100800
101000
101000
082000
084000
084000
088000
088000
090000
050000
060000
060000
000000
030000
070000
060000
ENDCHAR
STARTCHAR uni1E7F
ENCODING 7807
SWIDTH 600 0
DWIDTH 20 0
BBX 17 18 4 -4
BITMAP
FC1F80
200400
200400
200800
100800
101000
102000
102000
104000
108000
088000
090000
0A0000
0E0000
000000
030000
070000
060000
ENDCHAR
STARTCHAR Wgrave
ENCODING 7808
SWIDTH 600 0
DWIDTH 20 0
BBX 19 25 4 0
BITMAP
060000
030000
018000
00C000
006000
000000
FE0FE0
200080
200100
200100
21C100
414200
424200
424200
444400
444400
484400
484800
484800
504800
905000
A05000
A05000
C06000
C06000
ENDCHAR
STARTCHAR wgrave
ENCODING 7809
SWIDTH 600 0
DWIDTH 20 0
BBX 17 20 4 0
BITMAP
0C0000
060000
030000
018000
00C000
000000
F80F80
400100
400100
400200
410200
430400
428400
448800
448800
489000
489000
50A000
50A000
60C000
ENDCHAR
STARTCHAR Wacute
ENCODING 7810
SWIDTH 600 0
DWIDTH 20 0
BBX 19 25 4 0
BITMAP
000C00
001800
007000
00C000
018000
000000
FE0FE0
200080
200100
200100
21C100
414200
424200
424200
444400
444400
484400
484800
484800
504800
905000
A05000
A05000
C06000
C06000
ENDCHAR
STARTCHAR wacute
ENCODING 7811
SWIDTH 600 0
DWIDTH 20 0
BBX 17 20 4 0
BITMAP
001800
003000
00E000
018000
030000
000000
F80F80
400100
400100
400200
410200
430400
428400
448800
448800
489000
489000
50A000
50A000
60C000
ENDCHAR
STARTCHAR Wdieresis
ENCODING 7812
SWIDTH 600 0
DWIDTH 20 0
BBX 19 23 4 0
BITMAP
030600
070E00
060C00
000000
FE0FE0
200080
200100
200100
21C100
414200
424200
424200
444400
444400
484400
484800
484800
504800
905000
A05000
A05000
C06000
C06000
ENDCHAR
STARTCHAR wdieresis
ENCODING 7813
SWIDTH 600 0
DWIDTH 20 0
BBX 17 18 4 0
BITMAP
060C00
0E1C00
0C1800
000000
F80F80
400100
400100
400200
410200
430400
428400
448800
448800
489000
489000
50A000
50A000
60C000
ENDCHAR
STARTCHAR uni1E86
ENCODING 7814
SWIDTH 600 0
DWIDTH 20 0
BBX 19 23 4 0
BITMAP
006000
00E000
00C000
000000
FE0FE0
200080
200100
200100
21C100
414200
424200
424200
444400
444400
484400
484800
484800
504800
905000
A05000
A05000
C06000
C06000
ENDCHAR
STARTCHAR uni1E87
ENCODING 7815
SWIDTH 600 0
DWIDTH 20 0
BBX 17 18 4 0
BITMAP
00C000
01C000
018000
000000
F80F80
400100
400100
400200
410200
430400
428400
448800
448800
489000
489000
50A000
50A000
60C000
ENDCHAR
STARTCHAR uni1E88
ENCODING 7816
SWIDTH 600 0
DWIDTH 20 0
BBX 19 23 4 -4
BITMAP
FE0FE0
200080
200100
200100
21C100
414200
424200
424200
444400
444400
484400
484800
484800
504800
905000
A05000
A05000
C06000
C06000
000000
030000
070000
060000
ENDCHAR
STARTCHAR uni1E89
ENCODING 7817
SWIDTH 600 0
DWIDTH 20 0
BBX 17 18 4 -4
BITMAP
F80F80
400100
400100
400200
410200
430400
428400
448800
448800
489000
489000
50A000
50A000
60C000
000000
030000
070000
060000
ENDCHAR
STARTCHAR uni1E8A
ENCODING 7818
SWIDTH 600 0
DWIDTH 20 0
BBX 21 23 1 0
BITMAP
000C00
001C00
001800
000000
0F81F8
020020
020040
010080
010100
008200
008400
004800
005000
002000
005000
009000
010800
020800
040400
080400
100200
200200
FC1F80
ENDCHAR
STARTCHAR uni1E8B
ENCODING 7819
SWIDTH 600 0
DWIDTH 20 0
BBX 19 18 1 0
BITMAP
001800
003800
003000
000000
0F83E0
020080
010300
010400
008800
005000
006000
00A000
011000
020800
040400
180400
200200
FC1F80
ENDCHAR
STARTCHAR uni1E8C
ENCODING 7820
SWIDTH 600 0
DWIDTH 20 0
BBX 21 23 1 0
BITMAP
00C180
01C380
018300
000000
0F81F8
020020
020040
010080
010100
008200
008400
004800
005000
002000
005000
009000
010800
020800
040400
080400
100200
200200
FC1F80
ENDCHAR
STARTCHAR uni1E8D
ENCODING 7821
SWIDTH 600 0
DWIDTH 20 0
BBX 19 18 1 0
BITMAP
018300
038700
030600
000000
0F83E0
020080
010300
010400
008800
005000
006000
00A000
011000
020800
040400
180400
200200
FC1F80
ENDCHAR
STARTCHAR uni1E8E
ENCODING 7822
SWIDTH 600 0
DWIDTH 20 0
BBX 17 23 5 0
BITMAP
00C000
01C000
018000
000000
F81F80
200400
100800
100800
081000
082000
084000
048000
048000
030000
020000
020000
020000
040000
040000
040000
040000
080000
FFC000
ENDCHAR
STARTCHAR uni1E8F
ENCODING 7823
SWIDTH 600 0
DWIDTH 20 0
BBX 20 24 0 -6
BITMAP
001800
003800
003000
000000
1F81F0
040040
020040
020080
020100
010100
010200
010400
010400
008800
009000
00A000
006000
004000
008000
008000
010000
020000
020000
FFC000
ENDCHAR
STARTCHAR uni1E90
ENCODING 7824
SWIDTH 600 0
DWIDTH 20 0
BBX 16 25 3 0
BITMAP
0040
00E0
03B0
0618
0C0C
0000
07FF
0401
0402
0804
0808
0808
0010
0020
0040
0080
0100
0200
0404
0404
0804
1008
2008
4008
FFF8
ENDCHAR
STARTCHAR uni1E91
ENCODING 7825
SWIDTH 600 0
DWIDTH 20 0
BBX 14 20 4 0
BITMAP
0080
01C0
0760
0C30
1818
0000
1FFC
1008
2010
2020
0040
0080
0100
0200
0400
0800
1008
2008
4010
FFF0
ENDCHAR
STARTCHAR uni1E92
ENCODING 7826
SWIDTH 600 0
DWIDTH 20 0
BBX 16 23 3 -4
BITMAP
07FF
0401
0402
0804
0808
0808
0010
0020
0040
0080
0100
0200
0404
0404
0804
1008
2008
4008
FFF8
0000
0180
0380
0300
ENDCHAR
STARTCHAR uni1E93
ENCODING 7827
SWIDTH 600 0
DWIDTH 20 0
BBX 14 18 4 -4
BITMAP
1FFC
1008
2010
2020
0040
0080
0100
0200
0400
0800
1008
2008
4010
FFF0
0000
0300
0700
0600
ENDCHAR
STARTCHAR uni1E94
ENCODING 7828
SWIDTH 600 0
DWIDTH 20 0
BBX 16 21 3 -2
BITMAP
07FF
0401
0402
0804
0808
0808
0010
0020
0040
0080
0100
0200
0404
0404
0804
1008
2008
4008
FFF8
0000
3FF0
ENDCHAR
STARTCHAR uni1E95
ENCODING 7829
SWIDTH 600 0
DWIDTH 20 0
BBX 14 16 4 -2
BITMAP
1FFC
1008
2010
2020
0040
0080
0100
0200
0400
0800
1008
2008
4010
FFF0
0000
3FF0
ENDCHAR
STARTCHAR uni1E96
ENCODING 7830
SWIDTH 600 0
DWIDTH 20 0
BBX 17 22 2 -2
BITMAP
1E0000
020000
040000
040000
040000
040000
043C00
08C200
0B0200
0C0100
080100
080100
100100
100200
100200
100200
100200
200400
200400
FC1F80
000000
0FFC00
ENDCHAR
STARTCHAR uni1E97
ENCODING 7831
SWIDTH 600 0
DWIDTH 20 0
BBX 13 23 4 0
BITMAP
3060
70E0
60C0
0000
0400
0400
0400
0800
0800
FFF8
0800
0800
1000
1000
1000
1000
1000
2000
2000
2000
1008
1030
0FC0
ENDCHAR
STARTCHAR uni1E98
ENCODING 7832
SWIDTH 600 0
DWIDTH 20 0
BBX 17 21 4 0
BITMAP
00E000
011000
021000
021000
022000
01C000
000000
F80F80
400100
400100
400200
410200
430400
428400
448800
448800
489000
489000
50A000
50A000
60C000
ENDCHAR
STARTCHAR uni1E99
ENCODING 7833
SWIDTH 600 0
DWIDTH 20 0
BBX 20 27 0 -6
BITMAP
003800
004400
008400
008400
008800
007000
000000
1F81F0
040040
020040
020080
020100
010100
010200
010400
010400
008800
009000
00A000
006000
004000
008000
008000
010000
020000
020000
FFC000
ENDCHAR
STARTCHAR uni1EA0
ENCODING 7840
SWIDTH 600 0
DWIDTH 20 0
BBX 19 23 0 -4
BITMAP
01FE00
001200
001200
002200
002200
004100
004100
008100
008100
010100
020100
020100
07FF00
040100
080080
080080
100080
100080
FE07E0
000000
006000
00E000
00C000
ENDCHAR
STARTCHAR uni1EA1
ENCODING 7841
SWIDTH 600 0
DWIDTH 20 0
BBX 14 18 4 -4
BITMAP
07C0
1830
0008
0008
0008
0008
0F88
3070
4010
4010
8010
8020
80E0
7F3C
0000
0300
0700
0600
ENDCHAR
STARTCHAR uni1EA4
ENCODING 7844
SWIDTH 600 0
DWIDTH 20 0
BBX 19 32 0 0
BITMAP
000180
000300
000E00
001800
003000
000000
000400
000E00
003B00
006180
00C0C0
000000
000000
01FE00
001200
001200
002200
002200
004100
004100
008100
008100
010100
020100
020100
07FF00
040100
080080
080080
100080
100080
FE07E0
ENDCHAR
STARTCHAR uni1EA5
ENCODING 7845
SWIDTH 600 0
DWIDTH 20 0
BBX 14 27 4 0
BITMAP
0018
0030
00E0
0180
0300
0000
0040
00E0
03B0
0618
0C0C
0000
0000
03C0
1C30
0010
0008
0008
0008
0F88
3070
4010
4010
8010
8060
80A0
7F3C
ENDCHAR
STARTCHAR uni1EA6
ENCODING 7846
SWIDTH 600 0
DWIDTH 20 0
BBX 19 32 0 0
BITMAP
00C000
006000
003000
001800
000C00
000000
000400
000E00
003B00
006180
00C0C0
000000
000000
01FE00
001200
001200
002200
002200
004100
004100
008100
008100
010100
020100
020100
07FF00
040100
080080
080080
100080
100080
FE07E0
ENDCHAR
STARTCHAR uni1EA7
ENCODING 7847
SWIDTH 600 0
DWIDTH 20 0
BBX 14 27 4 0
BITMAP
0C00
0600
0300
0180
00C0
0000
0040
00E0
03B0
0618
0C0C
0000
0000
03C0
1C30
0010
0008
0008
0008
0F88
3070
4010
4010
8010
8060
80A0
7F3C
ENDCHAR
STARTCHAR uni1EAA
ENCODING 7850
SWIDTH 600 0
DWIDTH 20 0
BBX 19 30 0 0
BITMAP
01E080
033980
020F00
000000
000400
000E00
003B00
006180
00C0C0
000000
000000
01FE00
001200
001200
002200
002200
004100
004100
008100
008100
010100
020100
020100
07FF00
040100
080080
080080
100080
100080
FE07E0
ENDCHAR
STARTCHAR uni1EAB
ENCODING 7851
SWIDTH 600 0
DWIDTH 20 0
BBX 14 25 4 0
BITMAP
1E08
3398
20F0
0000
0040
00E0
03B0
0618
0C0C
0000
0000
03C0
1C30
0010
0008
0008
0008
0F88
3070
4010
4010
8010
8060
80A0
7F3C
ENDCHAR
STARTCHAR uni1EAC
ENCODING 7852
SWIDTH 600 0
DWIDTH 20 0
BBX 19 29 0 -4
BITMAP
001000
003800
00EC00
018600
030300
000000
01FE00
001200
001200
002200
002200
004100
004100
008100
008100
010100
020100
020100
07FF00
040100
080080
080080
100080
100080
FE07E0
000000
006000
00E000
00C000
ENDCHAR
STARTCHAR uni1EAD
ENCODING 7853
SWIDTH 600 0
DWIDTH 20 0
BBX 14 24 4 -4
BITMAP
0080
01C0
0760
0C30
1818
0000
07C0
1830
0008
0008
0008
0008
0F88
3070
4010
4010
8010
8020
80E0
7F3C
0000
0300
0700
0600
ENDCHAR
STARTCHAR uni1EAE
ENCODING 7854
SWIDTH 600 0
DWIDTH 20 0
BBX 19 31 0 0
BITMAP
000600
000C00
003800
006000
00C000
000000
030300
030300
030600
01FC00
007000
000000
01FE00
001200
001200
002200
002200
004100
004100
008100
008100
010100
020100
020100
07FF00
040100
080080
080080
100080
100080
FE07E0
ENDCHAR
STARTCHAR uni1EAF
ENCODING 7855
SWIDTH 600 0
DWIDTH 20 0
BBX 14 26 4 0
BITMAP
0030
0060
01C0
0300
0600
0000
1818
1818
1830
0FE0
0380
0000
07C0
1830
0008
0008
0008
0008
0F88
3070
4010
4010
8010
8020
80E0
7F3C
ENDCHAR
STARTCHAR uni1EB0
ENCODING 7856
SWIDTH 600 0
DWIDTH 20 0
BBX 19 31 0 0
BITMAP
030000
018000
00C000
006000
003000
000000
030300
030300
030600
01FC00
007000
000000
01FE00
001200
001200
002200
002200
004100
004100
008100
008100
010100
020100
020100
07FF00
040100
080080
080080
100080
100080
FE07E0
ENDCHAR
STARTCHAR uni1EB1
ENCODING 7857
SWIDTH 600 0
DWIDTH 20 0
BBX 14 26 4 0
BITMAP
1800
0C00
0600
0300
0180
0000
1818
1818
1830
0FE0
0380
0000
07C0
1830
0008
0008
0008
0008
0F88
3070
4010
4010
8010
8020
80E0
7F3C
ENDCHAR
STARTCHAR uni1EB4
ENCODING 7860
SWIDTH 600 0
DWIDTH 20 0
BBX 19 29 0 0
BITMAP
078200
0CE600
083C00
000000
030300
030300
030600
01FC00
007000
000000
01FE00
001200
001200
002200
002200
004100
004100
008100
008100
010100
020100
020100
07FF00
040100
080080
080080
100080
100080
FE07E0
ENDCHAR
STARTCHAR uni1EB5
ENCODING 7861
SWIDTH 600 0
DWIDTH 20 0
BBX 14 24 4 0
BITMAP
3C10
6730
41E0
0000
1818
1818
1830
0FE0
0380
0000
07C0
1830
0008
0008
0008
0008
0F88
3070
4010
4010
8010
8020
80E0
7F3C
ENDCHAR
STARTCHAR uni1EB6
ENCODING 7862
SWIDTH 600 0
DWIDTH 20 0
BBX 19 29 0 -4
BITMAP
030300
030300
030600
01FC00
007000
000000
01FE00
001200
001200
002200
002200
004100
004100
008100
008100
010100
020100
020100
07FF00
040100
080080
080080
100080
100080
FE07E0
000000
006000
00E000
00C000
ENDCHAR
STARTCHAR uni1EB7
ENCODING 7863
SWIDTH 600 0
DWIDTH 20 0
BBX 14 24 4 -4
BITMAP
0C0C
0C0C
0C18
07F0
01C0
0000
07C0
1830
0008
0008
0008
0008
0F88
3070
4010
4010
8010
8020
80E0
7F3C
0000
0300
0700
0600
ENDCHAR
STARTCHAR uni1EB8
ENCODING 7864
SWIDTH 600 0
DWIDTH 20 0
BBX 19 23 1 -4
BITMAP
0FFFE0
010020
010020
020040
020040
020440
020400
040400
07FC00
040800
040800
040800
080000
080080
080080
080080
100100
100100
FFFF00
000000
00C000
01C000
018000
ENDCHAR
STARTCHAR uni1EB9
ENCODING 7865
SWIDTH 600 0
DWIDTH 20 0
BBX 14 18 4 -4
BITMAP
07C0
1830
2008
4008
4004
8004
FFFC
8000
8000
8000
4000
4018
3060
0F80
0000
0300
0700
0600
ENDCHAR
STARTCHAR uni1EBC
ENCODING 7868
SWIDTH 600 0
DWIDTH 20 0
BBX 19 23 1 0
BITMAP
03C100
067300
041E00
000000
0FFFE0
010020
010020
020040
020040
020440
020400
040400
07FC00
040800
040800
040800
080000
080080
080080
080080
100100
100100
FFFF00
ENDCHAR
STARTCHAR uni1EBD
ENCODING 7869
SWIDTH 600 0
DWIDTH 20 0
BBX 14 18 4 0
BITMAP
3C10
6730
41E0
0000
07C0
1830
2008
4008
4004
8004
FFFC
8000
8000
8000
4000
4018
3060
0F80
ENDCHAR
STARTCHAR uni1EBE
ENCODING 7870
SWIDTH 600 0
DWIDTH 20 0
BBX 19 32 1 0
BITMAP
000180
000300
000E00
001800
003000
000000
000400
000E00
003B00
006180
00C0C0
000000
000000
0FFFE0
010020
010020
020040
020040
020440
020400
040400
07FC00
040800
040800
040800
080000
080080
080080
080080
100100
100100
FFFF00
ENDCHAR
STARTCHAR uni1EBF
ENCODING 7871
SWIDTH 600 0
DWIDTH 20 0
BBX 14 27 4 0
BITMAP
0018
0030
00E0
0180
0300
0000
0080
01C0
0760
0C30
1818
0000
0000
07C0
1830
2008
4008
4004
8004
FFFC
8000
8000
8000
4000
4018
3060
0F80
ENDCHAR
STARTCHAR uni1EC0
ENCODING 7872
SWIDTH 600 0
DWIDTH 20 0
BBX 19 32 1 0
BITMAP
00C000
006000
003000
001800
000C00
000000
000400
000E00
003B00
006180
00C0C0
000000
000000
0FFFE0
010020
010020
020040
020040
020440
020400
040400
07FC00
040800
040800
040800
080000
080080
080080
080080
100100
100100
FFFF00
ENDCHAR
STARTCHAR uni1EC1
ENCODING 7873
SWIDTH 600 0
DWIDTH 20 0
BBX 14 27 4 0
BITMAP
0C00
0600
0300
0180
00C0
0000
0080
01C0
0760
0C30
1818
0000
0000
07C0
1830
2008
4008
4004
8004
FFFC
8000
8000
8000
4000
4018
3060
0F80
ENDCHAR
STARTCHAR uni1EC4
ENCODING 7876
SWIDTH 600 0
DWIDTH 20 0
BBX 19 30 1 0
BITMAP
01E080
033980
020F00
000000
000400
000E00
003B00
006180
00C0C0
000000
000000
0FFFE0
010020
010020
020040
020040
020440
020400
040400
07FC00
040800
040800
040800
080000
080080
080080
080080
100100
100100
FFFF00
ENDCHAR
STARTCHAR uni1EC5
ENCODING 7877
SWIDTH 600 0
DWIDTH 20 0
BBX 14 25 4 0
BITMAP
1E08
3398
20F0
0000
0080
01C0
0760
0C30
1818
0000
0000
07C0
1830
2008
4008
4004
8004
FFFC
8000
8000
8000
4000
4018
3060
0F80
ENDCHAR
STARTCHAR uni1EC6
ENCODING 7878
SWIDTH 600 0
DWIDTH 20 0
BBX 19 29 1 -4
BITMAP
001000
003800
00EC00
018600
030300
000000
0FFFE0
010020
010020
020040
020040
020440
020400
040400
07FC00
040800
040800
040800
080000
080080
080080
080080
100100
100100
FFFF00
000000
00C000
01C000
018000
ENDCHAR
STARTCHAR uni1EC7
ENCODING 7879
SWIDTH 600 0
DWIDTH 20 0
BBX 14 24 4 -4
BITMAP
0100
0380
0EC0
1860
3030
0000
07C0
1830
2008
4008
4004
8004
FFFC
8000
8000
8000
4000
4018
3060
0F80
0000
0300
0700
0600
ENDCHAR
STARTCHAR uni1ECA
ENCODING 7882
SWIDTH 600 0
DWIDTH 20 0
BBX 15 23 4 -4
BITMAP
1FFE
0040
0040
0080
0080
0080
0080
0100
0100
0100
0100
0100
0200
0200
0200
0200
0400
0400
FFF0
0000
0300
0700
0600
ENDCHAR
STARTCHAR uni1ECB
ENCODING 7883
SWIDTH 600 0
DWIDTH 20 0
BBX 13 24 3 -4
BITMAP
0060
0060
0060
0000
0000
0000
0FC0
0040
0040
0080
0080
0080
0080
0100
0100
0100
0100
0200
0200
FFF8
0000
0300
0700
0600
ENDCHAR
STARTCHAR uni1ECC
ENCODING 7884
SWIDTH 600 0
DWIDTH 20 0
BBX 16 23 4 -4
BITMAP
01F0
0608
1804
2002
2002
4001
4001
4001
8001
8001
8001
8002
8002
8002
4004
4004
2018
1060
0F80
0000
0180
0380
0300
ENDCHAR
STARTCHAR uni1ECD
ENCODING 7885
SWIDTH 600 0
DWIDTH 20 0
BBX 15 18 4 -4
BITMAP
03F0
0C08
1004
2004
2002
4002
4002
8004
8004
8008
4008
4010
2060
1F80
0000
0300
0700
0600
ENDCHAR
STARTCHAR uni1ED0
ENCODING 7888
SWIDTH 600 0
DWIDTH 20 0
BBX 16 32 4 0
BITMAP
000C
0018
0070
00C0
0180
0000
0020
0070
01D8
030C
0606
0000
0000
01F0
0608
1804
2002
2002
4001
4001
4001
8001
8001
8001
8002
8002
8002
4004
4004
2018
1060
0F80
ENDCHAR
STARTCHAR uni1ED1
ENCODING 7889
SWIDTH 600 0
DWIDTH 20 0
BBX 15 27 4 0
BITMAP
0018
0030
00E0
0180
0300
0000
0040
00E0
03B0
0618
0C0C
0000
0000
03F0
0C08
1004
2004
2002
4002
4002
8004
8004
8008
4008
4010
2060
1F80
ENDCHAR
STARTCHAR uni1ED2
ENCODING 7890
SWIDTH 600 0
DWIDTH 20 0
BBX 16 32 4 0
BITMAP
0600
0300
0180
00C0
0060
0000
0020
0070
01D8
030C
0606
0000
0000
01F0
0608
1804
2002
2002
4001
4001
4001
8001
8001
8001
8002
8002
8002
4004
4004
2018
1060
0F80
ENDCHAR
STARTCHAR uni1ED3
ENCODING 7891
SWIDTH 600 0
DWIDTH 20 0
BBX 15 27 4 0
BITMAP
0600
0300
0180
00C0
0060
0000
0040
00E0
03B0
0618
0C0C
0000
0000
03F0
0C08
1004
2004
2002
4002
4002
8004
8004
8008
4008
4010
2060
1F80
ENDCHAR
STARTCHAR uni1ED6
ENCODING 7894
SWIDTH 600 0
DWIDTH 20 0
BBX 16 30 4 0
BITMAP
0F04
19CC
1078
0000
0020
0070
01D8
030C
0606
0000
0000
01F0
0608
1804
2002
2002
4001
4001
4001
8001
8001
8001
8002
8002
8002
4004
4004
2018
1060
0F80
ENDCHAR
STARTCHAR uni1ED7
ENCODING 7895
SWIDTH 600 0
DWIDTH 20 0
BBX 15 25 4 0
BITMAP
1E08
3398
20F0
0000
0040
00E0
03B0
0618
0C0C
0000
0000
03F0
0C08
1004
2004
2002
4002
4002
8004
8004
8008
4008
4010
2060
1F80
ENDCHAR
STARTCHAR uni1ED8
ENCODING 7896
SWIDTH 600 0
DWIDTH 20 0
BBX 16 29 4 -4
BITMAP
0080
01C0
0760
0C30
1818
0000
01F0
0608
1804
2002
2002
4001
4001
4001
8001
8001
8001
8002
8002
8002
4004
4004
2018
1060
0F80
0000
0180
0380
0300
ENDCHAR
STARTCHAR uni1ED9
ENCODING 7897
SWIDTH 600 0
DWIDTH 20 0
BBX 15 24 4 -4
BITMAP
0080
01C0
0760
0C30
1818
0000
03F0
0C08
1004
2004
2002
4002
4002
8004
8004
8008
4008
4010
2060
1F80
0000
0300
0700
0600
ENDCHAR
STARTCHAR uni1EDA
ENCODING 7898
SWIDTH 600 0
DWIDTH 20 0
BBX 23 25 4 0
BITMAP
0000C0
000180
000700
000C00
001800
000000
01F03E
06083C
180478
200270
2002E0
4001C0
400180
400100
800100
800100
800100
800200
800200
800200
400400
400400
201800
106000
0F8000
ENDCHAR
STARTCHAR uni1EDB
ENCODING 7899
SWIDTH 600 0
DWIDTH 20 0
BBX 22 20 4 0
BITMAP
0000C0
000180
000700
000C00
001800
000000
03F07C
0C0878
1004F0
2004E0
2003C0
400380
400300
800400
800400
800800
400800
401000
206000
1F8000
ENDCHAR
STARTCHAR uni1EDC
ENCODING 7900
SWIDTH 600 0
DWIDTH 20 0
BBX 23 25 4 0
BITMAP
003000
001800
000C00
000600
000300
000000
01F03E
06083C
180478
200270
2002E0
4001C0
400180
400100
800100
800100
800100
800200
800200
800200
400400
400400
201800
106000
0F8000
ENDCHAR
STARTCHAR uni1EDD
ENCODING 7901
SWIDTH 600 0
DWIDTH 20 0
BBX 22 20 4 0
BITMAP
006000
003000
001800
000C00
000600
000000
03F07C
0C0878
1004F0
2004E0
2003C0
400380
400300
800400
800400
800800
400800
401000
206000
1F8000
ENDCHAR
STARTCHAR uni1EE0
ENCODING 7904
SWIDTH 600 0
DWIDTH 20 0
BBX 23 23 4 0
BITMAP
00F040
019CC0
010780
000000
01F03E
06083C
180478
200270
2002E0
4001C0
400180
400100
800100
800100
800100
800200
800200
800200
400400
400400
201800
106000
0F8000
ENDCHAR
STARTCHAR uni1EE1
ENCODING 7905
SWIDTH 600 0
DWIDTH 20 0
BBX 22 18 4 0
BITMAP
00F040
019CC0
010780
000000
03F07C
0C0878
1004F0
2004E0
2003C0
400380
400300
800400
800400
800800
400800
401000
206000
1F8000
ENDCHAR
STARTCHAR uni1EE2
ENCODING 7906
SWIDTH 600 0
DWIDTH 20 0
BBX 23 23 4 -4
BITMAP
01F03E
06083C
180478
200270
2002E0
4001C0
400180
400100
800100
800100
800100
800200
800200
800200
400400
400400
201800
106000
0F8000
000000
00C000
01C000
018000
ENDCHAR
STARTCHAR uni1EE3
ENCODING 7907
SWIDTH 600 0
DWIDTH 20 0
BBX 22 18 4 -4
BITMAP
03F07C
0C0878
1004F0
2004E0
2003C0
400380
400300
800400
800400
800800
400800
401000
206000
1F8000
000000
018000
038000
030000
ENDCHAR
STARTCHAR uni1EE4
ENCODING 7908
SWIDTH 600 0
DWIDTH 20 0
BBX 17 23 5 -4
BITMAP
7E1F80
100200
100200
200400
200400
200400
200400
400800
400800
400800
400800
801000
801000
801000
802000
402000
404000
208000
1F0000
000000
030000
070000
060000
ENDCHAR
STARTCHAR uni1EE5
ENCODING 7909
SWIDTH 600 0
DWIDTH 20 0
BBX 15 18 4 -4
BITMAP
F03E
1002
1002
2004
2004
2004
2004
2008
4008
4008
4008
4030
20D0
1F1C
0000
0180
0380
0300
ENDCHAR
STARTCHAR uni1EE8
ENCODING 7912
SWIDTH 600 0
DWIDTH 20 0
BBX 23 25 5 0
BITMAP
0000C0
000180
000700
000C00
001800
000000
7E1FBE
10023C
100278
200470
2004E0
2004C0
200580
400800
400800
400800
400800
801000
801000
801000
802000
402000
404000
208000
1F0000
ENDCHAR
STARTCHAR uni1EE9
ENCODING 7913
SWIDTH 600 0
DWIDTH 20 0
BBX 22 20 4 0
BITMAP
0000C0
000180
000700
000C00
001800
000000
F03E7C
100278
1002F0
2004E0
2005C0
200580
200700
200800
400800
400800
400800
403000
20D000
1F1C00
ENDCHAR
STARTCHAR uni1EEA
ENCODING 7914
SWIDTH 600 0
DWIDTH 20 0
BBX 23 25 5 0
BITMAP
006000
003000
001800
000C00
000600
000000
7E1FBE
10023C
100278
200470
2004E0
2004C0
200580
400800
400800
400800
400800
801000
801000
801000
802000
402000
404000
208000
1F0000
ENDCHAR
STARTCHAR uni1EEB
ENCODING 7915
SWIDTH 600 0
DWIDTH 20 0
BBX 22 20 4 0
BITMAP
006000
003000
001800
000C00
000600
000000
F03E7C
100278
1002F0
2004E0
2005C0
200580
200700
200800
400800
400800
400800
403000
20D000
1F1C00
ENDCHAR
STARTCHAR uni1EEE
ENCODING 7918
SWIDTH 600 0
DWIDTH 20 0
BBX 23 23 5 0
BITMAP
00F040
019CC0
010780
000000
7E1FBE
10023C
100278
200470
2004E0
2004C0
200580
400800
400800
400800
400800
801000
801000
801000
802000
402000
404000
208000
1F0000
ENDCHAR
STARTCHAR uni1EEF
ENCODING 7919
SWIDTH 600 0
DWIDTH 20 0
BBX 22 18 4 0
BITMAP
00F040
019CC0
010780
000000
F03E7C
100278
1002F0
2004E0
2005C0
200580
200700
200800
400800
400800
400800
403000
20D000
1F1C00
ENDCHAR
STARTCHAR uni1EF0
ENCODING 7920
SWIDTH 600 0
DWIDTH 20 0
BBX 23 23 5 -4
BITMAP
7E1FBE
10023C
100278
200470
2004E0
2004C0
200580
400800
400800
400800
400800
801000
801000
801000
802000
402000
404000
208000
1F0000
000000
018000
038000
030000
ENDCHAR
STARTCHAR uni1EF1
ENCODING 7921
SWIDTH 600 0
DWIDTH 20 0
BBX 22 18 4 -4
BITMAP
F03E7C
100278
1002F0
2004E0
2005C0
200580
200700
200800
400800
400800
400800
403000
20D000
1F1C00
000000
00C000
01C000
018000
ENDCHAR
STARTCHAR Ygrave
ENCODING 7922
SWIDTH 600 0
DWIDTH 20 0
BBX 17 25 5 0
BITMAP
0C0000
060000
030000
018000
00C000
000000
F81F80
200400
100800
100800
081000
082000
084000
048000
048000
030000
020000
020000
020000
040000
040000
040000
040000
080000
FFC000
ENDCHAR
STARTCHAR ygrave
ENCODING 7923
SWIDTH 600 0
DWIDTH 20 0
BBX 20 26 0 -6
BITMAP
018000
00C000
006000
003000
001800
000000
1F81F0
040040
020040
020080
020100
010100
010200
010400
010400
008800
009000
00A000
006000
004000
008000
008000
010000
020000
020000
FFC000
ENDCHAR
STARTCHAR uni1EF4
ENCODING 7924
SWIDTH 600 0
DWIDTH 20 0
BBX 17 23 5 -4
BITMAP
F81F80
200400
100800
100800
081000
082000
084000
048000
048000
030000
020000
020000
020000
040000
040000
040000
040000
080000
FFC000
000000
060000
0E0000
0C0000
ENDCHAR
STARTCHAR uni1EF5
ENCODING 7925
SWIDTH 600 0
DWIDTH 20 0
BBX 20 24 0 -10
BITMAP
1F81F0
040040
020040
020080
020100
010100
010200
010400
010400
008800
009000
00A000
006000
004000
008000
008000
010000
020000
020000
FFC000
000000
030000
070000
060000
ENDCHAR
STARTCHAR uni1EF8
ENCODING 7928
SWIDTH 600 0
DWIDTH 20 0
BBX 17 23 5 0
BITMAP
1E0800
339800
20F000
000000
F81F80
200400
100800
100800
081000
082000
084000
048000
048000
030000
020000
020000
020000
040000
040000
040000
040000
080000
FFC000
ENDCHAR
STARTCHAR uni1EF9
ENCODING 7929
SWIDTH 600 0
DWIDTH 20 0
BBX 20 24 0 -6
BITMAP
03C100
067300
041E00
000000
1F81F0
040040
020040
020080
020100
010100
010200
010400
010400
008800
009000
00A000
006000
004000
008000
008000
010000
020000
020000
FFC000
ENDCHAR
STARTCHAR uni2000
ENCODING 8192
SWIDTH 600 0
DWIDTH 20 0
BBX 1 1 0 0
BITMAP
00
ENDCHAR
STARTCHAR uni2001
ENCODING 8193
SWIDTH 600 0
DWIDTH 20 0
BBX 1 1 0 0
BITMAP
00
ENDCHAR
STARTCHAR uni2002
ENCODING 8194
SWIDTH 600 0
DWIDTH 20 0
BBX 1 1 0 0
BITMAP
00
ENDCHAR
STARTCHAR uni2003
ENCODING 8195
SWIDTH 600 0
DWIDTH 20 0
BBX 1 1 0 0
BITMAP
00
ENDCHAR
STARTCHAR uni2004
ENCODING 8196
SWIDTH 600 0
DWIDTH 20 0
BBX 1 1 0 0
BITMAP
00
ENDCHAR
STARTCHAR uni2005
ENCODING 8197
SWIDTH 600 0
DWIDTH 20 0
BBX 1 1 0 0
BITMAP
00
ENDCHAR
STARTCHAR uni2006
ENCODING 8198
SWIDTH 600 0
DWIDTH 20 0
BBX 1 1 0 0
BITMAP
00
ENDCHAR
STARTCHAR uni2007
ENCODING 8199
SWIDTH 600 0
DWIDTH 20 0
BBX 1 1 0 0
BITMAP
00
ENDCHAR
STARTCHAR uni2008
ENCODING 8200
SWIDTH 600 0
DWIDTH 20 0
BBX 1 1 0 0
BITMAP
00
ENDCHAR
STARTCHAR uni2009
ENCODING 8201
SWIDTH 600 0
DWIDTH 20 0
BBX 1 1 0 0
BITMAP
00
ENDCHAR
STARTCHAR uni200A
ENCODING 8202
SWIDTH 600 0
DWIDTH 20 0
BBX 1 1 0 0
BITMAP
00
ENDCHAR
STARTCHAR uni2010
ENCODING 8208
SWIDTH 600 0
DWIDTH 20 0
BBX 14 1 5 8
BITMAP
FFFC
ENDCHAR
STARTCHAR uni2011
ENCODING 8209
SWIDTH 600 0
DWIDTH 20 0
BBX 14 1 5 8
BITMAP
FFFC
ENDCHAR
STARTCHAR figuredash
ENCODING 8210
SWIDTH 600 0
DWIDTH 20 0
BBX 12 1 4 9
BITMAP
FFF0
ENDCHAR
STARTCHAR endash
ENCODING 8211
SWIDTH 600 0
DWIDTH 20 0
BBX 12 1 4 9
BITMAP
FFF0
ENDCHAR
STARTCHAR emdash
ENCODING 8212
SWIDTH 600 0
DWIDTH 20 0
BBX 20 1 0 9
BITMAP
FFFFF0
ENDCHAR
STARTCHAR afii00208
ENCODING 8213
SWIDTH 600 0
DWIDTH 20 0
BBX 20 1 0 9
BITMAP
FFFFF0
ENDCHAR
STARTCHAR quoteleft
ENCODING 8216
SWIDTH 600 0
DWIDTH 20 0
BBX 8 7 10 13
BITMAP
F8
78
3C
1C
0E
06
03
ENDCHAR
STARTCHAR quoteright
ENCODING 8217
SWIDTH 600 0
DWIDTH 20 0
BBX 8 7 8 13
BITMAP
1F
1E
3C
38
70
60
C0
ENDCHAR
STARTCHAR quotesinglbase
ENCODING 8218
SWIDTH 600 0
DWIDTH 20 0
BBX 8 9 4 -5
BITMAP
0F
1E
1C
38
38
70
60
E0
C0
ENDCHAR
STARTCHAR quotereversed
ENCODING 8219
SWIDTH 600 0
DWIDTH 20 0
BBX 8 7 8 13
BITMAP
F8
78
3C
1C
0E
06
03
ENDCHAR
STARTCHAR quotedblleft
ENCODING 8220
SWIDTH 600 0
DWIDTH 20 0
BBX 11 9 8 12
BITMAP
E1C0
E1C0
E1C0
60C0
70E0
70E0
3060
3060
3060
ENDCHAR
STARTCHAR quotedblright
ENCODING 8221
SWIDTH 600 0
DWIDTH 20 0
BBX 15 9 6 12
BITMAP
070E
0F1E
1E3C
1C38
3870
30E0
70E0
E1C0
C180
ENDCHAR
STARTCHAR quotedblbase
ENCODING 8222
SWIDTH 600 0
DWIDTH 20 0
BBX 15 8 3 -4
BITMAP
0F1E
1E3C
1C38
3870
70E0
60C0
E1C0
C180
ENDCHAR
STARTCHAR uni201F
ENCODING 8223
SWIDTH 600 0
DWIDTH 20 0
BBX 15 9 6 12
BITMAP
E1C0
F1E0
78F0
3870
1C38
0E18
0E1C
070E
0306
ENDCHAR
STARTCHAR dagger
ENCODING 8224
SWIDTH 600 0
DWIDTH 20 0
BBX 11 23 7 -2
BITMAP
0200
0200
0200
0400
0400
0400
0400
FFE0
0400
0800
0800
0800
0800
0800
1000
1000
1000
1000
1000
1000
2000
2000
2000
ENDCHAR
STARTCHAR daggerdbl
ENCODING 8225
SWIDTH 600 0
DWIDTH 20 0
BBX 13 23 5 -2
BITMAP
0080
0080
0080
0100
0100
0100
0100
3FF8
0100
0200
0200
0200
0200
0200
0400
0400
FFE0
0400
0400
0400
0800
0800
0800
ENDCHAR
STARTCHAR bullet
ENCODING 8226
SWIDTH 600 0
DWIDTH 20 0
BBX 8 8 8 6
BITMAP
1C
7F
7F
FF
FF
FE
FE
38
ENDCHAR
STARTCHAR ellipsis
ENCODING 8230
SWIDTH 600 0
DWIDTH 20 0
BBX 16 3 2 0
BITMAP
6183
E387
C306
ENDCHAR
STARTCHAR perthousand
ENCODING 8240
SWIDTH 600 0
DWIDTH 20 0
BBX 17 21 4 0
BITMAP
0C0000
320000
220000
420000
460000
4C0000
300000
000380
003C00
01C000
1E0000
E00000
000000
000000
0C0600
321900
221100
422100
462300
4C2600
301800
ENDCHAR
STARTCHAR guilsinglleft
ENCODING 8249
SWIDTH 600 0
DWIDTH 20 0
BBX 9 14 4 0
BITMAP
0080
0100
0200
0C00
1800
3000
6000
C000
6000
2000
3000
1800
0800
0400
ENDCHAR
STARTCHAR guilsinglright
ENCODING 8250
SWIDTH 600 0
DWIDTH 20 0
BBX 9 14 7 0
BITMAP
1000
0800
0C00
0600
0200
0300
0180
0300
0600
0C00
1800
2000
4000
8000
ENDCHAR
STARTCHAR uni203D
ENCODING 8253
SWIDTH 600 0
DWIDTH 20 0
BBX 11 21 8 0
BITMAP
0080
01C0
1F80
31C0
43A0
8320
0320
0360
0240
0380
0600
0C00
1400
3400
2000
0000
0000
0000
7C00
FC00
F800
ENDCHAR
STARTCHAR fraction
ENCODING 8260
SWIDTH 600 0
DWIDTH 20 0
BBX 17 15 2 2
BITMAP
000080
000100
000200
000400
000800
003000
004000
008000
010000
060000
080000
100000
200000
400000
800000
ENDCHAR
STARTCHAR oneinferior
ENCODING 8321
SWIDTH 600 0
DWIDTH 20 0
BBX 8 13 7 -6
BITMAP
06
1A
22
02
04
04
04
04
04
08
08
08
FF
ENDCHAR
STARTCHAR twoinferior
ENCODING 8322
SWIDTH 600 0
DWIDTH 20 0
BBX 11 13 7 -6
BITMAP
0380
0C40
1020
2020
0020
0040
0080
0300
0400
0800
3000
4080
FF80
ENDCHAR
STARTCHAR threeinferior
ENCODING 8323
SWIDTH 600 0
DWIDTH 20 0
BBX 9 13 8 -6
BITMAP
0E00
1100
2080
0080
0080
0300
0C00
0200
0100
0100
8100
4200
3C00
ENDCHAR
STARTCHAR uni20A5
ENCODING 8357
SWIDTH 600 0
DWIDTH 20 0
BBX 19 25 1 -5
BITMAP
000020
000040
000040
000080
000100
000200
1CE3C0
051620
061C20
0C1820
081020
083020
085040
106040
10A040
112040
112040
224080
244080
FC70E0
080000
100000
200000
200000
400000
ENDCHAR
STARTCHAR uni20A6
ENCODING 8358
SWIDTH 600 0
DWIDTH 20 0
BBX 20 19 2 0
BITMAP
1F03F0
030040
028040
048080
048080
048080
1FFFE0
084100
084100
084100
082100
3FFFC0
102200
101200
101200
101200
201400
200C00
FC0C00
ENDCHAR
STARTCHAR uni20A9
ENCODING 8361
SWIDTH 600 0
DWIDTH 20 0
BBX 19 19 4 0
BITMAP
FE0FE0
200080
200100
200100
21C100
414200
7FFFC0
424200
444400
444400
484400
7FFF80
484800
504800
905000
A05000
A05000
C06000
C06000
ENDCHAR
STARTCHAR Euro
ENCODING 8364
SWIDTH 600 0
DWIDTH 20 0
BBX 22 19 -1 0
BITMAP
000784
003874
00400C
008008
010008
010008
7FFF80
020000
040000
040000
040000
FFFF00
040000
040000
040000
020020
0200C0
01C700
003800
ENDCHAR
STARTCHAR uni20AD
ENCODING 8365
SWIDTH 600 0
DWIDTH 20 0
BBX 21 19 1 0
BITMAP
0FE1F8
010020
0100C0
020100
020200
020400
021800
042000
044000
FFFFF8
060800
040800
080800
080400
080400
080400
100400
100200
FF03C0
ENDCHAR
STARTCHAR trademark
ENCODING 8482
SWIDTH 600 0
DWIDTH 20 0
BBX 19 11 4 8
BITMAP
7F3060
4910C0
8A10C0
923180
102980
102A80
102A80
102C80
204100
204100
F1E380
ENDCHAR
STARTCHAR uni212A
ENCODING 8490
SWIDTH 600 0
DWIDTH 20 0
BBX 21 19 1 0
BITMAP
0FE1F8
010020
0100C0
020100
020200
020400
021800
042000
044000
05B000
060800
040800
080800
080400
080400
080400
100400
100200
FF03C0
ENDCHAR
STARTCHAR uni212B
ENCODING 8491
SWIDTH 600 0
DWIDTH 20 0
BBX 19 26 0 0
BITMAP
000700
000880
001080
001080
001100
000E00
000000
01FE00
001200
001200
002200
002200
004100
004100
008100
008100
010100
020100
020100
07FF00
040100
080080
080080
100080
100080
FE07E0
ENDCHAR
STARTCHAR uni2132
ENCODING 8498
SWIDTH 600 0
DWIDTH 20 0
BBX 20 19 1 0
BITMAP
003FF0
000080
000080
000100
000100
000100
000100
010200
010200
010200
03FE00
020200
020400
420400
400400
400400
800800
800800
FFFF00
ENDCHAR
STARTCHAR minus
ENCODING 8722
SWIDTH 600 0
DWIDTH 20 0
BBX 14 1 5 9
BITMAP
FFFC
ENDCHAR
STARTCHAR fraction
ENCODING 8725
SWIDTH 600 0
DWIDTH 20 0
BBX 17 15 2 2
BITMAP
000080
000100
000200
000400
000800
003000
004000
008000
010000
060000
080000
100000
200000
400000
800000
ENDCHAR
STARTCHAR periodcentered
ENCODING 8729
SWIDTH 600 0
DWIDTH 20 0
BBX 4 4 9 8
BITMAP
70
F0
F0
E0
ENDCHAR
STARTCHAR uni2236
ENCODING 8758
SWIDTH 600 0
DWIDTH 20 0
BBX 6 14 8 0
BITMAP
1C
3C
3C
38
00
00
00
00
00
00
70
F0
F0
E0
ENDCHAR
STARTCHAR uni2259
ENCODING 8793
SWIDTH 600 0
DWIDTH 20 0
BBX 17 12 3 6
BITMAP
004000
00E000
03B000
061800
0C0C00
000000
7FFF80
000000
000000
000000
000000
FFFF00
ENDCHAR
STARTCHAR uni225A
ENCODING 8794
SWIDTH 600 0
DWIDTH 20 0
BBX 17 12 3 6
BITMAP
0C0C00
061800
037000
01C000
008000
000000
7FFF80
000000
000000
000000
000000
FFFF00
ENDCHAR
STARTCHAR notequal
ENCODING 8800
SWIDTH 600 0
DWIDTH 20 0
BBX 18 25 3 -3
BITMAP
000040
000080
000080
000100
000200
000400
000400
000800
001000
001000
7FFF80
004000
008000
008000
010000
FFFF00
020000
040000
080000
080000
100000
200000
400000
400000
800000
ENDCHAR
STARTCHAR equivalence
ENCODING 8801
SWIDTH 600 0
DWIDTH 20 0
BBX 17 5 0 7
BITMAP
FFFF80
000000
FFFF80
000000
FFFF80
ENDCHAR
STARTCHAR uni2262
ENCODING 8802
SWIDTH 600 0
DWIDTH 20 0
BBX 18 25 0 -3
BITMAP
000040
000080
000080
000100
000200
000400
000400
000800
001000
001000
FFFF80
004000
FFFF80
008000
FFFF80
020000
020000
040000
080000
080000
100000
200000
400000
400000
800000
ENDCHAR
STARTCHAR lessequal
ENCODING 8804
SWIDTH 600 0
DWIDTH 20 0
BBX 16 19 5 -1
BITMAP
0003
000E
0038
00E0
0380
0E00
3800
6000
C000
6000
3000
1C00
0600
0300
01C0
0060
0030
0000
FFFF
ENDCHAR
STARTCHAR greaterequal
ENCODING 8805
SWIDTH 600 0
DWIDTH 20 0
BBX 16 19 3 -1
BITMAP
0C00
0700
0180
00C0
0070
0018
000C
0006
0003
0006
001C
0070
01C0
0700
1C00
7000
C000
0000
FFFF
ENDCHAR
STARTCHAR uni226E
ENCODING 8814
SWIDTH 600 0
DWIDTH 20 0
BBX 18 25 4 -3
BITMAP
000040
000080
000080
000100
000380
000700
001C00
007800
01D000
071000
1C2000
304000
608000
308000
190000
0E0000
030000
058000
08E000
083000
101800
200000
400000
400000
800000
ENDCHAR
STARTCHAR uni226F
ENCODING 8815
SWIDTH 600 0
DWIDTH 20 0
BBX 18 25 2 -3
BITMAP
000040
000080
000080
000100
060200
038400
00C400
006800
003800
001C00
002600
004300
008180
008300
010E00
023800
02E000
078000
0E0000
380000
700000
200000
400000
400000
800000
ENDCHAR
STARTCHAR uni2270
ENCODING 8816
SWIDTH 600 0
DWIDTH 20 0
BBX 18 25 4 -4
BITMAP
000040
000080
000080
000180
000700
001C00
007400
01C800
071000
1C1000
302000
604000
308000
188000
0F0000
030000
038000
04E000
083000
081800
100000
7FFF80
400000
400000
800000
ENDCHAR
STARTCHAR uni2271
ENCODING 8817
SWIDTH 600 0
DWIDTH 20 0
BBX 18 25 2 -4
BITMAP
000040
000080
000080
060100
038200
00C400
006400
003800
001C00
001600
002300
004180
008300
008E00
013800
02E000
038000
0E0000
380000
680000
100000
7FFF80
400000
400000
800000
ENDCHAR
STARTCHAR fi
ENCODING -1
SWIDTH 600 0
DWIDTH 20 0
BBX 20 21 0 0
BITMAP
003830
004630
004030
008000
008000
008000
008000
1FE1E0
010020
010020
010040
020040
020040
020040
020080
040080
040080
040080
040100
080100
FF0FF0
ENDCHAR
STARTCHAR fl
ENCODING -1
SWIDTH 600 0
DWIDTH 20 0
BBX 20 21 0 0
BITMAP
0038F0
004610
004010
008020
008020
008020
008020
1FE020
010040
010040
010040
020040
020040
020080
020080
040080
040080
040080
040100
080100
FF0FF0
ENDCHAR
ENDFONT
